# Blender v2.83.3 OBJ File: ''
# www.blender.org
mtllib arch.mtl
o Cube_Cube.001
v -1.000000 6.183745 1.000000
v -1.000000 6.183745 -1.000000
v 1.000000 6.183745 1.000000
v 1.000000 6.183745 -0.692346
v -2.483846 5.700082 -0.692346
v -2.483846 5.700082 0.692346
v 2.483846 5.700082 -0.692346
v 2.483846 5.700082 0.692346
v -4.913450 5.757798 -1.000000
v -4.913450 5.757798 1.000000
v -3.853188 7.453629 1.000000
v -3.853188 7.453629 -1.000000
v 3.853188 7.453629 -1.000000
v 4.913450 5.757798 -1.000000
v 4.913450 5.757798 1.000000
v 3.853188 7.453629 1.000000
v -2.776354 5.257485 -1.000000
v -2.776354 5.257485 1.000000
v 2.776354 5.257485 1.000000
v 2.776354 5.257485 -1.000000
v -4.913450 5.410544 -1.000000
v -4.913450 5.410544 1.000000
v 4.913450 5.410544 1.000000
v 4.913450 5.410544 -1.000000
v -4.394011 4.106999 -0.727886
v -4.394011 4.106999 0.727886
v 4.394011 4.106999 0.727886
v 4.394011 4.106999 -0.727886
v -4.396462 -2.042537 -0.727886
v -4.396462 -2.042537 0.727886
v 4.396462 -2.042537 0.727886
v 4.396462 -2.042537 -0.727886
v -4.393903 4.379113 -1.000000
v -4.393903 4.379113 1.000000
v 4.393903 4.379113 1.000000
v 4.393903 4.379113 -1.000000
v -4.396570 -2.314651 -1.000000
v -4.396570 -2.314651 1.000000
v 4.396570 -2.314651 1.000000
v 4.396570 -2.314651 -1.000000
v -4.955653 3.976287 -0.595330
v -4.955653 3.976287 0.595330
v 4.955653 3.976287 0.595330
v 4.955653 3.976287 -0.595330
v -4.958104 -1.908777 -0.595330
v -4.958104 -1.908777 0.595330
v 4.958104 -1.908777 0.595330
v 4.958104 -1.908777 -0.595330
v -2.256806 4.226053 -0.438808
v -2.818015 4.266247 -1.000000
v -2.509267 4.727252 -1.000000
v -2.818015 4.266247 1.000000
v -2.256806 4.226053 0.438808
v -2.509267 4.727252 1.000000
v 2.256806 4.226053 0.438808
v 2.818015 4.266247 1.000000
v 2.509267 4.727252 1.000000
v 2.818015 4.266247 -1.000000
v 2.256806 4.226053 -0.438808
v 2.509267 4.727252 -1.000000
v -2.815328 -2.296594 -1.000000
v -2.254138 -2.290185 -0.438808
v -2.254138 -2.290185 0.438808
v -2.815328 -2.296594 1.000000
v 2.815328 -2.296594 1.000000
v 2.254138 -2.290185 0.438808
v 2.254138 -2.290185 -0.438808
v 2.815328 -2.296594 -1.000000
v -1.000000 8.183744 0.504150
v -1.000000 7.662219 1.000000
v -0.504150 8.183744 1.000000
v -1.000000 7.662219 -1.000000
v -1.000000 8.183744 -0.504150
v -0.504150 8.183744 -1.000000
v 1.000000 7.662219 1.000000
v 1.000000 8.183744 0.504150
v 0.504150 8.183744 1.000000
v 1.000000 8.183744 -0.504150
v 1.000000 7.662219 -1.000000
v 0.504150 8.183744 -1.000000
v -2.776354 7.083212 1.000000
v -2.776354 7.604739 0.504150
v -3.267393 7.535832 1.000000
v -2.776354 7.604739 -0.504150
v -2.776354 7.083212 -1.000000
v -3.267393 7.535832 -1.000000
v 2.776354 7.083212 -1.000000
v 2.776354 7.604739 -0.504150
v 3.267393 7.535832 -1.000000
v 2.776354 7.604739 0.504150
v 2.776354 7.083212 1.000000
v 3.267393 7.535832 1.000000
v 1.000000 6.183745 -1.000000
v -1.000000 6.183745 -0.692346
v -1.000000 6.183745 0.692346
v 1.000000 6.183745 0.692346
v -2.776354 5.604739 -1.000000
v -2.776354 5.604739 1.000000
v 2.776354 5.604739 1.000000
v 2.776354 5.604739 -1.000000
v -1.000000 6.501245 -0.692346
v -1.000000 6.501245 0.692346
v 1.000000 6.501245 0.692346
v 1.000000 6.501245 -0.692346
v -2.483846 6.017582 -0.692346
v -2.483846 6.017582 0.692346
v 2.483846 6.017582 0.692346
v 2.483846 6.017582 -0.692346
vt 0.292521 0.098613
vt 0.292521 0.025715
vt 0.380392 0.054264
vt 0.380392 0.127162
vt 0.470142 0.658320
vt 0.420264 0.658320
vt 0.420264 0.570734
vt 0.470142 0.570734
vt 0.902757 0.689415
vt 0.902757 0.590802
vt 0.918463 0.590802
vt 0.918463 0.689415
vt 0.420264 0.756933
vt 0.470142 0.756933
vt 0.470142 0.844519
vt 0.420264 0.844519
vt 0.593604 0.875787
vt 0.593604 0.807513
vt 0.609294 0.807513
vt 0.609294 0.875787
vt 0.193587 0.025715
vt 0.193587 0.098613
vt 0.105716 0.127162
vt 0.105716 0.054264
vt 0.494670 0.546523
vt 0.395736 0.546523
vt 0.395736 0.517639
vt 0.494670 0.517639
vt 0.890789 0.485693
vt 0.866499 0.463375
vt 0.866499 0.390477
vt 0.972215 0.398024
vt 0.919767 0.481639
vt 0.863126 0.696438
vt 0.839201 0.623275
vt 0.854906 0.623275
vt 0.878832 0.696438
vt 0.218115 0.000000
vt 0.267992 0.000000
vt 0.778628 0.419026
vt 0.778628 0.491924
vt 0.754100 0.517639
vt 0.704222 0.517639
vt 0.679694 0.491924
vt 0.679694 0.419026
vt 0.591823 0.390477
vt 0.591823 0.463375
vt 0.567533 0.485693
vt 0.538555 0.481639
vt 0.486107 0.398024
vt 0.494670 0.682768
vt 0.494670 0.732484
vt 0.395736 0.732484
vt 0.395736 0.682769
vt 0.000000 0.603558
vt 0.000000 0.517639
vt 0.098934 0.517639
vt 0.098934 0.603558
vt 0.197868 0.914081
vt 0.197868 1.000000
vt 0.098934 1.000000
vt 0.098934 0.914081
vt 0.081426 0.031947
vt 0.000000 0.119615
vt 0.052448 0.036000
vt 0.105716 0.144284
vt 0.000000 0.136737
vt 0.098934 0.896977
vt 0.197868 0.896977
vt 0.404682 0.031947
vt 0.433659 0.036000
vt 0.486107 0.119615
vt 0.395736 0.868730
vt 0.494670 0.868730
vt 0.494670 0.897613
vt 0.395736 0.897613
vt 0.296802 0.890576
vt 0.197868 0.890576
vt 0.197868 0.863858
vt 0.225629 0.838602
vt 0.269042 0.838602
vt 0.296802 0.863858
vt 0.025700 0.187593
vt 0.103655 0.193158
vt 0.103788 0.516749
vt 0.025569 0.517639
vt 0.486107 0.136737
vt 0.380392 0.144284
vt 0.395736 0.907680
vt 0.296802 0.907680
vt 0.296802 0.890576
vt 0.395736 0.890576
vt 0.866499 0.373355
vt 0.972215 0.380902
vt 0.486107 0.380902
vt 0.591823 0.373355
vt 0.296802 0.907680
vt 0.197868 0.907680
vt 0.098934 0.620662
vt 0.000000 0.620662
vt 0.779898 0.545310
vt 0.807658 0.517639
vt 0.851071 0.517639
vt 0.878832 0.545310
vt 0.878832 0.623275
vt 0.779898 0.623275
vt 0.589762 0.324481
vt 0.511808 0.330046
vt 0.511676 0.000000
vt 0.589895 0.000890
vt 0.225629 0.517639
vt 0.269042 0.517639
vt 0.098934 0.847346
vt 0.197868 0.847346
vt 0.946514 0.330046
vt 0.868560 0.324481
vt 0.868427 0.000890
vt 0.946646 0.000000
vt 0.296802 0.863858
vt 0.324563 0.838602
vt 0.367976 0.838602
vt 0.395736 0.863858
vt 0.382452 0.193158
vt 0.460407 0.187593
vt 0.460539 0.517639
vt 0.382320 0.516749
vt 0.098934 0.670293
vt 0.000000 0.670293
vt 0.810335 0.840544
vt 0.782575 0.868214
vt 0.739162 0.868214
vt 0.711401 0.840544
vt 0.711401 0.762579
vt 0.810335 0.762579
vt 0.946248 0.517639
vt 0.946248 0.820851
vt 0.918468 0.814395
vt 0.918463 0.524224
vt 0.118928 0.170428
vt 0.367180 0.170428
vt 0.605035 0.347211
vt 1.000000 0.000000
vt 1.000000 0.303212
vt 0.972215 0.296628
vt 0.972220 0.006456
vt 0.853287 0.347211
vt 0.085473 0.683697
vt 0.013461 0.683697
vt 0.112395 0.833943
vt 0.184407 0.833943
vt 0.013461 0.986597
vt 0.085473 0.986597
vt 0.098934 1.000000
vt 0.000000 1.000000
vt 0.184407 0.531042
vt 0.112395 0.531042
vt 0.098934 0.517639
vt 0.197868 0.517639
vt 0.593604 0.517639
vt 0.652503 0.517639
vt 0.652503 0.807513
vt 0.593604 0.807513
vt 0.711401 0.807513
vt 0.652503 0.807513
vt 0.652503 0.517639
vt 0.711401 0.517639
vt 0.550236 0.791424
vt 0.550236 0.863203
vt 0.522453 0.856667
vt 0.522453 0.797960
vt 0.807680 0.623275
vt 0.807680 0.695054
vt 0.779898 0.688518
vt 0.779898 0.629811
vt 0.974034 0.517639
vt 0.974033 0.820851
vt 0.946253 0.814395
vt 0.946248 0.524224
vt 0.839201 0.623275
vt 0.839200 0.926487
vt 0.811415 0.919903
vt 0.811420 0.629731
vt 0.522453 0.791424
vt 0.522453 0.863203
vt 0.494670 0.856667
vt 0.494670 0.797960
vt 0.578018 0.791424
vt 0.578018 0.863203
vt 0.550236 0.856667
vt 0.550236 0.797960
vt 0.131416 0.195140
vt 0.617524 0.322499
vt 0.840798 0.322499
vt 0.354691 0.195140
vt 0.131548 0.516433
vt 0.354559 0.516433
vt 0.617656 0.001207
vt 0.840666 0.001207
vt 0.324563 0.517639
vt 0.367976 0.517639
vt 0.779898 0.720742
vt 0.804426 0.695054
vt 0.804426 0.721860
vt 0.804426 0.748665
vt 0.779898 0.722978
vt 0.804426 0.721860
vt 0.653731 0.807513
vt 0.677056 0.834291
vt 0.652503 0.834291
vt 0.624983 0.833201
vt 0.649511 0.807513
vt 0.649511 0.834319
vt 0.591823 0.489090
vt 0.105716 0.028549
vt 0.380392 0.028549
vt 0.866499 0.489090
vt 0.778628 0.517639
vt 0.193587 0.000000
vt 0.679694 0.517639
vt 0.292521 0.000000
vt 0.509889 0.605225
vt 0.509889 0.703838
vt 0.494670 0.703838
vt 0.494670 0.605225
vt 0.578385 0.703838
vt 0.578385 0.605225
vt 0.593604 0.605225
vt 0.593604 0.703838
vt 0.509889 0.777001
vt 0.578385 0.777001
vt 0.593604 0.791424
vt 0.494670 0.791424
vt 0.578385 0.532062
vt 0.509889 0.532062
vt 0.494670 0.517639
vt 0.593604 0.517639
vt 0.711401 0.689415
vt 0.779898 0.689415
vt 0.779898 0.762579
vt 0.711401 0.762579
vt 0.711401 0.590802
vt 0.779898 0.590802
vt 0.711401 0.517639
vt 0.779898 0.517639
vt 0.878832 0.517639
vt 0.894537 0.517639
vt 0.878832 0.762579
vt 0.894537 0.762579
vt 0.624983 0.807513
vt 0.624983 0.875787
vt 0.609293 0.875787
vt 0.609293 0.807513
vt 0.863126 0.795051
vt 0.878832 0.795051
vt 0.839201 0.868214
vt 0.854906 0.868214
vn 0.0000 0.0000 -1.0000
vn 0.3099 0.9508 0.0000
vn 0.0000 0.0000 1.0000
vn -0.3099 0.9508 0.0000
vn 1.0000 0.0000 0.0000
vn 0.1390 0.9903 0.0000
vn 0.0000 1.0000 0.0000
vn -0.8479 0.5301 0.0000
vn 0.8479 0.5301 0.0000
vn -0.1390 0.9903 0.0000
vn -0.8931 0.4499 0.0000
vn -1.0000 0.0000 0.0000
vn 0.0114 -0.9999 0.0000
vn -1.0000 0.0004 0.0000
vn 0.8931 -0.4499 0.0000
vn 0.8931 0.4499 0.0000
vn -0.8931 -0.4499 0.0000
vn -0.0114 -0.9999 0.0000
vn 0.2297 0.0001 -0.9733
vn 0.2297 0.0001 0.9733
vn 1.0000 0.0004 0.0000
vn 0.2317 -0.9728 0.0000
vn 0.2267 0.9740 0.0000
vn -0.2297 0.0001 0.9733
vn -0.2297 0.0001 -0.9733
vn -0.2317 -0.9728 0.0000
vn -0.2267 0.9740 0.0000
vn 0.6266 -0.4197 -0.6567
vn 0.6266 -0.4197 0.6567
vn -0.6266 -0.4197 0.6567
vn -0.6266 -0.4197 -0.6567
vn 0.7071 0.0003 -0.7071
vn -0.7071 0.0003 -0.7071
vn 0.7071 0.0003 0.7071
vn -0.7071 0.0003 0.7071
vn -0.5868 0.5579 0.5868
vn -0.5868 0.5579 -0.5868
vn 0.5868 0.5579 0.5868
vn 0.5868 0.5579 -0.5868
vn 0.5361 0.5816 0.6118
vn 0.5361 0.5816 -0.6118
vn -0.5361 0.5816 -0.6118
vn -0.5361 0.5816 0.6118
vn 0.2191 0.6723 0.7071
vn -0.2191 0.6723 -0.7071
vn -0.2191 0.6723 0.7071
vn 0.2191 0.6723 -0.7071
vn 0.0000 -1.0000 0.0000
vn 0.3099 -0.9508 0.0000
vn -0.3099 -0.9508 0.0000
usemtl Material
s off
f 93/1/1 79/2/1 87/3/1 100/4/1
f 78/5/2 76/6/2 90/7/2 88/8/2
f 94/9/3 4/10/3 104/11/3 101/12/3
f 69/13/4 73/14/4 84/15/4 82/16/4
f 6/17/5 5/18/5 105/19/5 106/20/5
f 72/21/1 2/22/1 97/23/1 85/24/1
f 89/25/6 88/8/6 90/7/6 92/26/6 16/27/6 13/28/6
f 92/29/3 91/30/3 99/31/3 15/32/3 16/33/3
f 95/34/1 6/35/1 106/36/1 102/37/1
f 2/22/1 72/21/1 74/38/1 80/39/1 79/2/1 93/1/1
f 3/40/3 75/41/3 77/42/3 71/43/3 70/44/3 1/45/3
f 75/41/3 3/40/3 99/31/3 91/30/3
f 98/46/3 81/47/3 83/48/3 11/49/3 10/50/3
f 78/5/7 80/51/7 74/52/7 73/14/7 69/13/7 71/53/7 77/54/7 76/6/7
f 10/55/8 11/56/8 12/57/8 9/58/8
f 14/59/9 13/60/9 16/61/9 15/62/9
f 86/63/1 85/24/1 97/23/1 9/64/1 12/65/1
f 9/64/1 97/23/1 17/66/1 21/67/1
f 14/59/5 15/62/5 23/68/5 24/69/5
f 100/4/1 87/3/1 89/70/1 13/71/1 14/72/1
f 83/73/10 82/16/10 84/15/10 86/74/10 12/75/10 11/76/10
f 19/77/11 20/78/11 60/79/11 59/80/11 55/81/11 57/82/11
f 33/83/1 50/84/1 61/85/1 37/86/1
f 100/4/1 14/72/1 24/87/1 20/88/1
f 97/89/5 98/90/5 18/91/5 17/92/5
f 15/32/3 99/31/3 19/93/3 23/94/3
f 98/46/3 10/50/3 22/95/3 18/96/3
f 99/97/12 100/98/12 20/78/12 19/77/12
f 10/55/12 9/58/12 21/99/12 22/100/12
f 61/101/13 62/102/13 63/103/13 64/104/13 38/105/13 37/106/13
f 52/107/3 34/108/3 38/109/3 64/110/3
f 55/81/14 59/80/14 67/111/14 66/112/14
f 24/69/15 23/68/15 35/113/15 36/114/15
f 35/115/3 56/116/3 65/117/3 39/118/3
f 17/92/16 18/91/16 54/119/16 53/120/16 49/121/16 51/122/16
f 58/123/1 36/124/1 40/125/1 68/126/1
f 22/100/17 21/99/17 33/127/17 34/128/17
f 65/129/18 66/130/18 67/131/18 68/132/18 40/133/18 39/134/18
f 32/135/19 28/136/19 44/137/19 48/138/19
f 21/67/1 17/66/1 51/139/1 50/84/1 33/83/1
f 20/88/1 24/87/1 36/124/1 58/123/1 60/140/1
f 18/96/3 22/95/3 34/108/3 52/107/3 54/141/3
f 27/142/20 31/143/20 47/144/20 43/145/20
f 23/94/3 19/93/3 57/146/3 56/116/3 35/115/3
f 25/147/14 26/148/14 34/128/14 33/127/14
f 27/149/21 28/150/21 36/114/21 35/113/21
f 30/151/14 29/152/14 37/153/14 38/154/14
f 32/155/21 31/156/21 39/157/21 40/158/21
f 29/152/14 25/147/14 33/127/14 37/153/14
f 28/150/21 32/155/21 40/158/21 36/114/21
f 26/148/14 30/151/14 38/154/14 34/128/14
f 31/156/21 27/149/21 35/113/21 39/157/21
f 42/159/14 41/160/14 45/161/14 46/162/14
f 44/163/21 43/164/21 47/165/21 48/166/21
f 31/167/22 32/168/22 48/169/22 47/170/22
f 28/171/23 27/172/23 43/173/23 44/174/23
f 30/175/24 26/176/24 42/177/24 46/178/24
f 25/179/25 29/180/25 45/181/25 41/182/25
f 29/183/26 30/184/26 46/185/26 45/186/26
f 26/187/27 25/188/27 41/189/27 42/190/27
f 49/191/28 50/84/28 51/139/28
f 52/107/29 53/192/29 54/141/29
f 55/193/30 56/116/30 57/146/30
f 58/123/31 59/194/31 60/140/31
f 49/191/32 62/195/32 61/85/32 50/84/32
f 67/196/33 59/194/33 58/123/33 68/126/33
f 52/107/34 64/110/34 63/197/34 53/192/34
f 55/193/35 66/198/35 65/117/35 56/116/35
f 49/121/21 53/120/21 63/199/21 62/200/21
f 69/201/36 70/202/36 71/203/36
f 72/204/37 73/205/37 74/206/37
f 75/207/38 76/208/38 77/209/38
f 78/210/39 79/211/39 80/212/39
f 81/47/40 82/213/40 83/48/40
f 84/214/41 85/24/41 86/63/41
f 87/3/42 88/215/42 89/70/42
f 90/216/43 91/30/43 92/29/43
f 90/216/44 76/217/44 75/41/44 91/30/44
f 84/214/45 73/218/45 72/21/45 85/24/45
f 69/219/46 82/213/46 81/47/46 70/44/46
f 87/3/47 79/2/47 78/220/47 88/215/47
f 1/45/3 70/44/3 81/47/3 98/46/3
f 4/221/48 94/222/48 2/223/48 93/224/48
f 95/225/48 96/226/48 3/227/48 1/228/48
f 5/229/49 6/230/49 98/231/49 97/232/49
f 8/233/50 7/234/50 100/235/50 99/236/50
f 6/230/49 95/225/49 1/228/49 98/231/49
f 94/222/49 5/229/49 97/232/49 2/223/49
f 96/226/50 8/233/50 99/236/50 3/227/50
f 7/234/50 4/221/50 93/224/50 100/235/50
f 101/237/49 102/238/49 106/239/49 105/240/49
f 101/237/48 104/241/48 103/242/48 102/238/48
f 103/242/50 104/241/50 108/243/50 107/244/50
f 4/10/3 7/245/3 108/246/3 104/11/3
f 5/247/3 94/9/3 101/12/3 105/248/3
f 7/249/12 8/250/12 107/251/12 108/252/12
f 96/253/1 95/34/1 102/37/1 103/254/1
f 8/255/1 96/253/1 103/254/1 107/256/1
