# Blender v2.90.0 OBJ File: ''
# www.blender.org
mtllib barrier_large01.mtl
o Cube
v 1.914884 2.024716 -17.278973
v 2.421902 -2.965587 -17.785990
v 1.914884 2.024716 17.278973
v 2.421902 -2.965587 17.785990
v -1.914884 2.024716 -17.278973
v -2.421902 -2.965587 -17.785990
v -1.914884 2.024716 17.278973
v -2.421902 -2.965587 17.785990
v -1.403734 -1.874170 0.000000
v 0.896717 1.641718 0.000000
v -0.896717 1.641718 0.000000
v 1.403734 -1.874170 0.000000
v -1.403734 -1.874170 8.396706
v 0.896717 0.933299 8.396706
v -0.896717 0.933299 8.396706
v 1.403734 -1.874170 8.396706
v -0.896717 0.933299 -8.396706
v 1.403734 -1.874170 -8.396706
v -1.403734 -1.874170 -8.396706
v 0.896717 0.933299 -8.396706
v -1.403734 -1.874170 12.595534
v 0.896717 0.976178 12.684514
v -0.896717 0.976178 12.684514
v 1.403734 -1.874170 12.595534
v -0.896717 0.976178 -12.684514
v 1.403734 -1.874170 -12.595534
v -1.403734 -1.874170 -12.595534
v 0.896717 0.976178 -12.684514
v -2.421902 -2.965587 14.860322
v 1.914884 2.067595 14.949303
v -1.914884 2.067595 14.949303
v 2.421902 -2.965587 14.860322
v -1.914884 2.067595 -14.949303
v 2.421902 -2.965587 -14.860322
v -2.421902 -2.965587 -14.860322
v 1.914884 2.067595 -14.949303
v 2.421902 2.024716 17.785990
v -2.421902 2.024716 17.785990
v 2.421902 2.024716 14.860322
v -2.421902 2.024716 -14.860322
v -2.421902 2.024716 -17.785990
v 2.421902 2.024716 -17.785990
v 1.403734 0.933299 -8.396706
v 1.403734 1.641718 0.000000
v -1.403734 0.933299 8.396706
v -1.403734 1.641718 0.000000
v 1.403734 0.933299 8.396706
v -1.403734 0.933299 12.595534
v -1.403734 0.933299 -8.396706
v 1.403734 0.933299 -12.595534
v 1.403734 0.933299 12.595534
v -2.421902 2.024716 14.860322
v -1.403734 0.933299 -12.595534
v 2.421902 2.024716 -14.860322
v -2.421902 -7.512138 14.860322
v -2.421902 -7.512138 17.785990
v 2.421902 -7.512138 -17.785990
v -2.421902 -7.512138 -17.785990
v 2.421902 -7.512138 17.785990
v 2.421902 -7.512138 -14.860322
v -1.403734 -6.965057 -8.396706
v -1.403734 -6.965057 0.000000
v 1.403734 -6.965057 8.396706
v 1.403734 -6.965057 0.000000
v -1.403734 -6.965057 8.396706
v 1.403734 -6.965057 12.595534
v 1.403734 -6.965057 -8.396706
v -1.403734 -6.965057 -12.595534
v -1.403734 -6.965057 12.595534
v 2.421902 -7.512138 14.860322
v 1.403734 -6.965057 -12.595534
v -2.421902 -7.512138 -14.860322
v -1.403734 -1.874170 -4.158625
v 1.403734 1.641718 -4.158625
v -1.403734 1.641718 -4.158625
v 1.403734 -1.874170 -4.158625
v 0.896717 1.641718 -4.158625
v -0.896717 1.641718 -4.158625
v -1.403734 -6.965057 -4.158625
v 1.403734 -6.965057 -4.158625
v -1.403734 1.641718 4.197879
v 1.403734 -1.874170 4.197879
v -1.403734 -1.874170 4.197879
v 1.403734 1.641718 4.197879
v -0.896717 1.641718 4.197879
v 0.896717 1.641718 4.197879
v 1.403734 -6.965057 4.197879
v -1.403734 -6.965057 4.197879
v -0.896717 11.593061 8.398418
v 0.590451 11.593061 8.398418
v -0.896717 11.593061 -8.396889
v 0.590451 11.593061 -8.396889
v -0.896717 11.635941 12.686227
v 0.896717 11.635941 12.686227
v -0.590451 11.661842 -12.738442
v 0.590451 11.661842 -12.738442
v -1.460420 12.594400 14.675117
v 1.460420 12.594400 14.675117
v -1.460420 12.594400 -14.673584
v 1.460420 12.594400 -14.673584
v 0.590451 12.251010 -4.458991
v -0.590451 12.250528 4.501590
v 0.590451 12.250528 4.501590
v -0.590451 12.251010 -4.458991
v -1.914884 12.727359 14.951017
v 1.914884 12.727359 14.951017
v -1.914884 12.727359 -14.949484
v 1.914884 12.727359 -14.949484
v 0.896717 11.593061 8.398418
v -0.590451 11.661842 12.739975
v -0.590451 11.593061 8.398418
v -0.590451 11.593061 -8.396889
v 0.896717 11.635941 -12.684694
v 0.896717 11.593061 -8.396889
v 0.590451 11.661842 12.739975
v -0.896717 11.635941 -12.684694
v -0.590451 14.423990 8.399188
v 0.590451 14.423990 8.399188
v -0.590451 14.423990 -8.396119
v 0.590451 14.423990 -8.396119
v -0.590451 14.492771 12.740745
v 0.590451 14.492771 12.740745
v -0.590451 14.492771 -12.737673
v 0.590451 14.492771 -12.737673
v -0.846909 13.031672 14.675887
v 0.846909 13.031672 14.675887
v -0.846908 13.031672 -14.672814
v 0.846908 13.031672 -14.672814
v 0.590451 14.117964 4.502098
v 0.590451 14.921164 5.452426
v -0.590451 14.118444 -4.458483
v -0.590451 14.923158 -5.408542
v 0.590451 14.923158 -5.408542
v 0.590451 14.118444 -4.458483
v -0.590451 14.921164 5.452426
v -0.590451 14.117964 4.502098
v -0.535704 12.301481 0.000765
v -0.896717 11.940469 0.000739
v 0.535704 12.301481 0.000765
v 0.896717 11.940469 0.000739
v 0.896717 11.940469 4.199534
v 0.535704 12.301481 4.199592
v 0.641442 12.259012 4.451309
v 0.896717 12.241421 4.555573
v -0.896717 11.940469 -4.156971
v -0.535704 12.301481 -4.156912
v -0.641442 12.259413 -4.408696
v -0.896717 12.241987 -4.512989
v 0.535704 12.301481 -4.156912
v 0.896717 11.940469 -4.156971
v 0.896717 12.241987 -4.512989
v 0.641442 12.259413 -4.408696
v -0.535704 12.301481 4.199592
v -0.896717 11.940469 4.199534
v -0.896717 12.241421 4.555573
v -0.641442 12.259012 4.451309
v 1.914884 3.900625 -14.949393
v 0.896717 2.766328 -8.396797
v 0.896717 2.809207 -12.684605
v -1.914884 3.900625 -14.949393
v -0.896717 2.809207 -12.684605
v -0.896717 2.766327 -8.396797
v 0.896717 2.766327 8.397562
v 0.896717 2.809207 12.685370
v -0.896717 2.766327 8.397562
v -1.914884 3.900625 14.950160
v -0.896717 2.809207 12.685370
v 1.914884 3.900625 14.950160
v 1.248032 12.017625 17.280621
v 1.914884 12.696752 16.613873
v -1.248032 12.017625 17.280621
v -1.914884 12.696752 16.613873
v -1.248032 12.017625 -17.279146
v -1.914884 12.696752 -16.612339
v 1.248032 12.017625 -17.279146
v 1.914884 12.696752 -16.612339
v 1.248032 3.857745 -17.279064
v 1.914884 3.870018 -16.612247
v 1.914884 3.190892 -17.279032
v -1.914884 3.870018 -16.612247
v -1.248032 3.857744 -17.279064
v -1.914884 3.190892 -17.279032
v 1.914884 3.870018 16.613014
v 1.248032 3.857745 17.279829
v 1.914884 3.190892 17.279518
v -1.248032 3.857744 17.279829
v -1.914884 3.870018 16.613014
v -1.914884 3.190892 17.279518
vt -1.335945 -2.358945
vt -1.198109 -2.712081
vt -0.074287 -2.712215
vt -0.212123 -2.359079
vt -3.075284 3.091335
vt -3.075284 2.313226
vt -2.458546 2.313226
vt -2.458546 3.091334
vt 1.718816 2.015063
vt 2.354182 2.015063
vt 2.354182 2.471244
vt 1.718816 2.471244
vt 1.718816 -3.075284
vt 1.718816 -2.619102
vt 1.139948 -2.619102
vt 1.139948 -3.075284
vt 0.504581 2.015063
vt 1.139948 2.015062
vt 1.139948 2.471244
vt 0.504581 2.471244
vt -1.841809 3.022143
vt -1.841809 3.800251
vt -2.458546 3.800251
vt -2.458546 3.022143
vt 0.644665 -0.950450
vt 1.092308 -0.950450
vt 1.092308 -0.302020
vt 0.644665 -0.302020
vt -0.003508 -0.302020
vt -0.003508 -0.950450
vt 1.858899 -0.956570
vt 2.306544 -0.956570
vt 2.306544 -0.302019
vt 1.858899 -0.302019
vt 1.858899 -2.265967
vt 2.216347 -2.265967
vt 2.216347 -1.611268
vt 1.858899 -1.611268
vt 0.644665 0.352531
vt 1.092308 0.352531
vt 1.002113 1.007229
vt 0.644665 1.007229
vt 1.210727 -1.611268
vt 1.210727 -2.265967
vt -1.202006 2.209258
vt -1.198109 1.949979
vt -0.074287 1.949994
vt -0.078184 2.209272
vt -1.484589 -0.380991
vt -1.484589 -1.035541
vt -0.173350 -1.035799
vt -0.173350 -0.381106
vt 1.210727 -0.302019
vt 1.210727 -0.956570
vt 0.644665 -2.265967
vt 1.002113 -2.265967
vt 1.002113 -1.611269
vt 0.644665 -1.611269
vt 1.858899 0.346410
vt 2.306544 0.346410
vt 2.216347 1.007229
vt 1.858899 1.007229
vt 2.354182 -2.619102
vt 1.002113 1.661927
vt 0.644665 1.661927
vt 1.210727 1.007229
vt 1.210727 0.346410
vt -2.836442 1.596888
vt -2.841902 0.928315
vt -1.718081 0.928448
vt -1.712621 1.597021
vt 0.504581 -2.619102
vt 1.139947 -2.619102
vt 0.504581 -3.075284
vt -0.074287 -2.619102
vt -0.074287 -3.075284
vt -1.841809 2.313226
vt -1.354183 2.313226
vt -1.354183 2.495061
vt -1.439090 2.599039
vt -1.756902 2.599040
vt -1.841809 2.495061
vt 2.216347 1.661928
vt 1.858899 1.661927
vt 2.354182 -3.075284
vt -0.074287 2.471244
vt -0.074287 2.015063
vt -2.698608 -2.712037
vt -2.702505 -2.971316
vt -1.578683 -2.971331
vt -1.574786 -2.712051
vt 3.756292 -1.794297
vt 3.756292 -1.180284
vt 3.749799 -1.172442
vt 3.717297 -1.188704
vt 3.717297 -1.794297
vt 1.139948 2.471245
vt 1.139948 2.015063
vt 1.139947 -3.075284
vt 2.418738 2.392188
vt 2.906364 2.392188
vt 2.970920 2.471244
vt 2.354183 2.471244
vt 2.418738 2.028936
vt 2.354183 2.015062
vt 2.906364 -2.632976
vt 2.906364 -2.996228
vt 2.970920 -3.075284
vt 2.970920 -2.619102
vt 2.418738 -2.996228
vt 2.354182 -3.075284
vt 2.548377 -0.950450
vt 2.548377 -0.302020
vt 2.483821 -0.302020
vt 2.483821 -0.950450
vt 2.776726 0.352531
vt 2.776726 -0.302020
vt 2.841282 -0.302020
vt 2.841282 0.352531
vt 2.548377 0.352531
vt 2.548377 1.007229
vt 2.483821 1.007229
vt 2.483821 0.352531
vt 2.776726 1.675801
vt 2.776726 1.007229
vt 2.841282 1.007229
vt 2.841282 1.661927
vt 2.776726 -0.950450
vt 2.776726 -1.611269
vt 2.841281 -1.611269
vt 2.841281 -0.950450
vt 2.548377 -2.279841
vt 2.548377 -1.611269
vt 2.483821 -1.611269
vt 2.483821 -2.265967
vt 2.548377 1.675801
vt 2.483821 1.661927
vt 2.906364 2.028936
vt 2.970920 2.015062
vt 2.776726 -2.279841
vt 2.841281 -2.265967
vt 2.418738 -2.632976
vt 2.354182 -2.619102
vt 3.587657 -2.619102
vt 2.970920 -2.619102
vt 2.970920 -3.075284
vt 3.587657 -3.075284
vt 3.458020 0.346410
vt 3.100559 0.346410
vt 3.100559 -0.302020
vt 3.458020 -0.302020
vt 3.458019 -0.956570
vt 3.100559 -0.956570
vt 3.100559 -1.611269
vt 3.458019 -1.611269
vt 3.458020 1.661927
vt 3.100559 1.661927
vt 3.100559 1.007229
vt 3.458020 1.007229
vt 3.100559 -2.265967
vt 3.458019 -2.265967
vt 3.587657 2.015062
vt 2.970920 2.015062
vt 3.587657 2.471244
vt 2.970920 2.471244
vt -0.003508 1.007229
vt -0.003508 0.352531
vt 1.210727 1.661928
vt -0.003508 -1.611269
vt -0.003508 -2.265967
vt -2.458546 3.800251
vt -3.075284 3.800251
vt -0.003508 1.661927
vt -2.458546 2.313226
vt -1.841809 2.313226
vt -2.841902 -1.690330
vt -2.836443 -2.358902
vt -1.712621 -2.358917
vt -1.718081 -1.690344
vt -1.335945 1.596845
vt -0.212123 1.596859
vt -2.702504 2.209302
vt -2.698607 1.950023
vt -1.574785 1.950157
vt -1.578682 2.209436
vt -2.985088 -0.381067
vt -2.985088 -1.029497
vt -1.673849 -1.029239
vt -1.673849 -0.380952
vt -0.812323 3.900119
vt -0.866558 3.281148
vt -0.506749 3.307142
vt -0.465603 3.776739
vt -0.574973 3.917266
vt 0.098873 4.075284
vt -0.033141 3.782522
vt 0.326668 3.756528
vt 0.155121 4.071119
vt 0.326668 3.439156
vt 0.367845 2.763998
vt 0.727664 2.789777
vt 0.686488 3.464934
vt 0.900868 4.068738
vt 0.768841 3.775984
vt 1.128660 3.750206
vt 0.957128 4.064809
vt 2.386836 2.619424
vt 2.537194 2.619424
vt 2.537194 3.078895
vt 2.386836 3.078895
vt -1.439090 3.871361
vt -1.756902 3.871361
vt -0.825411 2.605988
vt -0.693398 2.313226
vt -0.637150 2.317391
vt -0.465602 2.631982
vt -1.484589 0.267439
vt -0.173350 0.267181
vt -2.985088 0.273484
vt -1.673849 0.273741
vt 3.756292 0.216886
vt 3.756292 0.824495
vt 3.717297 0.824495
vt 3.717297 0.225303
vt 3.749799 0.209046
vt -1.341404 0.928272
vt -0.217582 0.928287
vt 3.763262 -1.133183
vt 3.899679 -1.133183
vt 3.899679 -0.484901
vt 3.763262 -0.484901
vt 3.906650 0.216886
vt 3.763262 0.169797
vt 3.899679 0.169797
vt 3.913143 0.209046
vt -1.341404 -1.690373
vt -0.217582 -1.690506
vt 3.587658 1.846204
vt 4.075284 1.846204
vt 4.075284 2.105483
vt 3.587658 2.105483
vt 3.587657 -3.075284
vt 4.075284 -3.075284
vt 4.075284 -2.816005
vt 3.587657 -2.816005
vt 3.906650 -1.180284
vt 3.913143 -1.172442
vt -1.202006 -2.971360
vt -0.078184 -2.971494
vt 3.645523 1.803184
vt 4.017419 1.803184
vt 4.017419 -2.772985
vt 3.645523 -2.772985
vt -3.075284 0.928182
vt -1.635531 0.329256
vt 3.906650 1.501449
vt 3.906650 0.824495
vt 3.945645 0.824495
vt 3.945645 1.493068
vt -1.574785 0.928258
vt -0.134960 0.322693
vt 3.756291 -2.471250
vt 3.717297 -2.462870
vt 3.756292 1.501449
vt 3.717297 1.493068
vt 3.906650 -1.794297
vt 3.906650 -2.471250
vt 3.945645 -2.462870
vt 3.945645 -1.794297
vt 3.945645 0.225303
vt -3.075284 -1.690315
vt -1.635459 -1.084751
vt -1.574785 -1.690239
vt -0.135033 -1.091314
vt 3.945645 -1.188704
vt -0.432949 3.291914
vt -0.282591 3.291914
vt -0.282590 3.757749
vt -0.432949 3.757749
vt -0.432949 2.614961
vt -0.282591 2.614961
vt 2.537194 3.755849
vt 2.386836 3.755849
vt -0.465602 2.313226
vt -0.249937 2.313226
vt 2.569848 4.057584
vt 2.354182 4.057584
vt -0.099579 2.604404
vt -0.249937 2.604404
vt -0.249937 2.313226
vt -0.099579 2.313226
vt 0.381121 4.051733
vt 0.727664 3.928162
vt 0.618477 4.068738
vt -0.074287 3.107362
vt -0.020052 2.488391
vt 0.217297 2.471244
vt 0.326668 2.611772
vt 0.285522 3.081368
vt 0.727664 3.100827
vt 1.087484 3.075048
vt 0.499872 2.471244
vt 0.556132 2.475174
vt -0.249937 3.351012
vt -0.249937 2.895582
vt -0.194262 2.991244
vt -0.194262 3.255350
vt 0.782118 2.488250
vt 1.019473 2.471244
vt 1.128660 2.611820
vt -0.138586 2.895582
vt -0.138586 3.351012
vt -0.194262 3.255350
vt -0.194262 2.991243
vt -0.282590 3.905886
vt -0.432949 3.905886
vt 2.386836 2.471245
vt 2.537194 2.471245
vt -0.099579 2.895582
vt -0.249937 2.895582
vt -0.249937 2.604404
vt -0.099579 2.604404
vt 3.717297 0.169788
vt 3.945645 -1.133192
vt 3.717297 -1.133192
vt 3.945645 0.169788
vt -1.627486 -1.029230
vt -1.627486 -0.380948
vt -0.126987 -1.035808
vt -0.126987 -0.381110
vt -0.126987 0.267172
vt -1.627486 0.273750
vt -3.069824 -2.358888
vt -2.931989 -2.712023
vt -1.569326 1.596830
vt -1.431491 1.949965
vt -0.866558 3.977208
vt -1.354183 3.977208
vt -1.354183 3.795373
vt -1.269276 3.691395
vt -0.951465 3.691395
vt -0.866558 3.795373
vt -1.436951 2.313217
vt -1.288473 2.313226
vt -2.937449 -3.075275
vt -2.788971 -3.075284
vt -1.431491 -2.711947
vt -1.436950 -3.075199
vt -1.288473 -3.075284
vt -2.937449 2.313141
vt -2.931989 1.949890
vt -2.788971 2.313226
vt -1.569326 -2.358812
vt -3.069824 1.596754
vt -1.841809 2.600987
vt -1.354183 2.600987
vt -1.354183 3.689526
vt -0.866558 3.689526
vt -1.841809 3.977288
vt -1.354183 2.313226
vt -0.866558 2.313226
vt -0.951465 2.419073
vt -1.269276 2.419073
vt -1.354183 3.977288
vn -0.9121 0.0000 -0.4100
vn 0.0000 0.0000 1.0000
vn -1.0000 0.0000 0.0000
vn 1.0000 0.0000 0.0000
vn 0.0000 0.0000 -1.0000
vn 0.9121 0.0000 0.4100
vn 0.0000 -0.0001 -1.0000
vn 0.9121 0.0000 -0.4100
vn 0.0000 0.9863 -0.1648
vn -0.9121 0.0000 0.4100
vn 0.0000 1.0000 0.0000
vn 0.0389 0.9992 0.0082
vn -0.0389 0.9992 -0.0082
vn 0.0000 0.9861 0.1664
vn -0.0418 0.9991 -0.0050
vn 0.0000 0.9863 -0.1649
vn 0.0418 0.9991 0.0050
vn 0.0418 0.9991 -0.0050
vn 0.0000 0.9009 -0.4341
vn -0.0418 0.9991 0.0050
vn -0.0000 0.9009 0.4341
vn -0.0389 0.9992 0.0082
vn 0.0389 0.9992 -0.0082
vn 0.0000 -1.0000 0.0000
vn 0.0000 -0.9720 0.2348
vn 0.0000 -0.9720 -0.2348
vn -0.9510 0.1784 0.2524
vn 0.9510 0.1786 -0.2524
vn 0.9510 0.1784 0.2524
vn 0.0000 0.9998 0.0184
vn 0.0000 0.9998 -0.0184
vn -0.0411 0.9991 -0.0129
vn 0.0411 0.9991 0.0129
vn 0.0411 0.9991 -0.0129
vn -0.0411 0.9991 0.0129
vn 0.0000 0.9999 0.0158
vn 0.0000 0.9999 -0.0158
vn 0.0000 0.7981 -0.6026
vn 0.0000 0.7981 0.6026
vn 0.0000 -0.0003 1.0000
vn -0.9510 0.1786 -0.2524
vn 0.0000 -0.0018 1.0000
vn 0.0000 0.0018 -1.0000
vn 0.0000 0.7631 0.6463
vn 0.0000 0.7638 -0.6455
vn 0.0000 0.0003 -1.0000
vn 0.5269 0.7452 -0.4086
vn -0.5267 0.7448 0.4096
vn 0.5267 0.7448 0.4096
vn -0.5269 0.7452 -0.4086
vn 0.7071 0.7071 0.0000
vn -0.7071 0.7071 0.0000
vn 0.0000 -0.0005 1.0000
vn 0.9120 0.0002 -0.4101
vn -0.9120 0.0002 -0.4101
vn 0.5738 0.5738 -0.5844
vn -0.5738 0.5738 -0.5844
vn 0.5739 0.5736 0.5845
vn -0.5739 0.5736 0.5845
vn 0.7071 -0.0000 -0.7071
vn 0.0000 0.7006 0.7136
vn 0.0000 0.7006 -0.7135
vn 0.7071 -0.0001 0.7071
vn -0.7071 -0.0000 -0.7071
vn -0.7071 -0.0001 0.7071
vn 0.0000 -0.0001 1.0000
usemtl Material
s off
f 167/1/1 166/2/1 105/3/1 93/4/1
f 4/5/2 37/6/2 38/7/2 8/8/2
f 35/9/3 40/10/3 41/11/3 6/12/3
f 8/13/3 29/14/3 55/15/3 56/16/3
f 32/17/4 39/18/4 37/19/4 4/20/4
f 6/21/5 41/22/5 42/23/5 2/24/5
f 76/25/4 74/26/4 44/27/4 12/28/4
f 76/25/4 12/28/4 64/29/4 80/30/4
f 83/31/3 81/32/3 46/33/3 9/34/3
f 21/35/3 48/36/3 45/37/3 13/38/3
f 82/39/4 84/40/4 47/41/4 16/42/4
f 21/35/3 13/38/3 65/43/3 69/44/3
f 180/45/3 160/46/3 107/47/3 174/48/3
f 11/49/3 85/50/3 154/51/3 138/52/3
f 83/31/3 9/34/3 62/53/3 88/54/3
f 26/55/4 50/56/4 43/57/4 18/58/4
f 73/59/3 75/60/3 49/61/3 19/62/3
f 29/14/1 52/63/1 48/36/1 21/35/1
f 16/42/4 47/41/4 51/64/4 24/65/4
f 73/59/3 19/62/3 61/66/3 79/67/3
f 164/68/4 163/69/4 109/70/4 94/71/4
f 34/72/6 54/73/6 50/56/6 26/55/6
f 2/74/4 34/72/4 60/75/4 57/76/4
f 1/77/7 5/78/7 182/79/7 181/80/7 177/81/7 179/82/7
f 19/62/3 49/61/3 53/83/3 27/84/3
f 8/13/3 38/85/3 52/63/3 29/14/3
f 24/65/8 51/64/8 39/18/8 32/17/8
f 32/17/4 4/20/4 59/86/4 70/87/4
f 157/88/4 178/89/4 176/90/4 108/91/4
f 92/92/9 101/93/9 152/94/9 151/95/9 114/96/9
f 35/9/3 6/12/3 58/97/3 72/98/3
f 2/74/4 42/99/4 54/73/4 34/72/4
f 27/84/10 53/83/10 40/10/10 35/9/10
f 3/100/11 7/101/11 38/102/11 37/103/11
f 30/104/12 3/100/12 37/103/12 39/105/12
f 33/106/13 5/107/13 41/108/13 40/109/13
f 5/107/11 1/110/11 42/111/11 41/108/11
f 77/112/11 10/113/11 44/114/11 74/115/11
f 85/116/11 11/117/11 46/118/11 81/119/11
f 86/120/14 14/121/14 47/122/14 84/123/14
f 23/124/15 15/125/15 45/126/15 48/127/15
f 78/128/16 17/129/16 49/130/16 75/131/16
f 28/132/17 20/133/17 43/134/17 50/135/17
f 14/121/18 22/136/18 51/137/18 47/122/18
f 31/138/19 23/124/19 48/127/19 52/139/19
f 17/129/20 25/140/20 53/141/20 49/130/20
f 36/142/21 28/132/21 50/135/21 54/143/21
f 22/136/19 30/104/19 39/105/19 51/137/19
f 7/101/22 31/138/22 52/139/22 38/102/22
f 25/140/21 33/106/21 40/109/21 53/141/21
f 1/110/23 36/142/23 54/143/23 42/111/23
f 55/144/24 70/145/24 59/146/24 56/147/24
f 79/148/24 80/149/24 64/150/24 62/151/24
f 88/152/24 87/153/24 63/154/24 65/155/24
f 68/156/24 71/157/24 67/158/24 61/159/24
f 65/155/24 63/154/24 66/160/24 69/161/24
f 72/162/25 60/163/25 71/157/25 68/156/25
f 69/161/26 66/160/26 70/145/26 55/144/26
f 58/164/24 57/165/24 60/163/24 72/162/24
f 29/14/1 21/35/1 69/44/1 55/15/1
f 82/39/4 16/42/4 63/166/4 87/167/4
f 19/62/3 27/84/3 68/168/3 61/66/3
f 26/55/4 18/58/4 67/169/4 71/170/4
f 4/5/2 8/8/2 56/171/2 59/172/2
f 16/42/4 24/65/4 66/173/4 63/166/4
f 6/21/5 2/24/5 57/174/5 58/175/5
f 27/84/10 35/9/10 72/98/10 68/168/10
f 34/72/6 26/55/6 71/170/6 60/75/6
f 24/65/8 32/17/8 70/87/8 66/173/8
f 61/159/24 67/158/24 80/149/24 79/148/24
f 11/117/11 78/128/11 75/131/11 46/118/11
f 20/133/16 77/112/16 74/115/16 43/134/16
f 9/34/3 73/59/3 79/67/3 62/53/3
f 9/34/3 46/33/3 75/60/3 73/59/3
f 158/176/4 159/177/4 113/178/4 114/179/4
f 18/58/4 76/25/4 80/30/4 67/169/4
f 18/58/4 43/57/4 74/26/4 76/25/4
f 12/28/4 82/39/4 87/167/4 64/29/4
f 62/151/24 64/150/24 87/153/24 88/152/24
f 10/113/11 86/120/11 84/123/11 44/114/11
f 15/125/14 85/116/14 81/119/14 45/126/14
f 13/38/3 83/31/3 88/54/3 65/43/3
f 160/46/10 161/180/10 116/181/10 107/47/10
f 12/28/4 44/27/4 84/40/4 82/39/4
f 13/38/3 45/37/3 81/32/3 83/31/3
f 183/182/4 168/183/4 106/184/4 170/185/4
f 10/186/4 77/187/4 150/188/4 140/189/4
f 101/190/4 92/191/4 120/192/4 133/193/4 134/194/4
f 99/195/27 95/196/27 123/197/27 127/198/27
f 111/199/3 110/200/3 121/201/3 117/202/3
f 98/203/28 115/204/28 122/205/28 126/206/28
f 130/207/14 135/208/14 117/209/14 118/210/14
f 177/81/5 181/80/5 173/211/5 175/212/5
f 96/213/29 100/214/29 128/215/29 124/216/29
f 78/217/3 11/49/3 138/52/3 145/218/3
f 86/219/4 10/186/4 140/189/4 141/220/4
f 103/221/14 90/222/14 109/223/14 144/224/14 143/225/14
f 161/180/3 162/226/3 91/227/3 116/181/3
f 149/228/11 146/229/11 137/230/11 139/231/11
f 159/177/6 157/88/6 108/91/6 113/178/6
f 102/232/14 103/221/14 143/225/14 142/233/14 153/234/14 156/235/14
f 168/183/8 164/68/8 94/71/8 106/184/8
f 165/236/3 167/1/3 93/4/3 89/237/3
f 106/238/30 105/239/30 172/240/30 170/241/30
f 176/242/31 174/243/31 107/244/31 108/245/31
f 101/93/9 104/246/9 147/247/9 146/229/9 149/228/9 152/94/9
f 166/2/3 187/248/3 172/249/3 105/3/3
f 98/250/19 97/251/19 105/239/19 106/238/19
f 99/252/21 100/253/21 108/245/21 107/244/21
f 14/254/4 86/219/4 141/220/4 144/255/4 109/70/4 163/69/4
f 110/256/32 111/257/32 89/258/32 93/259/32
f 17/260/3 78/217/3 145/218/3 148/261/3 91/227/3 162/226/3
f 96/262/33 92/92/33 114/96/33 113/263/33
f 90/222/34 115/264/34 94/265/34 109/223/34
f 97/251/19 110/256/19 93/259/19 105/239/19
f 112/266/35 95/267/35 116/268/35 91/269/35
f 100/253/21 96/262/21 113/263/21 108/245/21
f 115/264/19 98/250/19 106/238/19 94/265/19
f 95/267/21 99/252/21 107/244/21 116/268/21
f 111/257/14 102/232/14 156/235/14 155/270/14 89/258/14
f 77/187/4 20/271/4 158/176/4 114/179/4 151/272/4 150/188/4
f 85/50/3 15/273/3 165/236/3 89/237/3 155/274/3 154/51/3
f 104/246/9 112/266/9 91/269/9 148/275/9 147/247/9
f 120/276/9 119/277/9 132/278/9 133/279/9
f 124/280/36 123/281/36 119/277/36 120/276/36
f 118/210/37 117/209/37 121/282/37 122/283/37
f 128/284/38 127/285/38 123/281/38 124/280/38
f 122/283/39 121/282/39 125/286/39 126/287/39
f 104/288/40 101/289/40 134/290/40 131/291/40
f 102/292/3 111/199/3 117/202/3 135/293/3 136/294/3
f 92/191/4 96/213/4 124/216/4 120/192/4
f 112/295/3 104/296/3 131/297/3 132/298/3 119/299/3
f 115/204/4 90/300/4 118/301/4 122/205/4
f 110/200/41 97/302/41 125/303/41 121/201/41
f 97/304/42 98/305/42 126/306/42 125/307/42
f 90/300/4 103/308/4 129/309/4 130/310/4 118/301/4
f 95/196/3 112/295/3 119/299/3 123/197/3
f 100/311/43 99/312/43 127/313/43 128/314/43
f 131/315/44 134/316/44 133/279/44 132/278/44
f 135/208/45 130/207/45 129/317/45 136/318/45
f 103/319/46 102/320/46 136/321/46 129/322/46
f 141/323/47 142/233/47 143/225/47 144/224/47
f 145/324/48 146/229/48 147/247/48 148/275/48
f 149/228/49 150/325/49 151/95/49 152/94/49
f 153/234/50 154/326/50 155/270/50 156/235/50
f 149/327/51 139/328/51 140/189/51 150/188/51
f 153/329/52 137/330/52 138/52/52 154/51/52
f 137/330/52 146/331/52 145/218/52 138/52/52
f 139/328/51 142/332/51 141/220/51 140/189/51
f 139/231/11 137/230/11 153/234/11 142/233/11
f 28/333/6 36/334/6 157/88/6 159/177/6
f 25/335/3 17/260/3 162/226/3 161/180/3
f 33/336/10 25/335/10 161/180/10 160/46/10
f 20/271/4 28/333/4 159/177/4 158/176/4
f 7/337/53 3/338/53 185/339/53 184/340/53 186/341/53 188/342/53
f 5/343/3 33/336/3 160/46/3 180/45/3 182/344/3
f 36/334/4 1/345/4 179/346/4 178/89/4 157/88/4
f 31/347/3 7/348/3 188/349/3 187/248/3 166/2/3
f 3/350/4 30/351/4 168/183/4 183/182/4 185/352/4
f 15/273/3 23/353/3 167/1/3 165/236/3
f 30/351/54 22/354/54 164/68/54 168/183/54
f 22/354/4 14/254/4 163/69/4 164/68/4
f 23/353/55 31/347/55 166/2/55 167/1/55
f 177/81/56 178/355/56 179/82/56
f 180/356/57 181/80/57 182/79/57
f 183/357/58 184/340/58 185/339/58
f 186/341/59 187/358/59 188/342/59
f 177/81/60 175/212/60 176/359/60 178/355/60
f 170/360/61 172/361/61 171/362/61 169/363/61
f 174/364/62 176/359/62 175/212/62 173/211/62
f 183/357/63 170/360/63 169/363/63 184/340/63
f 173/211/64 181/80/64 180/356/64 174/364/64
f 172/361/65 187/358/65 186/341/65 171/362/65
f 186/341/66 184/340/66 169/363/66 171/362/66
