# Blender v2.90.0 OBJ File: ''
# www.blender.org
mtllib barrier_small02.mtl
o Cube
v 5.558997 1.000000 -0.702988
v 9.074014 -5.157572 -0.702988
v 5.558997 1.000000 0.702988
v 9.074014 -5.157572 0.702988
v -5.558997 1.000000 -0.702988
v -9.074014 -5.157572 -0.702988
v -5.558997 1.000000 0.702988
v -9.074014 -5.157572 0.702988
v 4.309012 2.120287 0.362368
v -4.309012 2.120287 0.362368
v 4.309012 2.120287 -0.362368
v -4.309012 2.120287 -0.362368
v 0.000000 -5.157572 -0.702988
v 0.000000 -5.157572 0.702988
v 0.000000 1.590730 0.362368
v 0.000000 1.590730 -0.362368
v -2.779498 -5.157572 -0.702988
v -2.154506 1.590730 0.243431
v -2.779498 -5.157572 0.702988
v -2.154506 1.590730 -0.243431
v 2.779498 -5.157572 0.702988
v 2.154506 1.590730 -0.243431
v 2.779498 -5.157572 -0.702988
v 2.154506 1.590730 0.243431
v -4.169248 -5.157572 -0.702988
v -4.169248 1.000000 0.702988
v -3.125023 2.067818 0.243431
v -4.169248 -5.157572 0.702988
v -4.169248 1.000000 -0.702988
v -3.125023 2.067818 -0.243431
v 4.169248 -5.157572 0.702988
v 4.169248 1.000000 -0.702988
v 3.125023 2.067818 -0.243431
v 4.169248 -5.157572 -0.702988
v 4.169248 1.000000 0.702988
v 3.125023 2.067818 0.243431
v -0.762656 -5.157572 0.702988
v -0.569096 1.590730 -0.243431
v -0.762656 -5.157572 -0.702988
v -0.569096 1.590730 0.243431
v 0.762656 -5.157572 -0.702988
v 0.569096 1.590730 0.243431
v 0.762656 -5.157572 0.702988
v 0.569096 1.590730 -0.243431
v -0.450160 1.590730 0.362368
v -2.154506 1.590730 0.362368
v -3.231759 2.120287 -0.362368
v -2.154506 1.590730 -0.362368
v 0.450160 1.590730 -0.362368
v 2.154506 1.590730 -0.362368
v 3.231759 2.120287 0.362368
v 2.154506 1.590730 0.362368
v -3.231759 2.120287 0.362368
v 3.231759 2.120287 -0.362368
v -0.450160 1.590730 -0.362368
v 0.450160 1.590730 0.362368
v -2.154506 2.554212 -0.243431
v -2.154506 2.554212 0.243431
v 2.154506 2.554212 -0.243431
v 2.154506 2.554212 0.243431
v 3.077612 -5.767958 0.331070
v -3.125023 2.150516 -0.243431
v -3.077612 -5.767958 -0.331070
v 3.125023 2.150516 0.243431
v -3.125023 2.150516 0.243431
v 3.125023 2.150516 -0.243431
v -4.103482 -5.767958 0.331070
v -4.103482 -5.767958 -0.331070
v -0.569096 2.450272 0.243431
v -0.673036 2.554212 0.243431
v 0.569096 2.450272 -0.243431
v 0.673036 2.554212 -0.243431
v -0.673036 2.554212 -0.243431
v -0.569096 2.450272 -0.243431
v 0.673036 2.554212 0.243431
v 0.569096 2.450272 0.243431
v 4.103482 -5.767958 0.331070
v 4.103482 -5.767958 -0.331070
v 0.562969 -5.767958 -0.331070
v 0.000000 -5.767958 -0.331070
v -0.562969 -5.767958 0.331070
v 0.000000 -5.767958 0.331070
v -0.562969 -5.767958 -0.331070
v -2.051741 -5.767958 -0.331070
v -3.077612 -5.767958 0.331070
v -2.051741 -5.767958 0.331070
v 0.562969 -5.767958 0.331070
v 2.051741 -5.767958 0.331070
v 3.077612 -5.767958 -0.331070
v 2.051741 -5.767958 -0.331070
v 6.177063 -1.248135 -0.702988
v -6.177063 -1.248135 0.702988
v 6.177063 -1.248135 0.702988
v -6.177063 -1.248135 -0.702988
v 0.000000 -1.512913 -0.702988
v 0.000000 -1.512913 0.702988
v -4.169248 -1.248135 -0.702988
v -4.169248 -1.248135 0.702988
v 4.169248 -1.248135 0.702988
v 4.169248 -1.248135 -0.702988
v 9.074014 -2.433656 -0.702988
v 9.074014 -2.433656 0.702988
v -9.074014 -2.433656 -0.702988
v 0.000000 -2.558807 -0.702988
v 0.000000 -2.558807 0.702988
v -2.779498 -2.558807 -0.702988
v -2.779498 -2.558807 0.702988
v 2.779498 -2.558807 0.702988
v 2.779498 -2.558807 -0.702988
v -4.169248 -2.433656 -0.702988
v -4.169248 -2.433656 0.702988
v 4.169248 -2.433656 0.702988
v 4.169248 -2.433656 -0.702988
v -0.762656 -2.558807 0.702988
v -0.762656 -2.558807 -0.702988
v 0.762656 -2.558807 -0.702988
v 0.762656 -2.558807 0.702988
v -9.074014 -2.433656 0.702988
v 0.000000 0.470443 0.481753
v 0.000000 0.682110 0.638631
v 0.000000 0.470443 -0.481753
v 0.000000 0.682110 -0.638631
v -3.000274 0.683181 0.675387
v -2.779498 0.470443 0.481753
v -2.779498 0.470443 -0.481753
v -3.000274 0.683181 -0.675387
v 3.000274 0.683181 -0.675387
v 2.779498 0.470443 -0.481753
v 2.779498 0.470443 0.481753
v 3.000274 0.683181 0.675387
v -0.762656 0.470443 -0.481753
v -0.703613 0.682110 -0.638631
v -0.762656 0.470443 0.481753
v -0.703613 0.682110 0.638631
v 0.762656 0.470443 0.481753
v 0.703613 0.682110 0.638631
v 0.762656 0.470443 -0.481753
v 0.703613 0.682110 -0.638631
v -2.779498 -1.512913 -0.481753
v -3.000734 -1.734149 -0.702988
v -3.000734 -1.734149 0.702988
v -2.779498 -1.512913 0.481753
v 2.779498 -1.512913 0.481753
v 3.000734 -1.734149 0.702988
v 3.000734 -1.734149 -0.702988
v 2.779498 -1.512913 -0.481753
v -0.582567 -1.512913 0.407158
v -0.762656 -1.734149 0.702988
v -0.541421 -1.512913 0.702988
v -0.541421 -1.512913 0.702988
v -0.762656 -1.734149 -0.702988
v -0.582567 -1.512913 -0.407158
v -0.541421 -1.512913 -0.702988
v -0.541421 -1.512913 -0.702988
v 0.582567 -1.512913 -0.407158
v 0.762656 -1.734149 -0.702988
v 0.541421 -1.512913 -0.702988
v 0.541421 -1.512913 -0.702988
v 0.762656 -1.734149 0.702988
v 0.582567 -1.512913 0.407158
v 0.541421 -1.512913 0.702988
v 0.541421 -1.512913 0.702988
v -0.762656 -1.512913 0.481753
v -0.466825 -1.512913 0.522900
v -0.762656 -1.512913 -0.481753
v 0.762656 -1.512913 -0.481753
v -0.466825 -1.512913 -0.522900
v 0.466825 -1.512913 -0.522900
v 0.762656 -1.512913 0.481753
v -0.466825 -1.365388 0.522900
v 0.466825 -1.512913 0.522900
v 0.466825 -1.365388 0.522900
v 0.466825 -1.365388 -0.522900
v -0.466825 -1.365388 -0.522900
v -0.582567 -1.365388 0.407158
v -0.582567 -1.365388 -0.407158
v 0.582567 -1.365388 -0.407158
v 0.582567 -1.365388 0.407158
v -0.342486 -1.293738 0.383625
v 0.342486 -1.293738 0.383625
v 0.342486 -1.293738 -0.383625
v -0.342486 -1.293738 -0.383625
v -0.427399 -1.293738 0.298711
v -0.427399 -1.293738 -0.298711
v 0.427399 -1.293738 -0.298711
v 0.427399 -1.293738 0.298711
vt -1.700154 1.201223
vt -1.700154 1.555282
vt -1.891091 1.236830
vt -1.891091 0.962384
vt 0.053710 -0.923131
vt -0.335219 -0.923131
vt -0.335219 -1.277190
vt 0.053710 -1.434651
vt 1.325829 1.992070
vt 1.325829 1.412898
vt 1.569353 1.412898
vt 1.569353 1.992070
vt 0.838781 -2.172692
vt 1.082305 -2.172692
vt 1.017886 -0.906376
vt 0.903199 -0.906376
vt 1.569353 1.992070
vt 1.569353 2.571242
vt 1.325829 2.571242
vt 1.325829 1.992070
vt -1.311226 -0.923131
vt -1.700155 -0.923131
vt -1.700155 -1.277190
vt -1.311226 -1.434651
vt 1.266831 0.066882
vt 1.266831 0.341328
vt 1.141303 0.341328
vt 1.141303 0.066882
vt -0.335218 1.201223
vt -0.335218 1.555282
vt -0.526155 1.236830
vt -0.526155 0.962384
vt 1.325829 0.659780
vt 1.082306 0.659780
vt 1.082305 -2.172692
vt 1.325829 -2.172692
vt 1.266831 -1.854240
vt 1.141303 -1.854240
vt 1.492715 -1.658872
vt 1.492715 -1.464574
vt 1.492715 -1.270276
vt 1.325830 -1.270276
vt 1.325830 -1.464574
vt 1.325829 -1.658872
vt 1.266831 -0.871141
vt 1.266831 -0.756456
vt 1.141303 -0.756456
vt 1.141303 -0.871141
vt -0.634890 -0.055252
vt -0.634890 -0.569072
vt -0.526156 -0.383665
vt -0.526156 -0.004379
vt -0.280176 -0.625317
vt -0.279680 -0.040209
vt -0.434542 0.024361
vt -0.434542 -0.409846
vt -0.634890 -0.923131
vt -0.526156 -0.645021
vt -1.645112 -0.625317
vt -1.644616 -0.040209
vt -1.799478 0.024361
vt -1.799478 -0.409846
vt 0.137791 -0.625435
vt -1.806945 2.450784
vt -1.724408 2.698038
vt -1.891091 2.698038
vt -1.821252 2.450784
vt -1.084478 0.847164
vt -1.227145 0.903527
vt -1.227145 0.333344
vt -1.084478 0.333344
vt -1.311225 1.201223
vt -1.645111 0.903410
vt -1.227145 -0.625435
vt 1.120624 2.132378
vt 1.120624 1.618558
vt 1.287510 1.618558
vt 1.287510 2.132378
vt -0.612728 2.450784
vt -0.612728 2.574820
vt -0.627037 2.574820
vt -0.627037 2.450784
vt 0.053710 1.201223
vt -0.280176 0.903410
vt 0.137791 0.903527
vt -1.644616 0.139046
vt -1.644616 0.318302
vt -1.799478 0.253731
vt -1.799478 0.139046
vt -0.634890 0.847164
vt -0.634890 0.333344
vt -0.526156 0.282471
vt -0.526156 0.661757
vt -0.526155 -0.684292
vt -0.526155 -0.958738
vt -1.311225 1.712743
vt -0.634890 0.139046
vt -0.526156 0.139046
vt 1.492715 -1.768785
vt 1.492715 -2.172692
vt 1.641416 -2.172692
vt 1.659398 -2.146211
vt 1.659398 -1.768785
vt -1.223955 2.450784
vt -1.223955 2.955575
vt -1.390840 2.955575
vt -1.390840 2.450784
vt -1.799477 0.687938
vt 1.266831 -1.579794
vt 1.141303 -1.579794
vt 0.053710 1.712743
vt -1.891091 -0.684292
vt -1.891091 -0.958738
vt -0.279680 0.318302
vt -0.434541 0.687938
vt -0.434542 0.253731
vt -1.557725 2.955575
vt -1.557725 2.450784
vt -1.390840 2.450784
vt -1.390840 2.955575
vt 0.730046 1.201223
vt 0.730046 0.847164
vt 0.838781 0.661757
vt 0.838781 0.923113
vt 1.266831 -0.641771
vt 1.141303 -0.641771
vt -0.634890 2.450784
vt -0.634890 1.201223
vt -0.526156 0.923113
vt -0.526155 1.184468
vt 0.730046 2.450784
vt 0.838781 1.184468
vt 1.325829 -2.172692
vt 1.492715 -2.172692
vt -0.279680 0.139046
vt -0.434542 0.139046
vt 1.492715 -0.756456
vt 1.325830 -0.756456
vt 0.903199 -0.645021
vt 1.017886 -0.645021
vt 1.161903 -0.611470
vt 1.161903 -0.207564
vt 1.141303 -0.207564
vt 1.246231 0.039689
vt 1.246231 -0.207564
vt 1.266831 -0.207564
vt 1.246231 -0.901442
vt 1.246231 -1.305348
vt 1.266831 -1.305348
vt 1.161903 -1.552601
vt 1.161903 -1.305348
vt 1.141303 -1.305348
vt 1.161903 0.039689
vt 1.246231 -1.552601
vt 1.246231 -0.611470
vt 1.161903 -0.901442
vt -0.958488 2.450784
vt -0.874160 2.450784
vt -0.874160 2.669549
vt -0.958488 2.669549
vt 1.653681 -0.756456
vt 1.653681 -0.509203
vt 1.569353 -0.509203
vt 1.569353 -0.756456
vt 1.653681 0.245649
vt 1.653681 0.492903
vt 1.569353 0.492903
vt 1.569353 0.245649
vt -0.958488 2.697179
vt -1.042816 2.697179
vt -1.042816 2.478414
vt -0.958488 2.478414
vt -1.724408 3.101944
vt -1.724408 2.698037
vt -1.557725 2.698037
vt -1.557725 3.075464
vt -1.575707 3.101944
vt -1.641872 2.450784
vt -1.627565 2.450784
vt 1.659398 -1.521532
vt 1.659398 -1.117625
vt 1.492715 -1.117625
vt 1.492715 -1.495052
vt 1.510697 -1.521532
vt -0.598418 2.450784
vt -0.598418 2.574820
vt -0.612728 2.574820
vt -0.612728 2.450784
vt 1.653681 -0.131777
vt 1.569353 -0.131777
vt -1.724408 3.101944
vt -1.873110 3.101944
vt -1.891091 3.075464
vt 1.575251 -1.521532
vt 1.589558 -1.521532
vt 1.576861 -0.870372
vt 1.562555 -0.870372
vt -0.874160 2.697179
vt -0.958488 2.697179
vt -1.042816 2.450784
vt -0.958488 2.450784
vt 1.653681 -0.131777
vt 1.569353 -0.131777
vt 0.903199 0.282471
vt 0.903199 0.139046
vt 1.017886 0.139046
vt 1.017886 0.282471
vt 0.903200 0.923113
vt 0.903200 0.661757
vt 1.017886 0.661757
vt 1.017886 0.923113
vt 0.903199 -0.004379
vt 0.903199 -0.383665
vt 1.017886 -0.383665
vt 1.017886 -0.004379
vt 0.903200 1.184468
vt 1.017886 1.184468
vt -0.634890 -2.172692
vt -0.526156 -0.906376
vt 0.730046 -0.569072
vt 0.730046 -0.923131
vt 0.838781 -0.645020
vt 0.838781 -0.383665
vt 0.730046 -0.055252
vt 0.838781 -0.004379
vt 0.730046 0.333344
vt 0.730046 0.139046
vt 0.838781 0.139046
vt 0.838781 0.282471
vt 0.730046 -2.172692
vt 0.838781 -0.906376
vt 1.082305 2.450784
vt 0.838781 2.450784
vt 0.258807 1.201223
vt 0.280458 0.847164
vt 0.280458 0.333344
vt 0.137791 0.333344
vt 0.099517 0.276981
vt 0.099517 0.139046
vt 0.280458 0.139046
vt -1.106129 1.201223
vt -0.822216 2.450784
vt -0.821325 2.480271
vt -0.846853 2.480271
vt -0.847743 2.450784
vt -1.084478 -0.055252
vt -1.227145 -0.055252
vt -1.084478 -0.569072
vt 0.258807 2.450784
vt 0.280458 -0.055252
vt 0.137791 -0.055252
vt 0.280458 -0.569072
vt -1.106129 2.450784
vt 0.099517 0.001111
vt -1.106129 -0.923131
vt 1.287510 0.716143
vt 1.287510 1.229963
vt 1.120624 1.229963
vt 1.120624 0.716143
vt 0.258807 -0.923131
vt -1.084478 0.139046
vt -1.265419 0.139046
vt -1.265419 0.001111
vt -1.106130 -2.172692
vt 1.569353 -0.018415
vt 1.569353 0.719625
vt 1.325830 0.719625
vt 1.325829 -0.018415
vt 1.325830 -0.018415
vt 1.325829 -0.756456
vt 1.569353 -0.756456
vt 1.569353 -0.018415
vt 0.258807 -2.172692
vt 1.082305 2.882014
vt 1.082305 2.188741
vt 1.325829 2.188741
vt 1.325829 2.882014
vt 1.569353 0.719625
vt 1.569353 1.412898
vt 1.325829 1.412898
vt 1.325829 0.719625
vt -1.265419 0.276981
vt -0.770281 2.507092
vt -0.731962 2.450784
vt -0.731962 2.509594
vt -0.731962 2.509594
vt -0.693643 2.509594
vt -0.731962 2.453287
vt -0.693643 2.450784
vt -0.693643 2.450784
vt -0.693643 2.507092
vt -0.655324 2.450784
vt -0.655324 2.509594
vt -0.655324 2.509594
vt -0.627037 2.450784
vt -0.627037 2.530454
vt -0.655324 2.492349
vt -0.655324 2.492349
vt -0.241738 0.139046
vt -0.241738 0.333344
vt -1.606674 0.139046
vt -1.606674 0.333344
vt -0.241738 -0.569072
vt -0.241738 -0.055252
vt -1.606674 -0.569072
vt -1.606674 -0.055252
vt -1.606674 0.847164
vt -0.241738 0.847164
vt -1.263552 0.847164
vt 0.101384 -0.569072
vt 0.101384 0.847164
vt -1.263552 -0.569072
vt 1.082305 1.229963
vt 1.082305 0.659780
vt 1.325829 1.618558
vt 1.325829 2.188741
vt 1.325829 0.659780
vt 1.325829 1.229963
vt 1.082305 2.188741
vt 1.082305 1.618558
vt 1.113498 1.543191
vt 1.133545 1.572678
vt 1.082305 1.562195
vt 1.274589 1.572678
vt 1.294636 1.543191
vt 1.325829 1.562195
vt 1.294636 1.305330
vt 1.274589 1.275843
vt 1.325829 1.286326
vt 1.133545 1.275843
vt 1.113498 1.305330
vt 1.082305 1.286326
vt -1.203907 2.450784
vt -1.062863 2.450784
vt -1.081647 2.490315
vt -1.185124 2.490315
vt -0.821326 2.688645
vt -0.821326 2.450784
vt -0.795804 2.450784
vt -0.795804 2.688645
vt -0.821325 2.687730
vt -0.846853 2.687730
vt -0.874160 2.480271
vt -0.873270 2.450784
vt -0.847743 2.450784
vt -0.848633 2.480271
vt -0.822216 2.717217
vt -0.847743 2.717217
vt -0.770281 2.450784
vt -0.770281 2.688645
vt -0.795803 2.688645
vt -0.795803 2.450784
vt -0.874160 2.687730
vt -0.848633 2.687730
vt -0.873270 2.717217
vt -0.847743 2.717217
vt -1.199831 2.511949
vt -1.066939 2.511949
vt -1.066939 2.686455
vt -1.081646 2.708088
vt -1.185124 2.708088
vt -1.199831 2.686455
vt -1.223955 2.480271
vt -1.042816 2.718132
vt -1.062863 2.747619
vt -1.042816 2.480271
vt -1.203907 2.747619
vt -1.223955 2.718132
vn 0.0000 0.2909 -0.9568
vn 0.0000 0.0000 1.0000
vn -0.9642 0.2651 0.0000
vn 0.1219 -0.9925 0.0000
vn 0.9642 0.2651 0.0000
vn 0.0000 0.0000 -1.0000
vn 0.0000 1.0000 0.0000
vn 0.0000 0.2909 0.9568
vn -0.6674 0.7447 0.0000
vn 0.6674 0.7447 0.0000
vn 0.0000 -1.0000 0.0000
vn 0.0000 -0.5203 -0.8540
vn 0.0088 0.3038 0.9527
vn -0.0088 0.3038 -0.9527
vn 0.0138 0.0059 0.9999
vn 0.0138 0.0059 -0.9999
vn -0.0138 0.0059 -0.9999
vn 1.0000 0.0000 0.0000
vn -0.0138 0.0059 0.9999
vn 0.0088 0.3038 -0.9527
vn -0.0088 0.3038 0.9527
vn -1.0000 0.0000 0.0000
vn 0.0000 -0.5203 0.8540
vn -0.0973 0.2268 0.9691
vn 0.0973 0.2268 -0.9691
vn 0.0973 0.2268 0.9691
vn -0.0973 0.2268 -0.9691
vn 0.4412 0.8974 0.0000
vn -0.4412 0.8974 0.0000
vn 0.3841 0.9233 0.0000
vn -0.3841 0.9233 0.0000
vn 0.7071 0.7071 0.0000
vn -0.7071 0.7071 0.0000
vn -0.1219 -0.9925 0.0000
vn -0.7071 0.0000 -0.7071
vn 0.3787 0.9255 0.0000
vn -0.3787 0.9255 0.0000
vn -0.5774 0.5774 0.5774
vn -0.5774 0.5774 -0.5774
vn 0.5774 0.5774 -0.5774
vn 0.5774 0.5774 0.5774
vn 0.0000 -0.5954 0.8034
vn 0.0000 -0.5954 -0.8034
vn 0.0064 -0.6353 0.7722
vn -0.0064 -0.6353 -0.7722
vn 0.0064 -0.6353 -0.7722
vn -0.0064 -0.6353 0.7722
vn 0.6843 0.0045 -0.7292
vn 0.6843 0.0045 0.7292
vn -0.6843 0.0045 0.7292
vn -0.6843 0.0045 -0.7292
vn 0.0000 0.7071 0.7071
vn 0.0000 0.7071 -0.7071
vn 0.4192 0.9079 0.0000
vn 0.7071 0.0000 -0.7071
vn -0.7071 0.0000 0.7071
vn 0.7071 0.0000 0.7071
vn 0.2537 0.9334 0.2537
vn -0.2537 0.9334 -0.2537
vn 0.0000 0.8892 -0.4575
vn -0.4192 0.9079 0.0000
vn 0.2537 0.9334 -0.2537
vn -0.2537 0.9334 0.2537
vn 0.0000 0.8892 0.4575
usemtl Material
s off
f 29/1/1 5/2/1 12/3/1 47/4/1
f 98/5/2 26/6/2 7/7/2 92/8/2
f 92/9/3 7/10/3 5/11/3 94/12/3
f 2/13/4 4/14/4 77/15/4 78/16/4
f 91/17/5 1/18/5 3/19/5 93/20/5
f 100/21/6 32/22/6 1/23/6 91/24/6
f 47/25/7 12/26/7 10/27/7 53/28/7
f 35/29/8 3/30/8 9/31/8 51/32/8
f 5/33/9 7/34/9 10/27/9 12/26/9
f 3/35/10 1/36/10 11/37/10 9/38/10
f 135/39/11 119/40/11 133/41/11 131/42/11 121/43/11 137/44/11
f 49/45/7 16/46/7 15/47/7 56/48/7
f 41/49/12 23/50/12 90/51/12 79/52/12
f 123/53/13 134/54/13 45/55/13 46/56/13
f 23/50/12 34/57/12 89/58/12 90/51/12
f 127/59/14 138/60/14 49/61/14 50/62/14
f 141/63/15 123/53/15 26/6/15 98/5/15
f 27/64/2 18/65/2 58/66/2 65/67/2
f 106/68/6 140/69/6 151/70/6 115/71/6
f 97/72/16 29/1/16 126/73/16 140/69/16
f 145/74/17 127/59/17 32/22/17 100/21/17
f 142/75/7 163/76/7 165/77/7 139/78/7
f 36/79/18 33/80/18 66/81/18 64/82/18
f 99/83/19 35/29/19 130/84/19 144/85/19
f 122/86/1 132/87/1 55/88/1 16/89/1
f 17/90/12 39/91/12 83/92/12 84/93/12
f 7/7/8 26/6/8 53/94/8 10/95/8
f 94/96/6 5/2/6 29/1/6 97/72/6
f 39/91/12 13/97/12 80/98/12 83/92/12
f 22/99/6 44/100/6 71/101/6 72/102/6 59/103/6
f 139/104/18 125/105/18 124/106/18 142/107/18
f 132/87/20 126/73/20 48/108/20 55/88/20
f 11/37/7 54/109/7 51/110/7 9/38/7
f 93/111/2 3/30/2 35/29/2 99/83/2
f 1/23/1 32/22/1 54/112/1 11/113/1
f 136/114/21 130/84/21 52/115/21 56/116/21
f 143/117/22 129/118/22 128/119/22 146/120/22
f 31/121/23 21/122/23 88/123/23 61/124/23
f 138/60/1 122/86/1 16/89/1 49/61/1
f 130/84/24 35/29/24 51/32/24 52/115/24
f 16/46/7 55/125/7 45/126/7 15/47/7
f 6/127/12 25/128/12 63/129/12 68/130/12
f 126/73/25 29/1/25 47/4/25 48/108/25
f 26/6/26 123/53/26 46/56/26 53/94/26
f 4/131/23 31/121/23 61/124/23 77/132/23
f 137/44/11 128/133/11 129/134/11 135/39/11
f 134/54/8 120/135/8 15/136/8 45/55/8
f 32/22/27 127/59/27 50/62/27 54/112/27
f 133/41/11 124/137/11 125/138/11 131/42/11
f 89/139/11 78/16/11 77/15/11 61/140/11
f 40/141/7 18/142/7 46/143/7 45/126/7
f 30/144/28 20/145/28 48/146/28 47/25/28
f 44/147/7 22/148/7 50/149/7 49/45/7
f 36/150/29 24/151/29 52/152/29 51/110/29
f 18/142/28 27/153/28 53/28/28 46/143/28
f 27/153/28 30/144/28 47/25/28 53/28/28
f 22/148/29 33/154/29 54/109/29 50/149/29
f 33/154/29 36/150/29 51/110/29 54/109/29
f 20/145/7 38/155/7 55/125/7 48/146/7
f 38/155/7 40/141/7 45/126/7 55/125/7
f 24/151/7 42/156/7 56/48/7 52/152/7
f 42/156/7 44/147/7 49/45/7 56/48/7
f 40/157/18 38/158/18 74/159/18 69/160/18
f 66/161/30 59/162/30 60/163/30 64/164/30
f 57/165/31 62/166/31 65/167/31 58/168/31
f 44/169/22 42/170/22 76/171/22 71/172/22
f 38/173/6 20/174/6 57/175/6 73/176/6 74/177/6
f 20/174/6 30/178/6 62/179/6 57/175/6
f 42/180/2 24/181/2 60/182/2 75/183/2 76/184/2
f 30/185/22 27/186/22 65/187/22 62/188/22
f 59/162/7 72/189/7 75/190/7 60/163/7
f 18/65/2 40/191/2 69/192/2 70/193/2 58/66/2
f 33/194/6 22/99/6 59/103/6 66/195/6
f 24/181/2 36/196/2 64/197/2 60/182/2
f 73/198/32 70/199/32 69/160/32 74/159/32
f 71/172/33 76/171/33 75/200/33 72/201/33
f 73/202/7 57/165/7 58/168/7 70/203/7
f 83/204/11 80/205/11 82/206/11 81/207/11
f 63/208/11 84/209/11 86/210/11 85/211/11
f 79/212/11 90/213/11 88/214/11 87/215/11
f 68/216/11 63/208/11 85/211/11 67/217/11
f 90/213/11 89/139/11 61/140/11 88/214/11
f 84/209/11 83/204/11 81/207/11 86/210/11
f 80/205/11 79/212/11 87/215/11 82/206/11
f 25/128/12 17/90/12 84/93/12 63/129/12
f 34/57/12 2/218/12 78/219/12 89/58/12
f 13/97/12 41/49/12 79/52/12 80/98/12
f 19/220/23 28/221/23 85/222/23 86/223/23
f 37/224/23 19/220/23 86/223/23 81/225/23
f 43/226/23 14/227/23 82/228/23 87/229/23
f 21/122/23 43/226/23 87/229/23 88/123/23
f 14/227/23 37/224/23 81/225/23 82/228/23
f 28/221/23 8/230/23 67/231/23 85/222/23
f 8/232/34 6/233/34 68/216/34 67/217/34
f 112/234/2 99/83/2 144/85/2 108/235/2
f 117/236/2 159/237/2 162/238/2 96/239/2 105/240/2
f 110/241/6 97/72/6 140/69/6 106/68/6
f 167/242/35 152/243/35 176/244/35 174/245/35
f 116/246/6 156/247/6 145/74/6 109/248/6
f 102/249/2 93/111/2 99/83/2 112/234/2
f 114/250/2 148/251/2 141/63/2 107/252/2
f 103/253/6 94/96/6 97/72/6 110/241/6
f 105/240/2 96/239/2 149/254/2 148/251/2 114/250/2
f 109/248/6 145/74/6 100/21/6 113/255/6
f 146/256/7 166/257/7 169/258/7 143/259/7
f 107/252/2 141/63/2 98/5/2 111/260/2
f 104/261/6 95/262/6 157/263/6 156/247/6 116/246/6
f 113/255/6 100/21/6 91/24/6 101/264/6
f 101/265/36 91/266/36 93/267/36 102/268/36
f 118/269/37 92/270/37 94/271/37 103/272/37
f 111/260/2 98/5/2 92/8/2 118/273/2
f 28/221/2 111/260/2 118/273/2 8/230/2
f 8/274/22 118/275/22 103/276/22 6/277/22
f 2/278/18 101/279/18 102/280/18 4/281/18
f 34/57/6 113/255/6 101/264/6 2/218/6
f 39/91/6 115/71/6 104/261/6 13/97/6
f 43/226/2 117/236/2 105/240/2 14/227/2
f 25/128/6 110/241/6 106/68/6 17/90/6
f 37/224/2 114/250/2 107/252/2 19/220/2
f 31/121/2 112/234/2 108/235/2 21/122/2
f 41/49/6 116/246/6 109/248/6 23/50/6
f 6/127/6 103/253/6 110/241/6 25/128/6
f 19/220/2 107/252/2 111/260/2 28/221/2
f 4/131/2 102/249/2 112/234/2 31/121/2
f 23/50/6 109/248/6 113/255/6 34/57/6
f 14/227/2 105/240/2 114/250/2 37/224/2
f 17/90/6 106/68/6 115/71/6 39/91/6
f 13/97/6 104/261/6 116/246/6 41/49/6
f 21/122/2 108/235/2 117/236/2 43/226/2
f 108/235/2 144/85/2 159/237/2 117/236/2
f 115/71/6 151/70/6 154/282/6 95/262/6 104/261/6
f 163/283/38 148/284/38 149/285/38 150/286/38
f 151/287/39 165/288/39 153/289/39 154/290/39
f 166/291/40 156/292/40 157/293/40 158/294/40
f 159/295/41 169/296/41 161/297/41 162/298/41
f 136/114/42 120/135/42 119/299/42 135/300/42
f 132/87/43 122/86/43 121/301/43 131/302/43
f 134/54/44 123/53/44 124/303/44 133/304/44
f 138/60/45 127/59/45 128/305/45 137/306/45
f 126/73/46 132/87/46 131/302/46 125/307/46
f 120/135/42 134/54/42 133/304/42 119/299/42
f 130/84/47 136/114/47 135/300/47 129/308/47
f 122/86/43 138/60/43 137/306/43 121/301/43
f 125/307/48 139/309/48 140/69/48 126/73/48
f 123/53/49 141/63/49 142/310/49 124/303/49
f 129/308/50 143/311/50 144/85/50 130/84/50
f 127/59/51 145/74/51 146/312/51 128/305/51
f 143/259/52 169/258/52 159/313/52 144/314/52
f 139/78/53 165/77/53 151/315/53 140/316/53
f 166/257/53 146/256/53 145/317/53 156/318/53
f 163/76/52 142/75/52 141/319/52 148/320/52
f 120/135/8 136/114/8 56/116/8 15/136/8
f 164/321/7 147/322/7 163/76/7 150/323/7
f 152/324/7 167/325/7 153/326/7 165/77/7
f 168/327/7 155/328/7 166/257/7 158/329/7
f 160/330/7 171/331/7 161/332/7 169/258/7
f 147/322/7 152/324/7 165/77/7 163/76/7
f 155/328/7 160/330/7 169/258/7 166/257/7
f 171/331/7 164/321/7 150/323/7 161/332/7
f 167/325/7 168/327/7 158/329/7 153/326/7
f 178/333/54 177/334/54 185/335/54 186/336/54
f 164/337/2 171/338/2 172/339/2 170/340/2
f 152/243/22 147/341/22 175/342/22 176/244/22
f 155/343/55 168/344/55 173/345/55 177/346/55
f 147/341/56 164/347/56 170/348/56 175/342/56
f 168/349/6 167/350/6 174/351/6 173/352/6
f 160/353/18 155/343/18 177/346/18 178/354/18
f 171/355/57 160/353/57 178/354/57 172/356/57
f 180/357/7 186/336/7 185/335/7 181/358/7 182/359/7 184/360/7 183/361/7 179/362/7
f 172/363/58 178/333/58 186/336/58 180/357/58
f 174/364/59 176/365/59 184/360/59 182/359/59
f 173/366/60 174/364/60 182/359/60 181/358/60
f 176/365/61 175/367/61 183/361/61 184/360/61
f 177/334/62 173/366/62 181/358/62 185/335/62
f 175/367/63 170/368/63 179/362/63 183/361/63
f 170/368/64 172/363/64 180/357/64 179/362/64
