# Blender v2.81 (sub 16) OBJ File: 'GUNMODEL02.blend'
# www.blender.org
o Cube
v -1.405681 -0.018873 0.000000
v 1.168172 0.120478 0.000000
v -1.189036 0.120478 0.000000
v 1.168172 0.000000 0.000000
v -1.189036 0.000000 0.039007
v 1.168172 0.000000 0.039007
v 1.168172 0.000000 -0.039007
v -1.189036 0.000000 -0.039007
v -1.189036 -0.120478 0.000000
v -1.405681 0.002172 -0.006814
v -1.405681 0.002172 0.006814
v 1.168172 0.000000 -0.058937
v 1.168172 0.019077 -0.078015
v -1.189036 0.000000 0.058937
v -1.189036 0.019077 0.078015
v 1.168172 0.019077 0.078015
v 1.168172 0.000000 0.058937
v -1.189036 0.019077 -0.078015
v -1.189036 0.000000 -0.058937
v 1.168172 0.057379 -0.078015
v 1.168172 0.120478 -0.014916
v 1.168172 0.120478 0.014916
v 1.168172 0.057379 0.078015
v -1.189036 0.120478 -0.014916
v -1.189036 0.057379 -0.078015
v -1.189036 0.057379 0.078015
v -1.189036 0.120478 0.014916
v -1.200653 0.019077 0.078015
v -1.220240 0.032237 0.051287
v -1.220240 0.032237 -0.051287
v -1.200653 0.019077 -0.078015
v -1.200653 0.120478 0.000000
v -1.220240 0.098898 0.000000
v -1.202308 0.020732 0.074654
v -1.202308 0.020732 -0.074654
v -1.202308 0.117764 -0.000000
v -1.184794 0.032237 0.051287
v -1.184794 0.032237 -0.051287
v -1.184794 0.098898 0.000000
v 1.445500 -0.187898 0.000000
v 1.370772 0.027761 0.000000
v 1.216386 0.058104 0.000000
v 1.216386 0.058104 0.039007
v 1.216386 0.058104 -0.039007
v 1.459776 -0.047827 0.000000
v 1.493714 -0.129794 0.000000
v 1.226297 0.076294 0.026137
v 1.193991 0.118088 0.000000
v 1.226297 0.076294 -0.026137
v 1.228744 0.073129 0.032580
v 1.188475 0.125225 0.000000
v 1.228744 0.073129 -0.032580
v 1.228680 0.078136 0.026137
v 1.196374 0.119930 0.000000
v 1.228680 0.078136 -0.026137
v 1.351156 0.004120 0.039007
v 1.370772 0.027761 0.009895
v 1.342206 0.033375 0.039007
v 1.370772 0.027761 -0.009895
v 1.351156 0.004120 -0.039007
v 1.342206 0.033375 -0.039007
v 1.440119 -0.071517 0.039007
v 1.459776 -0.047827 0.009895
v 1.459776 -0.047827 -0.009895
v 1.440119 -0.071517 -0.039007
v 1.493714 -0.129794 0.009895
v 1.474004 -0.153547 0.039007
v 1.474004 -0.153547 -0.039007
v 1.493714 -0.129794 -0.009895
v 1.322558 -0.030343 0.002320
v 1.319565 -0.000552 0.039007
v 1.201015 -0.005101 0.039007
v 1.319565 -0.000552 -0.039007
v 1.322558 -0.030343 -0.002320
v 1.201015 -0.005101 -0.039007
v 1.411562 -0.105931 0.002320
v 1.436335 -0.076077 0.039007
v 1.436335 -0.076077 -0.039007
v 1.411562 -0.105931 -0.002320
v 1.470338 -0.157965 0.039007
v 1.445500 -0.187898 0.002320
v 1.445500 -0.187898 0.002320
v 1.445500 -0.187898 -0.002320
v 1.470338 -0.157965 -0.039007
v 1.445500 -0.187898 -0.002320
v 1.476745 -0.088811 0.000000
v 1.457061 -0.112532 -0.039007
v 1.476745 -0.088811 -0.009895
v 1.457061 -0.112532 0.039007
v 1.476745 -0.088811 0.009895
v 1.428531 -0.146915 -0.002320
v 1.453336 -0.117021 -0.039007
v 1.428531 -0.146915 0.002320
v 1.453336 -0.117021 0.039007
v 1.461309 -0.161707 0.039007
v 1.436470 -0.191640 0.002320
v 1.436470 -0.191640 -0.002320
v 1.461309 -0.161707 -0.039007
v 1.444307 -0.120763 -0.039007
v 1.419501 -0.150657 0.002320
v 1.419501 -0.150657 -0.002320
v 1.444307 -0.120763 0.039007
v 1.168172 0.120478 -0.007458
v 1.168172 0.120478 0.007458
v 1.168172 0.148029 0.000000
v 1.168172 0.148029 -0.008946
v 1.168172 0.129670 -0.017685
v 1.168172 0.148029 -0.008947
v 1.216386 0.082558 0.030389
v 1.186752 0.129747 0.009262
v 1.216386 0.082558 -0.030389
v 1.186752 0.129747 -0.009262
v 1.168172 0.148029 0.008946
v 1.168172 0.129670 0.017685
v 1.168172 0.148029 0.008947
vt 0.000000 0.000000
vt 0.000000 0.000000
vt 0.000000 0.000000
vt 0.000000 0.000000
vt 0.000000 0.000000
vt 0.000000 0.000000
vt 0.000000 0.000000
vt 0.000000 0.000000
vt 0.000000 0.000000
vt 0.000000 0.000000
vt 0.000000 0.000000
vt 0.000000 0.000000
vt 0.375000 0.625000
vt 0.375000 0.609146
vt 0.375000 0.609146
vt 0.000000 0.000000
vt 0.000000 0.000000
vt 0.000000 0.000000
vt 0.000000 0.000000
vt 0.000000 0.000000
vt 0.000000 0.000000
vt 0.559533 0.500000
vt 0.059749 0.047799
vt 0.059749 0.071698
vt 0.559533 0.750000
vt 0.519793 0.500000
vt 0.500000 0.250000
vt 0.519793 0.250000
vt 0.519793 1.000000
vt 0.500000 0.750000
vt 0.519793 0.750000
vt 0.000000 0.000000
vt 0.119497 0.191196
vt 0.000000 0.000000
vt 0.559533 1.000000
vt 0.119497 0.143397
vt 0.119497 0.095598
vt 0.559533 0.250000
vt 0.119497 0.047799
vt 0.500000 1.000000
vt 0.519793 1.000000
vt 0.000000 0.000000
vt 0.000000 0.000000
vt 0.000000 0.000000
vt 0.000000 0.000000
vt 0.000000 0.000000
vt 0.000000 0.000000
vt 0.000000 0.000000
vt 0.000000 0.000000
vt 0.506139 0.243433
vt 0.008738 0.004202
vt 0.000000 0.000000
vt 0.519793 0.250000
vt 0.000000 0.000000
vt 0.000000 0.000000
vt 0.000000 0.000000
vt 0.000000 0.000000
vt 0.375000 0.640854
vt 0.375000 0.625000
vt 0.000000 0.000000
vt 0.000000 0.000000
vt 0.000000 0.000000
vt 0.375000 0.625000
vt 0.375000 0.609146
vt 0.375000 0.609146
vt 0.000000 0.000000
vt 0.000000 0.000000
vt 0.000000 0.000000
vt 0.000000 0.000000
vt 0.000000 0.000000
vt 0.000000 0.000000
vt 0.398129 0.562500
vt 0.500000 0.625000
vt 0.000000 0.000000
vt 0.000000 0.000000
vt 0.000000 0.000000
vt 0.000000 0.000000
vt 0.000000 0.000000
vt 0.000000 0.000000
vt 0.000000 0.000000
vt 0.500000 0.687500
vt 0.398129 0.687500
vt 0.000000 0.000000
vt 0.000000 0.000000
vt 0.000000 0.000000
vt 0.000000 0.000000
vt 0.000000 0.000000
vt 0.000000 0.000000
vt 0.000000 0.000000
vt 0.000000 0.000000
vt 0.000000 0.000000
vt 0.000000 0.000000
vt 0.000000 0.000000
vt 0.000000 0.000000
vt 0.000000 0.000000
vt 0.000000 0.000000
vt 0.000000 0.000000
vt 0.000000 0.000000
vt 0.000000 0.000000
vt 0.000000 0.000000
vt 0.000000 0.000000
vt 0.000000 0.000000
vt 0.375000 0.562500
vt 0.375000 0.562500
vt 0.000000 0.000000
vt 0.000000 0.000000
vt 0.000000 0.000000
vt 0.000000 0.000000
vt 0.000000 0.000000
vt 0.375000 0.640854
vt 0.375000 0.625000
vt 0.000000 0.000000
vt 0.000000 0.000000
vt 0.000000 0.000000
vt 0.000000 0.000000
vt 0.000000 0.000000
vt 0.000000 0.000000
vt 0.000000 0.000000
vt 0.000000 0.000000
vt 0.000000 0.000000
vt 0.000000 0.000000
vt 0.000000 0.000000
vt 0.000000 0.000000
vt 0.000000 0.000000
vt 0.000000 0.000000
vt 0.000000 0.000000
vt 0.375000 0.640854
vt 0.000000 0.000000
vt 0.000000 0.000000
vt 0.000000 0.000000
vt 0.000000 0.000000
vt 0.000000 0.000000
vt 0.000000 0.000000
vt 0.000000 0.000000
vt 0.000000 0.000000
vt 0.000000 0.000000
vt 0.000000 0.000000
vt 0.000000 0.000000
vt 0.000000 0.000000
vt 0.000000 0.000000
vt 0.500000 0.500000
vt 0.000000 0.000000
vt 0.375000 0.640854
vt 0.500000 0.562500
vt 0.000000 0.000000
vt 0.000000 0.000000
vn 1.0000 0.0000 0.0000
vn -0.0157 0.3080 0.9513
vn 0.0000 -1.0000 0.0000
vn -0.0157 0.3080 -0.9513
vn 0.9239 0.3825 0.0000
vn 0.0000 0.0000 1.0000
vn 0.1430 0.3049 0.9416
vn 0.1430 0.3049 -0.9416
vn -0.0100 -0.9999 0.0000
vn 0.0000 -0.7071 -0.7071
vn 0.0000 -0.7071 0.7071
vn 0.0000 1.0000 0.0000
vn 0.0000 0.0000 -1.0000
vn 0.0000 0.7071 0.7071
vn 0.0000 0.7071 -0.7071
vn -1.0000 0.0000 0.0000
vn 0.0000 0.6098 0.7926
vn 0.0000 0.6098 -0.7926
vn 0.0000 -0.6098 0.7926
vn -0.7071 -0.7071 -0.0000
vn -0.7071 0.4312 0.5604
vn -0.7071 0.4312 -0.5604
vn -0.5400 -0.8417 -0.0000
vn -0.5400 0.5132 0.6671
vn -0.5400 0.5132 -0.6671
vn 0.0000 -0.6098 -0.7926
vn -0.7696 0.6386 0.0000
vn 0.6473 0.7622 0.0000
vn -0.2033 -0.9791 0.0000
vn 0.1929 0.9812 0.0000
vn -0.6473 -0.7622 0.0000
vn 0.7696 -0.6386 0.0000
vn -0.7723 0.6352 0.0000
vn -0.0150 0.9999 0.0000
vn 0.5609 -0.4654 0.6847
vn 0.5609 -0.4654 -0.6847
vn 0.4896 0.6166 -0.6166
vn 0.0412 -0.3321 -0.9423
vn -0.4798 0.0895 0.8728
vn 0.4896 0.6166 0.6166
vn -0.6116 0.7912 0.0000
vn 0.1088 -0.4653 0.8785
vn 0.1088 -0.4653 -0.8785
vn -0.7912 -0.6116 0.0000
vn 0.2712 -0.3509 0.8963
vn 0.2712 -0.3508 -0.8963
vn 0.7172 0.2194 0.6614
vn 0.7172 0.2194 -0.6614
vn 0.4451 0.5235 -0.7265
vn 0.4453 0.5243 0.7258
vn 0.6748 0.2787 -0.6834
vn 0.6744 0.2792 0.6835
vn 0.0297 -0.7748 0.6316
vn 0.0297 -0.7748 -0.6316
vn -0.4448 -0.5237 -0.7265
vn -0.4579 -0.7080 0.5376
vn -0.6744 -0.2792 -0.6835
vn -0.3432 0.8283 0.4428
vn -0.6744 -0.2800 0.6832
vn -0.3828 0.9238 0.0000
vn 0.6748 0.2794 0.6830
vn 0.6744 0.2786 -0.6838
vn -0.9239 -0.3825 0.0000
vn -0.6740 -0.2799 0.6837
vn -0.6740 -0.2791 -0.6840
vn 0.3432 -0.8281 -0.4433
vn 0.3828 -0.9238 0.0000
vn -0.3433 0.8283 -0.4429
vn 0.3432 -0.8281 0.4433
vn -0.0412 0.3321 -0.9423
vn -0.7014 -0.7128 0.0000
vn 0.7014 0.7128 0.0000
vn 0.4798 -0.0895 0.8728
vn -0.3774 -0.3980 -0.8362
vn 0.3774 0.3980 -0.8362
vn -0.1535 -0.9882 0.0000
vn 0.4711 0.2544 -0.8446
vn -0.4461 0.0000 0.8950
vn -0.3160 0.3154 0.8948
vn 0.2712 -0.3508 0.8963
vn 0.2712 -0.3509 -0.8963
vn 0.4453 0.5243 -0.7258
vn 0.4451 0.5235 0.7265
vn 0.6748 0.2794 -0.6830
vn 0.6744 0.2786 0.6838
vn -0.4579 -0.7080 -0.5376
vn -0.4448 -0.5237 0.7265
vn -0.6744 -0.2800 -0.6832
vn -0.3433 0.8283 0.4429
vn -0.6744 -0.2792 0.6835
vn 0.6748 0.2787 0.6834
vn 0.6744 0.2792 -0.6835
vn -0.6740 -0.2791 0.6840
vn -0.6740 -0.2799 -0.6837
vn -0.3432 0.8283 -0.4428
vn -0.4711 -0.2544 -0.8446
vn 0.4461 0.0000 0.8950
vn 0.3160 -0.3154 0.8948
vn -0.3417 -0.5544 -0.7589
vn 0.3417 0.5544 -0.7589
s off
f 16/1/1 13/2/1 2/3/1
f 4/4/2 8/5/2 9/6/2
f 5/7/3 17/8/3 14/9/3
f 9/6/4 5/7/4 4/4/4
f 7/10/3 19/11/3 12/12/3
f 86/13/5 69/14/5 88/15/5
f 11/16/1 1/17/1 10/18/1
f 77/19/6 56/20/6 71/21/6
f 1/17/7 8/5/7 10/18/7
f 1/17/8 5/7/8 9/6/8
f 10/18/9 5/7/9 11/16/9
f 20/22/1 103/23/1 2/3/1
f 2/3/1 104/24/1 23/25/1
f 13/26/10 19/27/10 18/28/10
f 15/29/11 17/30/11 16/31/11
f 104/24/12 3/32/12 27/33/12
f 4/4/1 13/2/1 16/1/1
f 6/34/1 16/31/1 17/8/1
f 7/10/1 13/2/1 4/4/1
f 8/5/3 6/34/3 5/7/3
f 18/28/13 20/22/13 13/26/13
f 16/31/6 26/35/6 15/29/6
f 27/33/14 23/25/14 22/36/14
f 21/37/15 25/38/15 24/39/15
f 3/32/12 2/3/12 103/23/12
f 3/32/16 25/38/16 18/28/16
f 26/35/16 3/32/16 15/29/16
f 14/40/16 18/28/16 19/27/16
f 3/32/17 28/41/17 15/29/17
f 18/28/18 32/42/18 3/32/18
f 30/43/19 39/44/19 33/45/19
f 35/46/20 28/47/20 34/48/20
f 34/48/21 32/42/21 36/49/21
f 32/42/22 35/50/22 36/51/22
f 15/52/3 31/53/3 18/28/3
f 30/43/23 34/48/23 29/54/23
f 29/54/24 36/49/24 33/45/24
f 30/43/25 36/49/25 35/46/25
f 37/55/16 39/44/16 38/56/16
f 33/45/26 37/55/26 29/54/26
f 29/54/12 38/56/12 30/43/12
f 4/4/27 44/57/27 7/10/27
f 90/58/5 46/59/5 86/13/5
f 78/60/13 87/61/13 92/62/13
f 41/63/28 64/64/28 59/65/28
f 75/66/29 74/67/29 72/68/29
f 94/69/6 95/70/6 80/71/6
f 61/72/30 42/73/30 41/63/30
f 76/74/31 74/67/31 79/75/31
f 46/76/32 84/77/32 69/78/32
f 46/76/32 66/79/32 80/71/32
f 6/34/27 42/80/27 4/4/27
f 42/73/30 43/81/30 58/82/30
f 78/60/13 60/83/13 65/84/13
f 43/85/33 52/86/33 44/57/33
f 20/87/34 43/85/34 44/57/34
f 6/34/35 43/85/35 23/88/35
f 44/57/36 7/10/36 20/87/36
f 21/89/37 44/57/37 20/87/37
f 22/90/38 109/91/38 43/85/38
f 110/92/39 2/3/39 109/91/39
f 23/88/40 43/85/40 22/90/40
f 47/93/41 55/94/41 49/95/41
f 44/57/42 51/96/42 2/3/42
f 43/85/43 51/96/43 50/97/43
f 48/98/44 50/97/44 51/96/44
f 48/98/44 52/86/44 49/95/44
f 49/95/44 50/97/44 47/93/44
f 53/99/44 54/100/44 55/94/44
f 49/95/45 54/100/45 48/98/45
f 47/93/46 54/100/46 53/99/46
f 56/20/47 57/101/47 58/102/47
f 59/65/48 60/103/48 61/104/48
f 60/83/49 64/105/49 65/84/49
f 56/20/50 63/106/50 57/101/50
f 65/84/51 88/107/51 87/61/51
f 89/108/52 66/79/52 90/109/52
f 57/110/28 45/111/28 41/63/28
f 44/57/13 61/112/13 73/113/13
f 94/69/6 67/114/6 89/108/6
f 70/115/53 71/21/53 72/68/53
f 73/113/54 74/67/54 75/66/54
f 80/71/6 81/116/6 82/117/6
f 83/118/6 84/77/6 85/119/6
f 74/67/55 78/60/55 79/75/55
f 70/115/56 77/19/56 71/21/56
f 79/75/57 92/62/57 91/120/57
f 91/120/58 99/121/58 101/122/58
f 43/85/6 71/21/6 58/102/6
f 76/74/59 94/69/59 77/19/59
f 91/120/60 100/123/60 93/124/60
f 77/19/6 89/108/6 62/125/6
f 62/125/61 90/109/61 63/106/61
f 87/61/62 69/78/62 68/126/62
f 79/75/63 93/124/63 76/74/63
f 92/62/13 68/126/13 84/77/13
f 63/127/5 86/13/5 45/111/5
f 45/111/5 88/15/5 64/64/5
f 101/122/63 96/128/63 100/123/63
f 100/123/64 95/70/64 102/129/64
f 101/122/65 98/130/65 97/131/65
f 83/118/66 98/130/66 84/77/66
f 92/62/13 98/130/13 99/121/13
f 81/116/67 97/131/67 83/118/67
f 93/124/68 102/129/68 94/69/68
f 81/116/69 95/70/69 96/128/69
f 21/89/70 111/132/70 44/57/70
f 110/92/71 113/133/71 105/134/71
f 112/135/72 106/136/72 105/134/72
f 112/135/71 110/92/71 105/134/71
f 112/135/73 2/3/73 111/132/73
f 106/136/1 107/137/1 108/138/1
f 113/133/16 114/139/16 115/140/16
f 110/92/74 114/139/74 113/133/74
f 112/135/75 107/137/75 106/136/75
f 107/137/16 21/89/16 22/90/16
f 5/7/3 6/34/3 17/8/3
f 7/10/3 8/5/3 19/11/3
f 86/13/5 46/59/5 69/14/5
f 77/19/6 62/125/6 56/20/6
f 1/17/7 9/6/7 8/5/7
f 1/17/8 11/16/8 5/7/8
f 10/18/9 8/5/9 5/7/9
f 2/3/1 13/26/1 20/22/1
f 20/22/1 21/37/1 103/23/1
f 23/25/1 16/31/1 2/3/1
f 104/24/1 22/36/1 23/25/1
f 13/26/10 12/141/10 19/27/10
f 15/29/11 14/40/11 17/30/11
f 27/33/12 22/36/12 104/24/12
f 104/24/12 2/3/12 3/32/12
f 6/34/1 4/4/1 16/31/1
f 7/10/1 12/141/1 13/2/1
f 8/5/3 7/10/3 6/34/3
f 18/28/13 25/38/13 20/22/13
f 16/31/6 23/25/6 26/35/6
f 27/33/14 26/35/14 23/25/14
f 21/37/15 20/22/15 25/38/15
f 103/23/12 21/37/12 24/39/12
f 24/39/12 3/32/12 103/23/12
f 3/32/16 24/39/16 25/38/16
f 26/35/16 27/33/16 3/32/16
f 14/40/16 15/52/16 18/28/16
f 3/32/17 32/42/17 28/41/17
f 18/28/18 31/53/18 32/42/18
f 30/43/19 38/56/19 39/44/19
f 35/46/20 31/142/20 28/47/20
f 34/48/21 28/47/21 32/42/21
f 32/42/22 31/53/22 35/50/22
f 15/52/3 28/47/3 31/53/3
f 30/43/23 35/46/23 34/48/23
f 29/54/24 34/48/24 36/49/24
f 30/43/25 33/45/25 36/49/25
f 33/45/26 39/44/26 37/55/26
f 29/54/12 37/55/12 38/56/12
f 4/4/27 42/80/27 44/57/27
f 90/58/5 66/143/5 46/59/5
f 78/60/13 65/84/13 87/61/13
f 41/63/28 45/111/28 64/64/28
f 74/67/29 70/115/29 72/68/29
f 72/68/76 6/34/76 7/10/76
f 7/10/76 75/66/76 72/68/76
f 94/69/6 102/129/6 95/70/6
f 41/63/30 59/65/30 61/72/30
f 61/72/30 44/144/30 42/73/30
f 76/74/31 70/115/31 74/67/31
f 46/76/32 40/145/32 85/119/32
f 85/119/32 84/77/32 46/76/32
f 84/77/32 68/126/32 69/78/32
f 67/114/32 80/71/32 66/79/32
f 80/71/32 82/117/32 46/76/32
f 82/117/32 40/145/32 46/76/32
f 6/34/27 43/85/27 42/80/27
f 57/110/30 41/63/30 58/82/30
f 41/63/30 42/73/30 58/82/30
f 78/60/13 73/113/13 60/83/13
f 43/85/33 50/97/33 52/86/33
f 20/87/34 23/88/34 43/85/34
f 22/90/77 114/139/77 109/91/77
f 105/134/78 2/3/78 110/92/78
f 2/3/79 43/85/79 109/91/79
f 47/93/41 53/99/41 55/94/41
f 44/57/42 52/86/42 51/96/42
f 43/85/43 2/3/43 51/96/43
f 48/98/44 47/93/44 50/97/44
f 48/98/44 51/96/44 52/86/44
f 49/95/44 52/86/44 50/97/44
f 49/95/80 55/94/80 54/100/80
f 47/93/81 48/98/81 54/100/81
f 60/83/82 59/146/82 64/105/82
f 56/20/83 62/125/83 63/106/83
f 65/84/84 64/105/84 88/107/84
f 89/108/85 67/114/85 66/79/85
f 57/110/28 63/127/28 45/111/28
f 60/83/13 73/113/13 61/112/13
f 73/113/13 75/66/13 44/57/13
f 75/66/13 7/10/13 44/57/13
f 94/69/6 80/71/6 67/114/6
f 74/67/86 73/113/86 78/60/86
f 70/115/87 76/74/87 77/19/87
f 79/75/88 78/60/88 92/62/88
f 91/120/89 92/62/89 99/121/89
f 43/85/6 6/34/6 72/68/6
f 72/68/6 71/21/6 43/85/6
f 71/21/6 56/20/6 58/102/6
f 76/74/90 93/124/90 94/69/90
f 91/120/60 101/122/60 100/123/60
f 77/19/6 94/69/6 89/108/6
f 62/125/91 89/108/91 90/109/91
f 87/61/92 88/107/92 69/78/92
f 79/75/63 91/120/63 93/124/63
f 92/62/13 87/61/13 68/126/13
f 63/127/5 90/58/5 86/13/5
f 45/111/5 86/13/5 88/15/5
f 101/122/63 97/131/63 96/128/63
f 100/123/93 96/128/93 95/70/93
f 101/122/94 99/121/94 98/130/94
f 83/118/66 97/131/66 98/130/66
f 92/62/13 84/77/13 98/130/13
f 81/116/67 96/128/67 97/131/67
f 93/124/95 100/123/95 102/129/95
f 81/116/69 80/71/69 95/70/69
f 21/89/96 107/137/96 111/132/96
f 105/134/97 2/3/97 112/135/97
f 2/3/98 44/57/98 111/132/98
f 110/92/99 109/91/99 114/139/99
f 112/135/100 111/132/100 107/137/100
f 22/90/16 114/139/16 107/137/16
f 114/139/16 115/140/16 107/137/16
f 115/140/16 108/138/16 107/137/16
l 6 9
l 7 9
