# Blender v2.81 (sub 16) OBJ File: 'GUNMODEL00.blend'
# www.blender.org
o Cube
v 8.653996 0.791451 -0.100382
v 7.583213 -0.152445 -0.061295
v 8.653996 0.791451 0.113332
v 7.583213 -0.152445 0.074245
v 1.645264 -0.511124 -0.339357
v 1.645264 -0.511124 0.352308
v 1.000000 0.307402 -0.416031
v -1.202886 0.307402 0.428982
v 1.000000 0.307402 0.428982
v -1.202886 0.307402 -0.416031
v -1.861144 0.500000 0.428982
v 1.000000 0.500000 -0.416031
v 1.000000 0.500000 0.428982
v -1.861144 0.500000 -0.416031
v 8.886511 0.620803 -0.100382
v 8.886511 0.620803 0.113332
v 1.000000 -0.192598 -0.416031
v 1.000000 -0.192598 0.428982
v -1.594876 -0.361808 -0.109082
v 8.653996 0.037042 -0.084321
v 8.653996 0.037042 0.097272
v -1.594876 -0.361808 0.122033
v 7.585505 0.463013 -0.252623
v 1.645264 0.409263 -0.339357
v 1.645264 0.818476 -0.339357
v 1.645264 0.409263 0.352308
v 7.585505 0.463013 0.265573
v 1.645264 0.818476 0.352308
v 1.645264 -0.101861 -0.339357
v 7.580297 0.101063 -0.193510
v 1.645264 -0.511074 -0.339357
v 1.000048 -0.192591 -0.416026
v 1.253032 0.307352 -0.339357
v 7.580297 0.101063 0.206460
v 1.645264 -0.101861 0.352308
v 1.253032 0.307352 0.352308
v 1.000048 -0.192591 0.428976
v 1.645264 -0.511074 0.352308
v -1.000000 1.000000 -0.304457
v -1.000000 0.735922 -0.416031
v -1.000000 0.735922 0.428982
v -1.000000 1.000000 0.317407
v 1.000000 0.735922 -0.416031
v 1.000000 1.000000 -0.304457
v 1.245377 0.930971 -0.111625
v 1.000000 1.000000 0.317407
v 1.000000 0.735922 0.428982
v 1.245381 0.930989 0.124575
v -0.849488 -0.324371 -0.247114
v 0.660273 -0.659216 -0.105640
v 0.660273 -0.659216 0.118591
v -0.849488 -0.324371 0.260065
v 1.000000 -0.692598 -0.246349
v 1.000000 -0.290990 -0.416031
v 1.373174 -0.587646 -0.371689
v 1.000000 -0.290990 0.428982
v 1.000000 -0.692598 0.259300
v 1.373174 -0.587646 0.384639
v -1.947034 0.500000 0.428982
v -1.947034 0.500000 -0.416031
v -1.947034 1.000000 0.317407
v -1.947034 0.735922 0.428982
v -1.947034 0.735922 -0.416031
v -1.947034 1.000000 -0.304457
v -2.277153 -0.426618 0.269475
v -2.017559 -0.361808 0.122033
v -2.001102 0.307402 0.428982
v -2.277153 0.194696 0.269475
v -2.001102 0.307402 -0.416031
v -2.277153 0.194696 -0.256524
v -2.017559 -0.361808 -0.109082
v -2.277153 -0.426618 -0.256524
v -2.727552 0.194696 0.269475
v -2.727552 0.194696 -0.256524
v -3.343766 -0.296464 0.269475
v -3.343766 -0.296463 -0.256524
v -5.431927 -0.175857 0.168496
v -4.440679 0.207134 0.269475
v -4.440679 0.207135 -0.256524
v -5.431927 -0.175857 -0.155545
v -5.342149 -0.583673 0.290603
v -4.949831 -1.077317 0.335553
v -4.958690 -1.011017 0.331141
v -4.949831 -1.077317 -0.322602
v -5.342149 -0.583673 -0.277653
v -4.958690 -1.011017 -0.318191
v -1.202886 -0.192598 0.428982
v -1.202886 -0.192598 -0.416031
v -2.001102 -0.192598 -0.416031
v -2.001102 -0.192598 0.428982
v -1.835187 -0.842254 0.110583
v -1.835187 -0.842254 -0.097633
v -2.361420 -0.842254 -0.097633
v -2.361420 -0.842254 0.110583
v -1.938249 -0.895694 0.063077
v -1.938249 -0.895694 -0.050126
v -2.258357 -0.895694 -0.050126
v -2.258357 -0.895694 0.063077
v 0.810785 -0.692598 -0.246349
v -1.000000 -0.290990 -0.416031
v -1.000000 -0.290990 0.428982
v 0.810785 -0.692598 0.259300
v 0.633125 -0.781620 -0.105640
v -0.876636 -0.446776 -0.247114
v -0.876636 -0.446776 0.260065
v 0.633125 -0.781620 0.118591
v 0.579169 -1.024898 -0.105640
v -0.930591 -0.690053 -0.247114
v -0.930591 -0.690053 0.260065
v 0.579169 -1.024898 0.118591
v 8.773285 0.513173 -0.034257
v 8.773285 0.513173 0.047207
v 7.724840 0.355382 -0.092289
v 7.724840 0.355382 0.105239
v 8.422882 0.111176 -0.051640
v 8.422882 0.111176 0.064590
v 7.824578 0.175197 0.134478
v 7.824578 0.175197 -0.121527
vt 0.020253 0.101953
vt 0.024114 0.139525
vt 0.022652 0.086321
vt 0.026554 0.147963
vt 0.000019 0.850819
vt 0.006563 0.979211
vt 0.021278 0.102333
vt 0.025299 0.139627
vt 0.021684 0.139572
vt 0.025367 0.092939
vt 0.023632 0.135146
vt 0.026456 0.133654
vt 0.021457 0.976180
vt 0.011447 0.999981
vt 0.012699 0.990142
vt 0.023023 0.139800
vt 0.027777 0.102093
vt 0.025762 0.086375
vt 0.022801 0.135960
vt 0.022389 0.136268
vt 0.022392 0.136261
vt 0.020161 0.148448
vt 0.028615 0.148632
vt 0.022696 0.134031
vt 0.022109 0.134038
vt 0.021002 0.132910
vt 0.022390 0.136251
vt 0.023060 0.135837
vt 0.022392 0.136242
vt 0.030481 0.852151
vt 0.023260 0.135514
vt 0.017868 0.148610
vt 0.024952 0.089206
vt 0.023350 0.088340
vt 0.024382 0.078987
vt 0.023419 0.089275
vt 0.021101 0.138557
vt 0.025093 0.088578
vt 0.024290 0.134554
vt 0.012699 0.990142
vt 0.026274 0.138010
vt 0.023902 0.134350
vt 0.025141 0.135463
vt 0.024066 0.131587
vt 0.023571 0.129404
vt 0.023830 0.129595
vt 0.022379 0.136253
vt 0.023066 0.093083
vt 0.030519 0.017184
vt 0.042125 0.000019
vt 0.042125 0.018804
vt 0.022380 0.136253
vt 0.022380 0.136253
vt 0.023121 0.131535
vt 0.025586 0.140508
vt 0.023207 0.137203
vt 0.021979 0.137161
vt 0.000000 0.000000
vt 0.000000 0.000000
vt 0.000000 0.000000
vt 0.020907 0.140943
vt 0.022783 0.143086
vt 0.023983 0.142710
vt 0.020799 0.136392
vt 0.024774 0.140105
vt 0.026735 0.102423
vt 0.025604 0.091115
vt 0.022236 0.140010
vt 0.023097 0.125929
vt 0.024793 0.124565
vt 0.024353 0.126270
vt 0.022598 0.088954
vt 0.022813 0.087107
vt 0.025753 0.088996
vt 0.022718 0.091037
vt 0.025585 0.087152
vt 0.023847 0.081083
vt 0.023962 0.081541
vt 0.024161 0.081313
vt 0.024321 0.079017
vt 0.025565 0.078131
vt 0.024633 0.074101
vt 0.026533 0.072813
vt 0.023124 0.077946
vt 0.024212 0.073916
vt 0.028244 0.050437
vt 0.030481 0.016469
vt 0.025453 0.016443
vt 0.025162 0.066366
vt 0.021315 0.050265
vt 0.025610 0.008325
vt 0.025433 0.000019
vt 0.025214 0.027794
vt 0.024726 0.007662
vt 0.025418 0.028192
vt 0.023943 0.066331
vt 0.022438 0.073135
vt 0.025976 0.015472
vt 0.025315 0.011162
vt 0.020395 0.014879
vt 0.023797 0.083389
vt 0.024766 0.082798
vt 0.024760 0.080802
vt 0.024434 0.081277
vt 0.024344 0.081478
vt 0.024536 0.081422
vt 0.024253 0.081333
vt 0.024190 0.081544
vt 0.024327 0.081299
vt 0.025641 0.096566
vt 0.022753 0.096536
vt 0.026236 0.098027
vt 0.022320 0.099570
vt 0.022129 0.098033
vt 0.022798 0.124339
vt 0.023512 0.122800
vt 0.026033 0.099482
vt 0.024219 0.123027
vt 0.000019 0.850819
vt 0.030481 0.852151
vt 0.011447 0.999981
vt 0.022379 0.136253
vt 0.022392 0.136261
vt 0.022392 0.136242
vt 0.022767 0.135433
vn 0.0000 0.0000 -1.0000
vn 0.0334 0.3287 0.9438
vn 0.0000 1.0000 0.0000
vn 0.5917 0.8062 0.0000
vn 0.0000 0.0000 1.0000
vn 0.0693 -0.4607 0.8849
vn 0.0039 1.0000 0.0000
vn 0.1180 0.0000 -0.9930
vn 0.1180 -0.0000 0.9930
vn 0.0693 -0.4607 -0.8849
vn 0.0334 0.3287 -0.9438
vn 0.0603 -0.9982 0.0000
vn 0.0146 0.0000 0.9999
vn 0.6890 -0.7248 0.0000
vn -0.2808 -0.9598 0.0000
vn 0.0000 -1.0000 0.0000
vn 0.1743 -0.9847 0.0000
vn -0.1180 0.0000 -0.9930
vn 0.3054 0.9522 0.0000
vn 0.2707 -0.9627 0.0000
vn 0.1036 0.0993 -0.9896
vn 0.0090 -1.0000 0.0000
vn -0.0342 0.9994 0.0000
vn 0.2515 -0.9679 0.0000
vn 0.7219 0.6920 0.0000
vn 0.0146 0.0000 -0.9999
vn 0.2709 0.9626 -0.0001
vn 0.0737 -0.2837 -0.9561
vn 0.2900 0.0000 -0.9570
vn 0.1175 0.0000 -0.9931
vn 0.0737 -0.2837 0.9561
vn 0.2900 0.0000 0.9570
vn 0.0990 0.1349 0.9859
vn 0.6402 0.2990 0.7076
vn 0.0000 0.3892 0.9212
vn 0.0000 0.3892 -0.9212
vn 0.0990 0.1349 -0.9859
vn -0.0492 0.8585 -0.5104
vn 0.6402 0.2990 -0.7076
vn -0.0492 0.8585 0.5105
vn -0.1961 -0.3816 -0.9033
vn -0.1961 -0.3816 0.9033
vn 0.0000 -0.3892 -0.9212
vn 0.0000 -0.3892 0.9212
vn -0.4364 -0.8998 0.0000
vn 0.9763 -0.2165 0.0000
vn -1.0000 0.0000 0.0000
vn 0.0000 -0.0238 -0.9997
vn -0.5003 0.0000 0.8658
vn -0.3780 0.9258 0.0000
vn -0.5003 0.0000 -0.8658
vn 0.6466 -0.7628 0.0000
vn 0.0082 0.0675 0.9977
vn -0.6233 0.7820 0.0000
vn -0.1907 0.2428 -0.9511
vn -0.9766 -0.2150 0.0000
vn -0.3604 0.9328 0.0000
vn 0.4172 0.9088 0.0000
vn 0.2366 -0.9716 0.0000
vn -0.0370 0.0614 0.9974
vn -0.0370 0.0614 -0.9974
vn -0.7829 -0.6222 0.0000
vn 0.0194 0.0423 0.9989
vn 0.3963 -0.9181 0.0000
vn -0.9953 0.0968 0.0000
vn 0.0000 -0.8757 -0.4828
vn 0.0000 -0.8757 0.4828
vn 0.0000 -0.6644 0.7474
vn 0.8944 -0.4473 0.0000
vn 0.0000 -0.0238 0.9997
vn -0.8132 0.5820 0.0000
vn -0.4603 -0.8878 0.0000
vn 0.0000 -0.6644 -0.7474
vn 0.4603 -0.8878 0.0000
vn -0.2165 -0.9763 0.0000
vn -0.9763 0.2165 0.0000
vn 0.0889 -0.0197 -0.9958
vn 0.0889 -0.0197 0.9958
vn 0.1488 -0.9889 0.0000
vn 0.1654 -0.6367 0.7532
vn 0.1491 -0.7562 -0.6372
vn -0.6113 -0.7914 0.0000
vn 0.1064 0.9943 0.0000
vn -0.2904 0.9569 0.0000
vn 0.1143 0.6769 -0.7271
vn 0.1481 0.3932 0.9075
vn 0.0468 0.0000 0.9989
vn 0.0625 -0.4610 0.8852
vn 0.1181 0.0000 0.9930
vn 0.1183 0.0000 0.9930
vn 0.0625 -0.4610 -0.8852
vn 0.0468 0.0000 -0.9989
vn 0.1198 0.0000 -0.9928
vn 0.1179 0.0000 -0.9930
vn 0.0246 0.0000 -0.9997
vn 0.0246 0.0000 0.9997
vn 0.1036 0.0993 0.9896
vn 0.2708 0.9626 0.0000
vn 0.2707 0.9627 0.0000
vn 0.6467 -0.7628 0.0000
vn 0.0194 0.0423 -0.9989
vn -0.0334 0.0647 -0.9973
vn 0.0082 0.0675 -0.9977
vn -0.1907 0.2428 0.9511
vn -0.0334 0.0647 0.9973
vn 0.1491 -0.7562 0.6372
vn 0.1654 -0.6367 -0.7532
vn 0.1481 0.3932 -0.9075
vn 0.1143 0.6769 0.7271
s off
f 40/1/1 12/2/1 14/3/1
f 28/4/2 27/5/2 3/6/2
f 39/7/3 46/8/3 44/9/3
f 100/10/1 17/11/1 54/12/1
f 1/13/4 16/14/4 15/15/4
f 13/16/5 41/17/5 11/18/5
f 38/19/6 4/20/6 34/21/6
f 1/13/7 28/4/7 3/6/7
f 12/2/8 25/22/8 24/23/8
f 58/24/9 37/25/9 56/26/9
f 2/27/10 31/28/10 30/29/10
f 23/30/11 25/22/11 1/13/11
f 4/20/12 5/31/12 2/27/12
f 27/5/13 28/4/13 26/32/13
f 10/33/1 17/11/1 88/34/1
f 10/33/3 67/35/3 8/36/3
f 9/37/5 87/38/5 18/39/5
f 16/14/14 111/40/14 15/15/14
f 10/33/1 12/2/1 7/41/1
f 11/18/15 10/33/15 8/36/15
f 13/16/5 8/36/5 9/37/5
f 55/42/8 54/12/8 32/43/8
f 53/44/16 102/45/16 99/46/16
f 20/47/17 4/20/17 2/27/17
f 18/39/5 101/48/5 56/26/5
f 6/49/18 37/50/18 35/51/18
f 20/47/19 116/52/19 21/53/19
f 57/54/20 53/44/20 55/42/20
f 32/43/21 33/55/21 29/56/21
f 35/57/9 37/25/9 38/19/9
f 27/5/22 24/23/22 23/30/22
f 35/57/23 30/29/23 29/56/23
f 32/58/8 29/59/8 31/60/8
f 26/32/24 33/55/24 24/23/24
f 36/61/25 29/56/25 33/55/25
f 23/30/26 24/23/26 25/22/26
f 28/4/27 45/62/27 48/63/27
f 44/9/27 48/63/27 45/62/27
f 33/55/28 12/2/28 24/23/28
f 7/41/29 12/2/29 33/55/29
f 7/41/30 32/43/30 17/11/30
f 26/32/31 13/16/31 36/61/31
f 9/37/32 36/61/32 13/16/32
f 36/61/32 9/37/32 37/64/32
f 16/14/33 3/6/33 27/5/33
f 46/8/34 47/65/34 48/63/34
f 42/66/35 47/65/35 46/8/35
f 44/9/36 40/1/36 39/7/36
f 39/7/3 61/67/3 42/66/3
f 23/30/37 1/13/37 15/15/37
f 25/22/38 43/68/38 45/62/38
f 44/9/39 45/62/39 43/68/39
f 28/4/9 13/16/9 26/32/9
f 47/65/40 28/4/40 48/63/40
f 53/44/41 54/12/41 55/42/41
f 56/26/42 57/54/42 58/24/42
f 99/46/43 54/12/43 53/44/43
f 102/45/44 56/26/44 101/48/44
f 88/34/45 101/48/45 87/38/45
f 51/69/46 103/70/46 50/71/46
f 63/72/47 60/73/47 62/74/47
f 40/1/36 64/75/36 39/7/36
f 42/66/35 62/74/35 41/17/35
f 14/3/1 63/72/1 40/1/1
f 11/18/16 60/73/16 14/3/16
f 11/18/5 62/74/5 59/76/5
f 71/77/48 92/78/48 93/79/48
f 88/34/1 69/80/1 10/33/1
f 8/36/5 90/81/5 87/38/5
f 90/81/49 68/82/49 65/83/49
f 69/80/50 68/82/50 67/35/50
f 89/84/51 70/85/51 69/80/51
f 65/83/52 89/84/52 90/81/52
f 75/86/53 83/87/53 82/88/53
f 73/89/54 76/90/54 75/86/54
f 70/85/3 73/89/3 68/82/3
f 85/91/55 80/92/55 79/93/55
f 85/91/56 77/94/56 80/92/56
f 79/93/57 77/94/57 78/95/57
f 75/86/58 79/93/58 78/95/58
f 76/90/1 74/96/1 72/97/1
f 65/83/59 84/98/59 72/97/59
f 81/99/60 82/88/60 83/87/60
f 84/98/61 85/91/61 86/100/61
f 82/88/62 85/91/62 84/98/62
f 83/87/63 75/86/63 78/95/63
f 19/101/64 87/38/64 22/102/64
f 71/77/65 90/81/65 89/84/65
f 19/101/66 89/84/66 88/34/66
f 22/102/67 90/81/67 66/103/67
f 94/104/68 95/105/68 91/106/68
f 22/102/69 92/78/69 19/101/69
f 66/103/70 91/106/70 22/102/70
f 71/77/71 94/104/71 66/103/71
f 95/105/16 97/107/16 96/108/16
f 94/104/72 97/107/72 98/109/72
f 92/78/73 97/107/73 93/79/73
f 91/106/74 96/108/74 92/78/74
f 49/110/75 99/46/75 50/71/75
f 52/111/75 102/45/75 101/48/75
f 50/71/75 102/45/75 51/69/75
f 52/111/75 100/10/75 49/110/75
f 104/112/76 109/113/76 105/114/76
f 49/110/77 103/70/77 104/112/77
f 49/110/76 105/114/76 52/111/76
f 52/111/78 106/115/78 51/69/78
f 110/116/75 108/117/75 107/118/75
f 105/114/78 110/116/78 106/115/78
f 106/115/46 107/118/46 103/70/46
f 103/70/77 108/117/77 104/112/77
f 111/40/79 114/119/79 113/120/79
f 27/5/80 112/121/80 16/14/80
f 23/30/81 111/40/81 113/120/81
f 23/30/82 114/119/82 27/5/82
f 115/122/83 117/123/83 116/52/83
f 34/21/84 118/124/84 30/29/84
f 30/29/85 115/122/85 20/47/85
f 34/21/86 116/52/86 117/123/86
f 40/1/1 43/68/1 12/2/1
f 39/7/3 42/66/3 46/8/3
f 100/10/1 88/34/1 17/11/1
f 1/13/4 3/6/4 16/14/4
f 13/16/5 47/65/5 41/17/5
f 6/125/87 4/20/87 38/19/87
f 4/20/88 21/53/88 34/21/88
f 1/13/7 25/22/7 28/4/7
f 12/2/8 43/68/8 25/22/8
f 58/24/89 6/125/89 38/19/89
f 38/19/9 37/25/9 58/24/9
f 37/25/90 18/39/90 56/26/90
f 30/29/91 20/47/91 2/27/91
f 2/27/92 5/31/92 31/28/92
f 4/20/12 6/125/12 5/31/12
f 10/33/1 7/41/1 17/11/1
f 10/33/3 69/80/3 67/35/3
f 9/37/5 8/36/5 87/38/5
f 16/14/14 112/121/14 111/40/14
f 10/33/1 14/3/1 12/2/1
f 11/18/15 14/3/15 10/33/15
f 13/16/5 11/18/5 8/36/5
f 17/11/93 32/43/93 54/12/93
f 32/43/8 31/28/8 55/42/8
f 31/28/94 5/31/94 55/42/94
f 53/44/16 57/54/16 102/45/16
f 20/47/17 21/53/17 4/20/17
f 18/39/5 87/38/5 101/48/5
f 20/47/19 115/122/19 116/52/19
f 55/42/20 5/31/20 6/125/20
f 6/125/20 58/24/20 55/42/20
f 58/24/20 57/54/20 55/42/20
f 29/56/95 30/29/95 31/28/95
f 31/28/8 32/43/8 29/56/8
f 38/19/96 34/21/96 35/57/96
f 35/57/97 36/61/97 37/25/97
f 27/5/22 26/32/22 24/23/22
f 35/57/23 34/21/23 30/29/23
f 26/32/24 36/61/24 33/55/24
f 36/61/25 35/57/25 29/56/25
f 28/4/98 25/22/98 45/62/98
f 44/9/99 46/8/99 48/63/99
f 7/41/29 33/55/29 32/43/29
f 42/66/35 41/17/35 47/65/35
f 44/9/36 43/68/36 40/1/36
f 39/7/3 64/75/3 61/67/3
f 28/4/9 47/65/9 13/16/9
f 99/46/43 100/10/43 54/12/43
f 102/45/44 57/54/44 56/26/44
f 88/34/45 100/10/45 101/48/45
f 51/69/46 106/115/46 103/70/46
f 60/73/47 59/76/47 62/74/47
f 62/74/47 61/67/47 64/75/47
f 64/75/47 63/72/47 62/74/47
f 40/1/36 63/72/36 64/75/36
f 42/66/35 61/67/35 62/74/35
f 14/3/1 60/73/1 63/72/1
f 11/18/16 59/76/16 60/73/16
f 11/18/5 41/17/5 62/74/5
f 71/77/48 19/101/48 92/78/48
f 88/34/1 89/84/1 69/80/1
f 8/36/5 67/35/5 90/81/5
f 90/81/49 67/35/49 68/82/49
f 69/80/50 70/85/50 68/82/50
f 89/84/51 72/97/51 70/85/51
f 65/83/100 72/97/100 89/84/100
f 82/88/53 65/83/53 75/86/53
f 65/83/5 68/82/5 73/89/5
f 75/86/5 65/83/5 73/89/5
f 73/89/54 74/96/54 76/90/54
f 70/85/3 74/96/3 73/89/3
f 79/93/101 76/90/101 86/100/101
f 86/100/102 85/91/102 79/93/102
f 85/91/56 81/99/56 77/94/56
f 79/93/57 80/92/57 77/94/57
f 75/86/58 76/90/58 79/93/58
f 74/96/1 70/85/1 72/97/1
f 72/97/103 84/98/103 76/90/103
f 84/98/103 86/100/103 76/90/103
f 65/83/59 82/88/59 84/98/59
f 82/88/62 81/99/62 85/91/62
f 77/94/104 81/99/104 78/95/104
f 81/99/105 83/87/105 78/95/105
f 19/101/64 88/34/64 87/38/64
f 71/77/65 66/103/65 90/81/65
f 19/101/66 71/77/66 89/84/66
f 22/102/67 87/38/67 90/81/67
f 94/104/68 98/109/68 95/105/68
f 22/102/69 91/106/69 92/78/69
f 66/103/70 94/104/70 91/106/70
f 71/77/71 93/79/71 94/104/71
f 95/105/16 98/109/16 97/107/16
f 94/104/72 93/79/72 97/107/72
f 92/78/73 96/108/73 97/107/73
f 91/106/74 95/105/74 96/108/74
f 49/110/75 100/10/75 99/46/75
f 52/111/75 51/69/75 102/45/75
f 50/71/75 99/46/75 102/45/75
f 52/111/75 101/48/75 100/10/75
f 104/112/76 108/117/76 109/113/76
f 49/110/77 50/71/77 103/70/77
f 49/110/76 104/112/76 105/114/76
f 52/111/78 105/114/78 106/115/78
f 110/116/75 109/113/75 108/117/75
f 105/114/78 109/113/78 110/116/78
f 106/115/46 110/116/46 107/118/46
f 103/70/77 107/118/77 108/117/77
f 111/40/79 112/121/79 114/119/79
f 27/5/106 114/119/106 112/121/106
f 23/30/107 15/15/107 111/40/107
f 23/30/82 113/120/82 114/119/82
f 115/122/83 118/124/83 117/123/83
f 34/21/84 117/123/84 118/124/84
f 30/29/108 118/124/108 115/122/108
f 34/21/109 21/53/109 116/52/109
