# Blender v2.83.3 OBJ File: ''
# www.blender.org
mtllib head.mtl
o Cube_Cube.001
v -0.153307 3.719933 0.575342
v -0.330005 5.024303 0.185882
v -0.210334 3.662887 0.194648
v -0.330005 4.803725 -0.494619
v 0.153307 3.719933 0.575342
v 0.330005 5.024303 0.185882
v 0.210334 3.662887 0.194648
v 0.330005 4.803725 -0.494619
v -0.437867 4.478374 0.397776
v -0.269262 4.509560 -0.533410
v 0.269262 4.509560 -0.533410
v 0.437867 4.478374 0.397776
v -0.210334 3.662887 0.412225
v -0.269529 5.102455 -0.126899
v 0.210334 3.662887 0.412225
v 0.269529 5.102455 -0.126899
v 0.506458 4.573452 -0.195354
v -0.506458 4.573452 -0.195354
v -0.276497 4.118671 -0.399542
v 0.276497 4.118671 -0.399542
v 0.308892 4.059724 0.617176
v -0.308892 4.059724 0.617176
v -0.435620 4.107262 -0.195354
v 0.435620 4.107262 -0.195354
v 0.000000 3.662887 0.182327
v 0.000000 4.803725 -0.494619
v 0.000000 3.719933 0.575342
v 0.000000 5.024303 0.476463
v 0.000000 4.533730 0.659010
v 0.000000 4.509560 -0.533410
v 0.000000 5.168819 -0.126899
v 0.000000 3.662887 0.424546
v 0.000000 4.118671 -0.399542
v 0.000000 4.059724 0.617176
v -0.117078 3.662887 0.182327
v -0.253229 5.024303 0.476463
v -0.127009 4.533730 0.659010
v -0.117078 3.662887 0.424546
v -0.179561 4.059724 0.617176
v -0.253229 4.803725 -0.494619
v -0.117078 3.719933 0.575342
v -0.253229 4.509560 -0.533410
v -0.091560 5.168819 -0.126899
v -0.253229 4.118671 -0.399542
v 0.253229 4.803725 -0.494619
v 0.117078 3.719933 0.575342
v 0.253229 4.509560 -0.533410
v 0.091560 5.168819 -0.126899
v 0.253229 4.118671 -0.399542
v 0.117078 3.662887 0.182327
v 0.253229 5.024303 0.476463
v 0.127009 4.533730 0.659010
v 0.117078 3.662887 0.424546
v 0.179561 4.059724 0.617176
vt 0.625000 0.559783
vt 0.522436 0.559783
vt 0.625000 0.500000
vt 0.522436 0.437500
vt 0.625000 0.437500
vt 0.522436 0.500000
vt 0.625000 0.750000
vt 0.522436 0.750000
vt 0.625000 0.937500
vt 0.522436 1.000000
vt 0.522436 0.937500
vt 0.312500 0.559783
vt 0.375000 0.559783
vt 0.375000 0.750000
vt 0.312500 0.750000
vt 0.812500 0.559783
vt 0.875000 0.750000
vt 0.812500 0.750000
vt 0.448718 1.000000
vt 0.448718 0.937500
vt 0.448718 0.750000
vt 0.448718 0.559783
vt 0.448718 0.437500
vt 0.448718 0.500000
vt 0.522436 0.190217
vt 0.448718 0.250000
vt 0.448718 0.190217
vt 0.448718 0.000000
vt 0.812500 0.500000
vt 0.875000 0.559783
vt 0.312500 0.500000
vt 0.375000 0.500000
vt 0.875000 0.500000
vt 0.625000 0.190217
vt 0.625000 0.000000
vt 0.522436 0.000000
vt 0.375000 0.190217
vt 0.375000 0.000000
vt 0.375000 0.250000
vt 0.375000 0.437500
vt 0.375000 0.937500
vt 0.375000 1.000000
vt 0.375000 0.812500
vt 0.448718 0.812500
vt 0.448718 0.875000
vt 0.375000 0.875000
vt 0.375000 0.312500
vt 0.448718 0.312500
vt 0.448718 0.375000
vt 0.375000 0.375000
vt 0.187500 0.500000
vt 0.250000 0.500000
vt 0.250000 0.559783
vt 0.187500 0.559783
vt 0.687500 0.500000
vt 0.750000 0.500000
vt 0.750000 0.559783
vt 0.687500 0.559783
vt 0.522436 0.312500
vt 0.522436 0.375000
vt 0.522436 0.812500
vt 0.522436 0.875000
vt 0.750000 0.750000
vt 0.687500 0.750000
vt 0.250000 0.750000
vt 0.187500 0.750000
vt 0.625000 0.812500
vt 0.625000 0.875000
vt 0.625000 0.312500
vt 0.625000 0.375000
vt 0.522436 0.250000
vt 0.625000 0.250000
vt 0.125000 0.559783
vt 0.125000 0.750000
vt 0.125000 0.500000
vt 0.625000 1.000000
vn 0.8850 0.4219 -0.1972
vn 0.0000 0.1307 -0.9914
vn 0.9572 0.2475 0.1504
vn -0.6509 0.1119 0.7509
vn 0.0330 -0.9374 0.3467
vn -0.4080 0.9066 0.1078
vn 0.0000 -0.0879 0.9961
vn 0.9784 -0.1487 0.1439
vn 0.0000 -0.3240 -0.9461
vn -0.7800 -0.1185 -0.6145
vn -0.9784 -0.1487 0.1439
vn 0.7800 -0.1185 -0.6145
vn -0.2759 0.7400 -0.6134
vn 0.0000 -1.0000 0.0000
vn -0.8850 0.4219 -0.1972
vn -0.9572 0.2475 0.1504
vn 0.8919 -0.4522 0.0000
vn -0.8012 -0.4194 0.4268
vn -0.8919 -0.4522 0.0000
vn 0.0639 -0.7941 -0.6045
vn 0.8012 -0.4194 0.4268
vn 0.0000 -0.1222 0.9925
vn 0.0000 -0.7872 -0.6167
vn 0.0000 0.7096 -0.7046
vn 0.0000 0.9725 0.2329
vn 0.0000 -0.9353 0.3538
vn 0.0000 0.3487 0.9372
vn -0.0330 -0.9374 0.3467
vn -0.0639 -0.7941 -0.6045
vn 0.6509 0.1119 0.7509
vn 0.3447 0.9242 0.1643
vn -0.0000 0.7762 -0.6305
vn -0.8233 -0.0962 -0.5595
vn 0.8233 -0.0962 -0.5595
vn 0.9068 0.4154 -0.0715
vn 0.9630 -0.2602 0.0697
vn -0.8214 -0.1711 -0.5440
vn -0.9630 -0.2602 0.0697
vn 0.8214 -0.1711 -0.5440
vn -0.9068 0.4154 -0.0715
vn 0.5514 -0.6905 -0.4682
vn -0.9446 -0.3016 0.1297
vn -0.5514 -0.6905 -0.4682
vn 0.9446 -0.3016 0.1297
vn -0.9285 0.2787 0.2453
vn -0.6514 0.1850 0.7359
vn 0.9285 0.2787 0.2453
vn 0.6514 0.1850 0.7359
vn -0.3447 0.9242 0.1643
vn 0.4080 0.9066 0.1078
vn 0.2759 0.7400 -0.6134
usemtl None
s off
f 16/1/1 17/2/1 8/3/1
f 47/4/2 45/5/2 8/3/2 11/6/2
f 17/2/3 6/7/3 12/8/3
f 36/9/4 9/10/4 37/11/4
f 53/12/5 15/13/5 5/14/5 46/15/5
f 43/16/6 2/17/6 36/18/6
f 37/11/7 22/19/7 39/20/7
f 17/2/8 21/21/8 24/22/8
f 49/23/9 47/4/9 11/6/9 20/24/9
f 18/25/10 19/26/10 23/27/10
f 22/28/11 18/25/11 23/27/11
f 20/24/12 17/2/12 24/22/12
f 40/29/13 14/30/13 43/16/13
f 50/31/14 7/32/14 15/13/14 53/12/14
f 4/33/15 18/25/15 14/34/15
f 2/35/16 18/25/16 9/36/16
f 7/32/17 24/22/17 15/13/17
f 22/28/18 13/37/18 1/38/18
f 23/27/19 3/39/19 13/37/19
f 50/40/20 49/23/20 20/24/20 7/32/20
f 15/13/21 21/21/21 5/14/21
f 41/41/22 39/20/22 22/19/22 1/42/22
f 46/43/22 54/44/22 34/45/22 27/46/22
f 35/47/23 44/48/23 33/49/23 25/50/23
f 35/51/14 25/52/14 32/53/14 38/54/14
f 45/55/24 26/56/24 31/57/24 48/58/24
f 44/48/9 42/59/9 30/60/9 33/49/9
f 54/44/7 52/61/7 29/62/7 34/45/7
f 48/58/25 31/57/25 28/63/25 51/64/25
f 38/54/26 32/53/26 27/65/26 41/66/26
f 52/61/27 51/67/27 28/68/27 29/62/27
f 42/59/2 40/69/2 26/70/2 30/60/2
f 10/71/2 4/72/2 40/69/2 42/59/2
f 13/73/28 38/54/28 41/66/28 1/74/28
f 19/26/9 10/71/9 42/59/9 44/48/9
f 3/75/14 35/51/14 38/54/14 13/73/14
f 3/39/29 19/26/29 44/48/29 35/47/29
f 27/46/22 34/45/22 39/20/22 41/41/22
f 26/56/24 40/29/24 43/16/24 31/57/24
f 34/45/7 29/62/7 37/11/7 39/20/7
f 31/57/25 43/16/25 36/18/25 28/63/25
f 29/62/27 28/68/27 36/9/27 37/11/27
f 12/8/30 51/67/30 52/61/30
f 48/58/31 6/7/31 16/1/31
f 21/21/7 52/61/7 54/44/7
f 45/55/32 16/1/32 8/3/32
f 5/14/22 21/21/22 54/44/22 46/43/22
f 25/50/23 33/49/23 49/23/23 50/40/23
f 25/52/14 50/31/14 53/12/14 32/53/14
f 33/49/9 30/60/9 47/4/9 49/23/9
f 32/53/26 53/12/26 46/15/26 27/65/26
f 30/60/2 26/70/2 45/5/2 47/4/2
f 10/71/33 18/25/33 4/33/33
f 11/6/34 8/3/34 17/2/34
f 17/2/35 16/1/35 6/7/35
f 17/2/36 12/8/36 21/21/36
f 18/25/37 10/71/37 19/26/37
f 22/28/38 9/36/38 18/25/38
f 20/24/39 11/6/39 17/2/39
f 2/35/40 14/34/40 18/25/40
f 7/32/41 20/24/41 24/22/41
f 22/28/42 23/27/42 13/37/42
f 23/27/43 19/26/43 3/39/43
f 15/13/44 24/22/44 21/21/44
f 36/9/45 2/76/45 9/10/45
f 37/11/46 9/10/46 22/19/46
f 12/8/47 6/7/47 51/67/47
f 21/21/48 12/8/48 52/61/48
f 43/16/49 14/30/49 2/17/49
f 40/29/32 4/33/32 14/30/32
f 48/58/50 51/64/50 6/7/50
f 45/55/51 48/58/51 16/1/51
