# Blender v2.90.0 OBJ File: ''
# www.blender.org
mtllib Rock04.mtl
o Cube
v 1.072787 -0.593344 1.456195
v 0.420969 0.884846 -1.055547
v 2.544069 -1.276989 0.566252
v 1.913830 1.302079 -1.221929
v -0.132667 -2.310150 1.223594
v -1.431704 -1.893925 -1.765938
v 0.985202 -2.789407 0.550626
v 1.066557 -1.407866 -2.672770
v -1.063747 -0.578486 -1.634419
v 1.805125 -2.330861 0.421997
v 1.268195 -0.641743 -2.724627
v 0.378208 -1.646620 1.531654
v 1.306656 0.335603 -2.165270
v 0.757721 -1.101717 1.497132
v -0.296356 0.170618 -1.384564
v 2.215328 -1.803726 0.555513
v -0.444950 -1.744548 -2.313191
v 1.716250 -1.063328 1.468907
v 0.568927 -2.633155 1.181752
v 1.089228 1.235318 -1.097879
v -0.181484 -0.497719 -2.036791
v 1.181185 -2.142414 1.625975
v 1.270930 -1.882205 1.884634
v 0.439351 0.541338 -1.627019
v 0.656727 0.715060 0.559601
v 1.360367 -2.270291 -1.109984
v 2.360864 0.879405 -0.238603
v -1.332129 -2.190588 0.430810
v -1.151167 -1.055770 0.203478
v 2.298655 -1.564159 -1.670351
v 2.265574 -0.343780 -1.024070
v 0.023254 0.560643 0.214425
v 1.533182 1.249094 0.395242
v -0.598898 -2.675767 -0.302371
v 0.813305 1.196189 -0.286966
v 2.267696 1.464255 -0.495966
v -1.262749 -2.337035 -0.113602
v -1.176844 -0.486774 -0.973817
v 2.113562 -1.116872 -2.271806
v 2.079940 0.077318 -1.442696
v 0.007824 0.660561 -0.713077
v 1.754654 1.580104 -0.424728
v -0.851086 -2.580873 -1.404918
v 1.370955 -1.849120 -1.972209
v 1.042410 -2.595385 -0.036266
v 0.975850 -0.064089 1.144659
v 2.479092 -0.844700 0.339256
v -0.539945 -2.313769 0.713384
v -0.228375 -1.303529 0.903763
v 1.964487 -1.892222 -0.396620
v 2.254481 -1.408177 0.110876
v 0.488336 -0.359475 1.049965
v 1.657843 -0.498690 1.156128
v 0.160583 -2.736728 0.784533
vt -0.467047 0.350360
vt -0.052602 0.167747
vt -0.259758 0.500869
vt -0.280560 -0.009780
vt 0.067390 -0.108309
vt 1.189526 1.245416
vt 1.379278 1.266277
vt 1.348026 1.455332
vt 0.886633 0.785506
vt 1.076972 1.146577
vt 0.767680 1.068358
vt 1.477098 -0.420756
vt 1.834118 -0.617438
vt 1.840644 -0.456238
vt 0.370836 -0.256622
vt 0.257650 -0.412705
vt 0.385725 -0.446159
vt 1.623669 1.311500
vt 0.601672 1.877910
vt 1.133793 1.501903
vt 1.070724 1.748550
vt 0.178829 0.042732
vt 0.111927 0.204809
vt -0.218355 0.573462
vt 1.459201 -0.632345
vt 1.780386 -0.764844
vt -0.872780 1.685593
vt -0.847186 1.505975
vt -0.731237 1.663571
vt 0.253498 0.573462
vt 0.194868 0.951792
vt 0.026871 0.828096
vt 0.642445 1.451021
vt 0.531208 1.192037
vt 0.345373 1.474934
vt 0.253498 1.239206
vt 0.082298 1.052186
vt 1.559448 1.055735
vt 1.471264 0.746651
vt 1.676476 0.932182
vt 0.257650 1.916020
vt 1.285109 -0.465235
vt 1.295068 -0.263207
vt 1.082014 -0.268781
vt 1.224379 -0.172412
vt 1.094427 0.070452
vt -0.338390 0.184627
vt -0.579577 0.204801
vt 1.234704 1.068198
vt 1.376272 0.813740
vt -0.039156 -0.648600
vt -0.750802 -0.191438
vt -0.772062 -0.563188
vt 0.896195 -0.489011
vt 0.729463 -0.750866
vt 1.004871 -0.799095
vt 0.887106 0.385823
vt 0.667640 -0.209383
vt 0.947183 -0.146441
vt -0.014579 1.669161
vt -0.481960 1.310751
vt -0.317590 1.218389
vt -0.783107 0.991462
vt -0.600010 0.850676
vt 0.489110 0.638264
vt 0.498665 0.375499
vt 1.508041 0.207201
vt 1.839083 0.354461
vt 1.696981 0.399120
vt -0.916021 -0.192374
vt 0.244268 -0.511772
vt 0.257650 -0.740638
vt -0.535248 0.573462
vt -0.342841 0.672684
vt -0.858302 -0.754135
vt -0.538729 -0.875704
vt 1.224379 -0.733862
vt 1.148833 -0.505939
vt 1.001586 0.746651
vt 1.078847 0.422714
vt -0.111752 0.948260
vt 0.026871 1.401688
vt -0.056930 -0.916020
vt -0.116272 -0.350478
vt 1.290325 0.055669
vt 0.311958 0.104733
vt -0.203540 1.685593
vt 1.916021 0.746651
vt 1.916021 1.297730
vt 1.676476 0.988266
vt 1.406425 1.727775
vt 1.676476 1.674380
vt 0.604150 -0.436615
vt 1.840644 0.142192
vt 1.133793 1.613838
vt 1.133793 0.746651
vt 1.312253 -0.916020
vt 0.257650 0.197806
vt 0.150278 1.875943
vt 0.026871 1.655394
vt 0.150278 1.501698
vt 1.224379 -0.613773
vt 0.337502 0.589879
vt 1.297206 1.781093
vt 0.026871 1.353934
vt 0.256315 1.239206
vt 0.256315 1.501698
vt 1.038074 -0.916020
vt -0.916021 1.270766
vn 0.4192 -0.8384 0.3484
vn 0.4834 -0.8073 -0.3385
vn -0.5022 -0.7634 0.4063
vn -0.2353 0.7190 -0.6540
vn 0.7252 0.4024 0.5587
vn -0.4057 0.4073 0.8182
vn -0.7760 0.1228 0.6186
vn -0.2303 -0.0052 -0.9731
vn 0.8870 -0.4562 -0.0718
vn 0.6440 -0.6395 0.4199
vn 0.6247 -0.4035 0.6685
vn 0.8533 -0.1361 -0.5034
vn -0.5364 0.2841 0.7947
vn -0.3375 0.4776 -0.8112
vn -0.3733 0.6143 -0.6952
vn 0.0268 0.0637 0.9976
vn -0.2940 0.2630 0.9189
vn -0.4975 0.2866 -0.8188
vn 0.3203 0.5234 0.7896
vn -0.5157 0.7269 -0.4535
vn -0.1514 -0.9340 -0.3235
vn -0.3313 -0.3716 0.8672
vn 0.2759 -0.9502 -0.1449
vn -0.3280 0.9034 0.2761
vn -0.7029 0.7058 0.0877
vn 0.9416 0.0934 -0.3236
vn 0.9707 0.1548 -0.1836
vn -0.9957 0.0727 0.0568
vn -0.5860 0.8045 0.0964
vn 0.2550 0.8708 0.4204
vn -0.4485 -0.8934 0.0257
vn 0.4077 -0.6681 -0.6224
vn 0.3923 -0.1645 -0.9050
vn -0.3013 -0.6305 -0.7153
vn -0.1277 0.9283 -0.3492
vn -0.6185 0.7413 -0.2607
vn -0.9382 0.2824 -0.1998
vn 0.5939 0.3819 -0.7081
vn 0.7042 0.2173 -0.6759
vn -0.6463 0.7329 -0.2124
vn -0.4671 0.8765 -0.1166
vn 0.0030 -0.7363 -0.6766
vn 0.0899 -0.9603 -0.2641
vn -0.1773 0.5435 0.8205
vn -0.5012 0.3588 0.7874
vn 0.9978 -0.0524 -0.0394
vn 0.9686 -0.0953 0.2296
vn -0.5427 0.2473 0.8027
vn -0.5109 0.4219 0.7490
vn 0.6593 0.2792 0.6981
vn -0.2610 -0.9044 0.3375
vn 0.5779 -0.8140 -0.0580
vn 0.4817 -0.7221 0.4965
vn 0.4444 -0.8625 -0.2418
vn -0.3259 -0.7776 0.5378
vn -0.1584 0.7388 -0.6550
vn 0.7226 0.3906 0.5703
vn -0.4411 0.3402 0.8305
vn -0.6609 0.1694 0.7311
vn -0.3893 0.2770 -0.8785
vn 0.7738 -0.5055 -0.3816
vn 0.6536 -0.6189 0.4356
vn 0.8098 -0.1529 0.5664
vn 0.7934 -0.4878 -0.3641
vn -0.5299 0.4159 0.7391
vn -0.3580 0.5198 -0.7756
vn -0.4998 0.5594 -0.6613
vn 0.0083 0.4491 0.8935
vn -0.4283 -0.5585 0.7104
vn -0.4216 0.2062 -0.8830
vn 0.3366 0.4827 0.8085
vn -0.4322 0.7667 -0.4748
vn 0.0076 -0.9695 0.2450
vn -0.1059 -0.3505 0.9306
vn 0.0051 -0.8985 -0.4389
vn -0.4261 0.8181 0.3862
vn -0.7756 0.5616 0.2883
vn 0.9750 0.0613 -0.2137
vn 0.9522 0.1627 -0.2585
vn -0.9795 0.1245 -0.1583
vn -0.4135 0.8223 0.3909
vn 0.6633 0.3874 0.6402
vn -0.4030 -0.8954 0.1895
vn 0.3857 -0.8309 -0.4011
vn 0.4200 -0.6744 -0.6073
vn -0.7313 -0.6738 -0.1059
vn 0.1716 0.9404 -0.2937
vn -0.5238 0.8484 -0.0763
vn -0.9860 0.1058 0.1292
vn 0.6896 0.4260 -0.5857
vn 0.8622 0.2008 -0.4651
vn -0.6494 0.7236 -0.2338
vn -0.3871 0.9179 -0.0874
vn 0.1236 -0.8146 -0.5668
vn 0.0650 -0.9927 -0.1011
vn 0.2412 0.4018 0.8834
vn -0.6035 0.3469 0.7180
vn 0.8396 -0.1200 -0.5298
vn 0.9238 -0.2838 -0.2571
vn -0.3448 -0.0701 0.9361
vn -0.4165 0.4307 0.8007
vn 0.7327 0.3149 0.6033
vn -0.5139 -0.7982 0.3143
vn 0.5874 -0.8062 -0.0702
usemtl Material
s off
f 19/1/1 10/2/1 22/3/1
f 10/2/2 45/4/2 50/5/2
f 54/6/3 5/7/3 48/8/3
f 20/9/4 13/10/4 24/11/4
f 53/12/5 3/13/5 47/14/5
f 52/15/6 1/16/6 46/17/6
f 5/7/7 49/18/7 48/8/7
f 17/19/8 11/20/8 8/21/8
f 51/22/9 10/2/9 50/5/9
f 22/3/10 16/23/10 23/24/10
f 18/25/11 16/26/11 3/13/11
f 3/27/12 51/28/12 47/29/12
f 49/30/13 14/31/13 52/32/13
f 21/33/14 13/10/14 11/20/14
f 15/34/15 21/33/15 9/35/15
f 14/31/16 18/36/16 1/37/16
f 12/38/17 23/39/17 14/40/17
f 6/41/18 21/33/18 17/19/18
f 1/42/19 53/12/19 46/43/19
f 2/44/20 24/45/20 15/46/20
f 7/47/21 54/48/21 45/4/21
f 12/38/22 19/49/22 22/50/22
f 44/51/23 34/52/23 43/53/23
f 35/54/24 33/55/24 42/56/24
f 38/57/25 32/58/25 41/59/25
f 36/60/26 31/61/26 40/62/26
f 40/62/27 30/63/27 39/64/27
f 37/65/28 29/66/28 38/57/28
f 32/58/29 35/54/29 41/59/29
f 33/67/30 36/68/30 42/69/30
f 34/52/31 37/70/31 43/53/31
f 30/71/32 44/51/32 39/72/32
f 39/64/33 8/73/33 11/74/33
f 43/53/34 6/75/34 17/76/34
f 42/56/35 4/77/35 20/78/35
f 41/59/36 2/44/36 15/46/36
f 6/79/37 38/57/37 9/80/37
f 13/81/38 39/64/38 11/74/38
f 4/82/39 40/62/39 13/81/39
f 38/57/40 15/46/40 9/80/40
f 35/54/41 20/78/41 2/44/41
f 8/83/42 43/53/42 17/76/42
f 45/4/43 34/52/43 26/84/43
f 46/43/44 33/67/44 25/85/44
f 49/86/45 32/58/45 29/66/45
f 27/87/46 51/28/46 31/61/46
f 31/88/47 50/89/47 30/90/47
f 28/91/48 49/18/48 29/92/48
f 52/15/49 25/93/49 32/58/49
f 33/67/50 47/14/50 27/94/50
f 34/95/51 48/8/51 28/91/51
f 50/5/52 26/84/52 30/71/52
f 19/1/53 7/47/53 10/2/53
f 10/2/54 7/47/54 45/4/54
f 54/6/55 19/49/55 5/7/55
f 20/9/56 4/96/56 13/10/56
f 53/12/57 18/25/57 3/13/57
f 52/32/58 14/31/58 1/37/58
f 5/7/59 12/38/59 49/18/59
f 17/19/60 21/33/60 11/20/60
f 51/22/61 16/23/61 10/2/61
f 22/3/62 10/2/62 16/23/62
f 18/25/63 23/97/63 16/26/63
f 3/98/64 16/23/64 51/22/64
f 49/99/65 12/100/65 14/101/65
f 21/33/66 24/11/66 13/10/66
f 15/34/67 24/11/67 21/33/67
f 14/102/68 23/97/68 18/25/68
f 12/38/69 22/50/69 23/39/69
f 6/41/70 9/35/70 21/33/70
f 1/42/71 18/25/71 53/12/71
f 2/44/72 20/78/72 24/45/72
f 7/47/73 19/1/73 54/48/73
f 12/38/74 5/7/74 19/49/74
f 44/51/75 26/84/75 34/52/75
f 35/54/76 25/93/76 33/55/76
f 38/57/77 29/66/77 32/58/77
f 36/60/78 27/87/78 31/61/78
f 40/62/79 31/61/79 30/63/79
f 37/65/80 28/103/80 29/66/80
f 32/58/81 25/93/81 35/54/81
f 33/67/82 27/94/82 36/68/82
f 34/95/83 28/91/83 37/104/83
f 30/71/84 26/84/84 44/51/84
f 39/72/85 44/51/85 8/83/85
f 43/105/86 37/106/86 6/107/86
f 42/56/87 36/108/87 4/77/87
f 41/59/88 35/54/88 2/44/88
f 6/79/89 37/65/89 38/57/89
f 13/81/90 40/62/90 39/64/90
f 4/82/91 36/60/91 40/62/91
f 38/57/92 41/59/92 15/46/92
f 35/54/93 42/56/93 20/78/93
f 8/83/94 44/51/94 43/53/94
f 45/4/95 54/48/95 34/52/95
f 46/43/96 53/12/96 33/67/96
f 49/86/97 52/15/97 32/58/97
f 27/87/98 47/29/98 51/28/98
f 31/61/99 51/28/99 50/109/99
f 28/91/100 48/8/100 49/18/100
f 52/15/101 46/17/101 25/93/101
f 33/67/102 53/12/102 47/14/102
f 34/95/103 54/6/103 48/8/103
f 50/5/104 45/4/104 26/84/104
