ply
format ascii 1.0
comment Created by Blender 2.81 (sub 16) - www.blender.org, source file: 'Tree02.blend'
element vertex 179
property float x
property float y
property float z
property float nx
property float ny
property float nz
property float s
property float t
element face 254
property list uchar uint vertex_indices
end_header
0.147194 1.096331 2.060821 -0.669973 0.293527 0.681845 1.042722 -0.921669
-0.275719 0.969154 1.809443 -0.928465 0.005890 0.371319 0.927434 -1.306008
0.192941 0.711543 2.071513 -0.437666 -0.508438 0.741569 1.250518 -1.047864
0.187087 1.444914 1.531561 -0.425733 0.888668 -0.170232 0.656342 -1.207157
-0.220542 1.130018 1.221165 -0.847743 0.291299 -0.443251 0.634034 -1.598114
0.280058 0.880668 0.715603 -0.115696 0.013306 -0.993164 0.211120 -1.930897
0.702110 1.248873 1.161961 0.523453 0.466079 -0.713218 0.313140 -1.365893
0.981744 1.023215 1.618523 0.884060 -0.272195 -0.379864 0.167462 -0.991333
0.554785 0.493212 0.996320 0.466079 -0.612018 -0.638874 0.036191 -1.704838
0.347241 0.245283 1.406672 -0.084567 -0.990143 -0.111606 -0.235310 -1.592744
0.581412 1.637691 2.281076 -0.680837 0.673482 0.287790 0.895967 -0.369633
0.864431 0.893973 2.164452 0.335612 -0.857814 0.389233 -0.082352 -0.561559
0.538332 0.414612 1.911537 0.269478 -0.851314 0.450117 -0.220067 -1.064445
0.689463 1.273073 2.501512 -0.686636 -0.290262 0.666524 1.126845 -0.261835
1.075644 1.909192 3.099962 -0.655782 0.754875 0.006256 0.887918 0.643263
0.980725 1.776627 2.020595 0.134739 0.879604 -0.456160 0.627116 -0.407235
0.079476 -0.563344 1.901991 0.319132 -0.759911 -0.566240 0.127726 -0.598680
-0.049178 -1.090145 2.500256 0.375896 -0.796991 -0.472732 0.180629 -0.189033
-0.565829 -1.005939 2.531106 -0.736564 -0.477035 -0.479415 0.423652 -0.214569
1.049633 1.709861 3.563859 -0.924955 -0.055483 0.375988 -0.132189 0.937829
0.689463 1.273073 2.501512 -0.686636 -0.290262 0.666524 -0.239394 -0.171692
1.598264 1.263478 2.498764 0.838313 -0.522538 -0.155339 0.244123 0.056852
1.723403 1.577087 3.840709 0.586566 -0.762627 0.272561 0.334561 1.297920
1.245841 1.265234 3.307472 -0.193732 -0.898862 0.393048 0.032964 0.632662
1.704214 2.310340 5.154452 -0.577258 -0.670888 0.465438 0.472350 2.772666
2.048438 2.435295 5.104280 0.982360 -0.019562 -0.185949 0.765029 2.852948
-0.623871 1.901680 5.566574 0.817042 -0.409528 0.405805 1.106373 0.940860
-0.433869 1.663631 4.899648 0.573107 -0.525803 0.628498 1.250058 0.148639
-0.253050 1.702711 4.582556 0.783074 0.575701 0.235237 1.178909 -0.179766
1.573247 2.566151 4.396052 -0.327830 0.927671 -0.178533 0.933765 2.097128
1.608337 2.502965 5.159856 -0.880856 0.385815 0.274209 1.155710 2.753750
2.008977 2.674441 5.089770 0.522019 0.826594 -0.210150 0.889950 2.895422
0.347241 0.245283 1.406672 -0.084567 -0.990143 -0.111606 1.143670 -1.794541
0.192941 0.711543 2.071513 -0.437666 -0.508438 0.741569 -0.443175 -0.929355
1.546691 2.038799 3.163132 0.329173 0.875912 -0.352672 0.661847 0.906498
-0.455879 1.179791 1.126887 -0.429487 0.883847 -0.185186 0.922854 -0.418242
0.332256 0.975574 0.317734 0.538804 0.831263 0.136631 1.106413 -0.825370
0.014749 1.065784 0.265911 0.064943 0.806055 0.588244 0.991878 -0.900903
0.962273 0.570254 0.233511 0.416547 0.231544 0.879116 -0.637859 -0.484995
0.637377 0.797622 0.333679 0.556902 0.805658 0.201849 -0.632144 -0.397204
0.993511 -0.066641 0.396224 0.957274 0.068239 0.280953 -0.466989 -0.585839
0.815778 0.217310 1.008527 0.938047 -0.172613 0.300363 -0.151855 -0.194893
0.985855 -0.571173 0.235704 0.496506 -0.322947 0.805689 -0.501417 -0.813037
0.495430 -0.856448 0.401632 0.434614 -0.707266 0.557512 -0.310925 -0.948570
0.000000 -0.408245 1.038170 -0.023988 -0.777367 0.628559 0.075436 -0.593727
-0.043705 -1.119466 0.262074 0.031190 -0.559160 0.828455 -0.246626 -1.181864
-0.626527 0.162251 1.166687 -0.832179 -0.414350 0.368419 0.421164 -0.575167
-0.875664 0.567737 0.331535 -0.710959 0.308908 0.631733 0.504242 -1.104263
-0.971168 0.030607 0.395124 -0.920530 0.039247 0.388653 0.280852 -1.157061
0.671295 0.779839 2.338569 0.980499 -0.185797 0.063692 0.316013 0.777289
-0.466634 0.858576 0.447675 -0.486740 0.871609 -0.057894 0.753292 -0.906511
-0.405167 0.835768 0.141482 -0.226630 0.272011 -0.935209 -0.832992 -1.282873
0.524021 -0.777711 0.131378 0.108615 -0.313852 -0.943236 -0.440081 -1.080630
-0.452882 -0.803735 0.132705 -0.191382 -0.298227 -0.935087 -0.582466 -1.324433
0.967698 0.176073 0.114125 0.213843 -0.297983 -0.930296 -0.988393 -0.359949
0.466492 0.815104 0.151777 0.233772 0.447157 -0.863338 -0.815168 -0.365743
1.892513 1.088925 -0.325479 0.793146 0.458785 -0.400494 -0.927203 -0.559236
0.967698 0.176073 0.114125 0.213843 -0.297983 -0.930296 -0.855517 -1.182609
1.003548 -0.192064 0.139477 0.428114 0.364025 -0.827143 -0.798950 -1.138502
1.851996 -1.068682 -0.312946 0.799341 -0.433210 -0.416333 -0.848536 -0.989277
0.000807 -2.131495 -0.309999 -0.005921 -0.913968 -0.405713 -0.463725 -1.552357
-0.005790 2.173270 -0.323327 0.013031 0.914090 -0.405225 1.243037 -1.204244
-1.846763 1.062537 -0.312177 -0.802545 0.430616 -0.412854 0.441267 -1.576717
-1.009542 -0.542013 0.235132 -0.544084 -0.251564 0.800378 0.064479 -1.333190
-1.845149 -1.065724 -0.310333 -0.794031 -0.454146 -0.403974 -0.083720 -1.809826
-0.492741 -0.844201 0.456720 -0.327860 -0.701254 0.633015 -0.057904 -1.142348
-0.448428 0.382149 2.235547 -0.677999 -0.702658 0.215735 0.698809 0.257421
0.056711 1.544027 2.707839 -0.002838 0.997253 -0.073885 1.421365 0.632602
0.407330 0.324360 2.083825 0.474990 -0.830287 0.291513 0.366902 0.406782
0.626584 1.231473 2.136904 0.773736 0.624836 -0.104160 0.143011 0.785239
0.571589 0.785966 5.704262 0.995209 -0.089663 0.038362 1.014080 2.496765
0.407952 0.504020 5.109846 0.674001 -0.738578 -0.013245 0.990266 2.126730
0.005599 0.327706 5.326422 0.057680 -0.993774 -0.095187 1.132663 2.121006
-0.567300 1.211829 2.622631 -0.868587 0.495254 -0.015656 1.132647 0.591776
-0.683808 0.884565 5.775257 -0.992828 0.091647 0.076693 1.479522 2.255872
-0.426100 0.638468 7.284438 -0.667348 0.615101 0.419813 1.800702 2.917648
-0.375232 -0.218015 8.128737 -0.924955 -0.377880 -0.040559 1.807978 3.221756
-0.317598 -0.108438 8.194453 -0.731223 0.513138 0.449385 1.876438 3.251492
0.289176 0.032390 7.274464 0.759423 -0.625965 -0.177160 1.393266 3.053779
-0.513184 0.275130 7.202174 -0.949248 -0.314432 0.003784 1.636240 2.862687
-0.226530 1.530974 5.285526 -0.345592 0.930082 0.124424 1.680930 2.134589
-0.000000 -0.196747 7.321780 -0.082919 -0.921476 -0.379467 1.495062 2.982318
0.421260 1.324704 5.975319 0.595233 0.760308 0.259957 0.922653 2.699109
0.325638 -0.081627 8.190278 0.944090 0.248299 0.216742 1.499188 3.447993
-0.270523 0.366401 5.524403 -0.503189 -0.862819 -0.047914 1.242101 2.165546
0.232297 0.782640 7.357075 0.387341 0.778405 0.493942 1.172827 3.199483
0.040379 0.139551 8.190084 -0.051607 0.796197 0.602771 1.397184 3.470920
-0.132988 -0.453504 8.203002 -0.743095 -0.604938 -0.286050 1.755118 3.281964
0.232297 0.782640 7.357075 0.387341 0.778405 0.493942 2.034936 3.004935
0.040379 0.139551 8.190084 -0.051607 0.796197 0.602771 2.029370 3.283785
0.342678 -0.429596 8.178674 0.857234 -0.436171 -0.273568 1.579949 3.387975
-0.924601 0.044582 0.136122 -0.348460 -0.030824 -0.936796 0.261250 -1.345361
-0.405167 0.835768 0.141482 -0.226630 0.272011 -0.935209 0.387175 -1.117904
-0.452882 -0.803735 0.132705 -0.191382 -0.298227 -0.935087 0.421823 -1.494180
-0.405167 0.835768 0.141482 -0.226630 0.272011 -0.935209 1.640670 -0.979614
0.466492 0.815104 0.151777 0.233772 0.447157 -0.863338 1.284123 -0.835273
0.967698 0.176073 0.114125 0.213843 -0.297983 -0.930296 -0.703926 -0.640163
1.003548 -0.192064 0.139477 0.428114 0.364025 -0.827143 -0.690190 -0.707641
-0.452882 -0.803735 0.132705 -0.191382 -0.298227 -0.935087 -0.156221 -1.341820
-0.405167 0.835768 0.141482 -0.226630 0.272011 -0.935209 0.784337 -1.126373
0.056711 1.544027 2.707839 -0.002838 0.997253 -0.073885 0.092667 1.110729
0.039940 -0.736578 8.196813 -0.117038 -0.862880 -0.491623 1.673595 3.302737
-0.086041 -0.339293 1.459199 -0.012299 -0.780328 -0.625233 0.173736 -0.935190
0.235465 0.264169 1.118927 0.467147 0.141118 -0.872799 -0.114179 -1.126404
-0.437052 0.275585 1.128207 -0.552110 0.125095 -0.824305 0.294126 -1.207501
-0.460765 -0.233844 1.718519 -0.800409 -0.502609 -0.326579 0.381323 -0.794052
-0.541300 0.650244 1.642810 -0.578722 0.783837 -0.225043 0.887413 -0.735322
-0.418879 0.373949 2.355562 -0.350566 0.614277 0.706900 1.125109 -0.113041
-0.541300 0.650244 1.642810 -0.578722 0.783837 -0.225043 1.102599 -0.709998
-0.628913 0.610650 1.928681 -0.632282 0.755974 0.169408 1.034082 -0.493323
0.106960 0.321620 2.375631 0.127201 0.618549 0.775353 1.368150 0.087053
-0.227386 0.105638 2.466117 -0.230750 0.468673 0.852657 1.118533 0.013554
-0.504074 -0.255616 2.487459 -0.944731 0.240303 0.222877 0.810988 -0.120297
-0.382678 -0.574301 2.106120 -0.696158 -0.480239 -0.533555 0.388448 -0.485244
-0.299476 -0.358427 2.850916 -0.074221 0.823786 0.561968 0.987862 0.250408
0.126154 -0.414887 2.740918 0.674367 0.471725 0.568011 -0.297150 0.098046
0.374983 -0.324273 2.082434 0.934629 -0.344462 -0.088229 -0.209500 -0.406775
0.287987 0.064643 2.385745 0.769433 0.143132 0.622456 -0.510277 -0.175943
-0.299476 -0.358427 2.850916 -0.074221 0.823786 0.561968 -0.511947 0.147580
0.106960 0.321620 2.375631 0.127201 0.618549 0.775353 -0.654843 -0.177749
-0.336909 -2.004545 5.522976 -0.980682 0.190954 0.041627 0.578306 2.152103
-0.731583 -1.231086 3.808544 -0.991485 -0.034364 0.125584 0.697976 0.725213
-0.427736 -1.507369 3.331704 -0.412458 -0.845393 -0.339335 0.405978 0.328863
-0.443656 -0.755925 3.702756 -0.376202 0.818476 0.434187 -0.423256 0.759213
-0.443656 -0.755925 3.702756 -0.376202 0.818476 0.434187 1.011390 0.847658
-0.109756 -2.213540 5.000344 -0.058168 -0.970763 -0.232826 0.349730 1.560683
0.526588 0.403076 1.529532 0.850887 0.385937 -0.356365 -0.439394 -0.765693
0.424377 0.532923 2.169471 0.608417 0.668691 0.427381 -0.710843 -0.307444
-0.032760 -1.805681 5.603261 -0.081088 0.988433 0.128056 0.758426 2.400417
0.133714 -1.728883 5.244725 0.697928 0.632099 0.336589 0.882309 2.166739
0.424377 0.532923 2.169471 0.608417 0.668691 0.427381 1.569540 0.068374
0.526588 0.403076 1.529532 0.850887 0.385937 -0.356365 1.653459 -0.495394
0.235465 0.264169 1.118927 0.467147 0.141118 -0.872799 1.538250 -1.002491
-0.437052 0.275585 1.128207 -0.552110 0.125095 -0.824305 1.206055 -1.237845
0.099772 -1.120087 3.481189 0.998962 -0.035096 0.028230 -0.023218 0.670279
-0.054182 -0.937383 3.950285 0.549760 0.740989 0.385540 -0.201068 1.039071
0.125254 -2.183499 5.541790 0.750572 -0.659261 0.044557 0.190399 2.216741
0.133714 -1.728883 5.244725 0.697928 0.632099 0.336589 0.001459 2.034488
-0.300456 -1.938104 5.581541 -0.304636 0.718375 -0.625385 0.604257 2.240973
-0.165002 -2.156516 5.545374 -0.413556 -0.908902 0.053163 0.414239 2.160827
0.077475 -1.901996 5.596198 0.861751 0.386700 0.328349 0.036466 2.279506
-0.444442 1.043780 4.522143 -0.287362 -0.676351 0.678182 0.014133 -0.621826
-0.262298 0.737160 4.324594 0.073794 -0.933409 0.351054 0.009031 -0.886634
-0.022386 1.223024 4.542597 0.599872 -0.312967 0.736320 -0.371222 -0.430679
-0.387974 0.789425 3.840612 -0.215888 -0.861812 -0.458907 0.314723 -1.181867
-0.750218 1.200191 4.187005 -0.885891 -0.432203 -0.168310 0.371632 -0.894640
-0.307605 1.215116 3.469538 -0.183477 -0.112369 -0.976562 0.644175 -1.487888
-0.263914 1.702599 3.995046 0.121616 0.909360 -0.397778 0.872228 -0.820917
0.138403 1.432717 4.389088 0.839167 0.353557 0.413221 1.360547 -0.452691
0.297089 1.279284 3.978123 0.988861 -0.051546 -0.139561 1.375909 -0.939271
-1.005797 1.778974 4.570440 -0.899350 -0.013306 -0.436964 0.481775 -0.354954
-0.534304 1.945092 4.393544 0.141209 0.862484 -0.485916 0.860436 -0.360223
-0.433869 1.663631 4.899648 0.573107 -0.525803 0.628498 -0.203526 0.087814
-0.940210 2.034446 4.614387 -0.490982 0.647694 -0.582568 0.612750 -0.187247
-1.187392 2.394605 5.559814 -0.458937 0.826594 -0.325694 0.501718 0.907447
-0.887570 1.623893 4.998678 -0.384503 -0.880184 0.278146 0.150953 0.068484
-0.623871 1.901680 5.566574 0.817042 -0.409528 0.405805 -0.379850 0.887007
-1.100934 1.799435 6.023734 0.023286 -0.953642 0.299936 -0.145045 1.224357
-1.395949 2.327295 7.102458 0.869930 -0.156407 0.467666 0.391244 2.525316
-1.509570 2.489750 7.082043 0.415540 0.904294 -0.097659 0.253771 2.514709
-1.431066 2.467828 7.099443 0.225684 0.035493 -0.973540 0.289297 2.564423
-0.757775 2.383116 5.678595 0.636189 0.764336 0.104892 0.781718 1.157359
-1.783595 2.502999 7.050108 -0.621784 0.722861 -0.301309 0.060556 2.391984
-1.830623 2.343631 7.065396 -0.927030 -0.294778 -0.231697 -0.046145 2.328668
0.297089 1.279284 3.978123 0.988861 -0.051546 -0.139561 -0.506570 -1.060850
-0.022386 1.223024 4.542597 0.599872 -0.312967 0.736320 1.550396 -0.386132
0.322298 1.459279 4.564244 0.446425 0.894406 0.026399 0.572145 2.036320
1.512969 1.631350 2.281688 0.761895 0.392590 -0.515122 0.440626 -0.048540
-1.627303 2.216764 7.092863 -0.197790 -0.942198 0.270394 -0.212699 2.351943
-0.226530 1.530974 5.285526 -0.345592 0.930082 0.124424 0.529591 2.386916
-0.405167 0.835768 0.141482 -0.226630 0.272011 -0.935209 -0.049499 -1.372786
-0.032760 -1.805681 5.603261 -0.081088 0.988433 0.128056 -0.030118 2.271890
0.067016 1.477098 3.583153 0.536058 0.411908 -0.736839 0.905625 -1.166503
-1.395949 2.327295 7.102458 0.869930 -0.156407 0.467666 -0.414917 2.451977
1.049633 1.709861 3.563859 -0.924955 -0.055483 0.375988 1.111550 0.989603
1.983008 2.251556 5.097631 0.630207 -0.730857 0.262001 0.648744 2.767756
0.332256 0.975574 0.317734 0.538804 0.831263 0.136631 -0.738820 -0.335000
0.466492 0.815104 0.151777 0.233772 0.447157 -0.863338 -0.899015 -1.224352
1.704214 2.310340 5.154452 -0.577258 -0.670888 0.465438 1.257065 2.713100
3 0 1 2
3 3 4 1
3 4 3 5
3 6 5 3
3 7 8 5
3 7 9 8
3 0 10 3
3 7 11 12
3 13 14 10
3 14 15 10
3 16 17 18
3 11 19 20
3 21 22 23
3 22 24 23
3 21 25 22
3 26 27 28
3 29 30 31
3 1 0 3
3 6 7 5
3 9 7 12
3 1 4 32
3 4 5 32
3 5 8 9
3 2 1 32
3 12 33 9
3 6 3 15
3 34 31 25
3 35 36 37
3 38 39 40
3 41 40 39
3 42 41 43
3 43 44 45
3 46 45 44
3 46 47 48
3 39 49 41
3 35 37 50
3 51 52 53
3 54 55 56
3 57 58 52
3 52 58 59
3 53 52 60
3 50 37 61
3 47 50 62
3 48 47 62
3 63 48 64
3 65 63 64
3 45 65 60
3 43 45 60
3 42 43 59
3 40 42 59
3 38 40 56
3 39 38 56
3 37 36 61
3 44 66 46
3 67 36 35
3 44 68 66
3 49 69 70
3 49 71 68
3 68 71 72
3 11 7 21
3 73 66 74
3 75 76 77
3 70 78 71
3 74 79 75
3 75 80 74
3 71 81 72
3 82 83 70
3 84 79 74
3 85 86 83
3 81 87 79
3 88 77 89
3 83 90 78
3 43 41 44
3 47 35 50
3 91 92 93
3 94 61 95
3 93 64 91
3 61 36 95
3 55 39 56
3 56 40 96
3 97 40 59
3 59 43 52
3 52 43 60
3 60 65 98
3 98 65 64
3 64 48 91
3 91 48 62
3 62 50 99
3 99 50 61
3 47 46 73
3 39 100 69
3 41 49 68
3 35 47 73
3 44 41 68
3 46 66 73
3 69 82 70
3 49 70 71
3 80 73 74
3 71 78 81
3 82 85 83
3 81 101 87
3 79 87 76
3 102 103 16
3 103 102 104
3 105 106 104
3 107 108 109
3 110 107 111
3 112 113 18
3 105 16 113
3 110 111 114
3 107 112 111
3 105 112 109
3 115 116 117
3 118 115 119
3 16 18 113
3 120 121 122
3 123 115 118
3 112 124 114
3 17 122 18
3 122 17 125
3 121 120 124
3 68 72 66
3 116 126 127
3 120 128 129
3 130 131 108
3 132 133 108
3 110 130 108
3 107 110 108
3 105 102 16
3 105 113 112
3 116 115 134
3 18 122 121
3 112 18 121
3 116 134 17
3 112 121 124
3 115 135 134
3 17 134 136
3 124 120 129
3 135 123 137
3 120 122 125
3 120 138 128
3 120 125 139
3 136 137 140
3 141 142 143
3 144 145 146
3 30 29 14
3 147 148 149
3 147 150 151
3 141 143 152
3 153 154 151
3 145 141 155
3 152 155 141
3 150 145 155
3 153 150 154
3 152 156 155
3 156 157 155
3 158 159 160
3 161 159 158
3 161 158 26
3 154 162 159
3 157 163 155
3 159 161 154
3 142 144 164
3 144 146 164
3 143 142 164
3 148 165 149
3 147 146 150
3 146 145 150
3 147 151 28
3 151 150 153
3 151 154 161
3 28 151 161
3 154 150 163
3 134 137 136
3 166 69 100
3 33 12 11
3 167 21 7
3 147 28 148
3 135 137 134
3 157 168 163
3 70 83 78
3 75 88 80
3 78 101 81
3 40 97 96
3 7 6 15
3 19 23 24
3 40 41 42
3 63 65 46
3 46 48 63
3 150 155 163
3 14 34 15
3 35 73 80
3 166 82 69
3 169 166 100
3 166 169 82
3 79 84 72
3 91 62 170
3 67 35 80
3 75 79 76
3 82 169 85
3 17 136 125
3 111 112 114
3 29 31 34
3 46 65 45
3 33 11 20
3 115 123 135
3 163 162 154
3 125 136 139
3 49 39 69
3 171 140 137
3 102 105 104
3 131 132 108
3 78 90 101
3 146 147 172
3 145 144 142
3 14 29 34
3 157 173 168
3 107 109 112
3 142 141 145
3 2 13 0
3 3 10 15
3 167 7 15
3 13 174 14
3 11 21 23
3 15 34 167
3 167 34 25
3 167 25 21
3 22 25 175
3 22 175 24
3 26 28 161
3 116 127 117
3 51 57 52
3 100 39 176
3 66 84 74
3 176 39 55
3 66 72 84
3 72 81 79
3 119 117 127
3 126 116 16
3 16 103 126
3 106 105 109
3 119 115 117
3 17 16 116
3 28 27 165
3 10 0 13
3 19 11 23
3 77 88 75
3 28 165 148
3 156 173 157
3 51 177 57
3 146 172 149
3 172 147 149
3 174 178 14
3 14 178 30
