# Blender v2.81 (sub 16) OBJ File: ''
# www.blender.org
mtllib gunmodel00.mtl
o Cube
v 8.653996 0.791451 -0.100382
v 7.583213 -0.152445 -0.061295
v 8.653996 0.791451 0.113332
v 7.583213 -0.152445 0.074245
v 1.645264 -0.511124 -0.339357
v 1.645264 -0.511124 0.352308
v 1.000000 0.307402 -0.416031
v -1.202886 0.307402 0.428982
v 1.000000 0.307402 0.428982
v -1.202886 0.307402 -0.416031
v -1.861144 0.500000 0.428982
v 1.000000 0.500000 -0.416031
v 1.000000 0.500000 0.428982
v -1.861144 0.500000 -0.416031
v 8.886511 0.620803 -0.100382
v 8.886511 0.620803 0.113332
v 1.000000 -0.192598 -0.416031
v 1.000000 -0.192598 0.428982
v -1.594876 -0.361808 -0.109082
v 8.653996 0.037042 -0.084321
v 8.653996 0.037042 0.097272
v -1.594876 -0.361808 0.122033
v 7.585505 0.463013 -0.252623
v 1.645264 0.409263 -0.339357
v 1.645264 0.818476 -0.339357
v 1.645264 0.409263 0.352308
v 7.585505 0.463013 0.265573
v 1.645264 0.818476 0.352308
v 1.645264 -0.101861 -0.339357
v 7.580297 0.101063 -0.193510
v 1.645264 -0.511074 -0.339357
v 1.000048 -0.192591 -0.416026
v 1.253032 0.307352 -0.339357
v 7.580297 0.101063 0.206460
v 1.645264 -0.101861 0.352308
v 1.253032 0.307352 0.352308
v 1.000048 -0.192591 0.428976
v 1.645264 -0.511074 0.352308
v -1.000000 1.000000 -0.304457
v -1.000000 0.735922 -0.416031
v -1.000000 0.735922 0.428982
v -1.000000 1.000000 0.317407
v 1.000000 0.735922 -0.416031
v 1.000000 1.000000 -0.304457
v 1.245377 0.930971 -0.111625
v 1.000000 1.000000 0.317407
v 1.000000 0.735922 0.428982
v 1.245381 0.930989 0.124575
v -0.849488 -0.324371 -0.247114
v 0.660273 -0.659216 -0.105640
v 0.660273 -0.659216 0.118591
v -0.849488 -0.324371 0.260065
v 1.000000 -0.692598 -0.246349
v 1.000000 -0.290990 -0.416031
v 1.373174 -0.587646 -0.371689
v 1.000000 -0.290990 0.428982
v 1.000000 -0.692598 0.259300
v 1.373174 -0.587646 0.384639
v -1.947034 0.500000 0.428982
v -1.947034 0.500000 -0.416031
v -1.947034 1.000000 0.317407
v -1.947034 0.735922 0.428982
v -1.947034 0.735922 -0.416031
v -1.947034 1.000000 -0.304457
v -2.277153 -0.426618 0.269475
v -2.017559 -0.361808 0.122033
v -2.001102 0.307402 0.428982
v -2.277153 0.194696 0.269475
v -2.001102 0.307402 -0.416031
v -2.277153 0.194696 -0.256524
v -2.017559 -0.361808 -0.109082
v -2.277153 -0.426618 -0.256524
v -2.727552 0.194696 0.269475
v -2.727552 0.194696 -0.256524
v -3.343766 -0.296464 0.269475
v -3.343766 -0.296463 -0.256524
v -5.431927 -0.175857 0.168496
v -4.440679 0.207134 0.269475
v -4.440679 0.207135 -0.256524
v -5.431927 -0.175857 -0.155545
v -5.342149 -0.583673 0.290603
v -4.949831 -1.077317 0.335553
v -4.958690 -1.011017 0.331141
v -4.949831 -1.077317 -0.322602
v -5.342149 -0.583673 -0.277653
v -4.958690 -1.011017 -0.318191
v -1.202886 -0.192598 0.428982
v -1.202886 -0.192598 -0.416031
v -2.001102 -0.192598 -0.416031
v -2.001102 -0.192598 0.428982
v -1.835187 -0.842254 0.110583
v -1.835187 -0.842254 -0.097633
v -2.361420 -0.842254 -0.097633
v -2.361420 -0.842254 0.110583
v -1.938249 -0.895694 0.063077
v -1.938249 -0.895694 -0.050126
v -2.258357 -0.895694 -0.050126
v -2.258357 -0.895694 0.063077
v 0.810785 -0.692598 -0.246349
v -1.000000 -0.290990 -0.416031
v -1.000000 -0.290990 0.428982
v 0.810785 -0.692598 0.259300
v 0.633125 -0.781620 -0.105640
v -0.876636 -0.446776 -0.247114
v -0.876636 -0.446776 0.260065
v 0.633125 -0.781620 0.118591
v 0.579169 -1.024898 -0.105640
v -0.930591 -0.690053 -0.247114
v -0.930591 -0.690053 0.260065
v 0.579169 -1.024898 0.118591
v 8.773285 0.513173 -0.034257
v 8.773285 0.513173 0.047207
v 7.724840 0.355382 -0.092289
v 7.724840 0.355382 0.105239
v 8.422882 0.111176 -0.051640
v 8.422882 0.111176 0.064590
v 7.824578 0.175197 0.134478
v 7.824578 0.175197 -0.121527
vt 0.022652 0.086321
vt 0.020253 0.101953
vt 0.022236 0.140010
vt 0.024114 0.139525
vt 0.026554 0.147963
vt 0.000019 0.850819
vt 0.006563 0.979211
vt 0.021684 0.139572
vt 0.021278 0.102333
vt 0.026735 0.102423
vt 0.025299 0.139627
vt 0.025367 0.092939
vt 0.023350 0.088340
vt 0.023632 0.135146
vt 0.026456 0.133654
vt 0.012699 0.990142
vt 0.021457 0.976180
vt 0.011447 0.999981
vt 0.023023 0.139800
vt 0.024774 0.140105
vt 0.027777 0.102093
vt 0.025762 0.086375
vt 0.022389 0.136268
vt 0.022380 0.136253
vt 0.022392 0.136261
vt 0.022801 0.135960
vt 0.022767 0.135433
vt 0.020161 0.148448
vt 0.028615 0.148632
vt 0.022109 0.134038
vt 0.024290 0.134554
vt 0.021002 0.132910
vt 0.022696 0.134031
vt 0.022379 0.136253
vt 0.022390 0.136251
vt 0.023260 0.135514
vt 0.023060 0.135837
vt 0.022392 0.136242
vt 0.030481 0.852151
vt 0.017868 0.148610
vt 0.024952 0.089206
vt 0.026274 0.138010
vt 0.023419 0.089275
vt 0.024321 0.079017
vt 0.024382 0.078987
vt 0.021101 0.138557
vt 0.025093 0.088578
vt 0.011447 0.999981
vt 0.012699 0.990142
vt 0.025141 0.135463
vt 0.023902 0.134350
vt 0.023830 0.129595
vt 0.024066 0.131587
vt 0.023121 0.131535
vt 0.023571 0.129404
vt 0.023066 0.093083
vt 0.030519 0.017184
vt 0.042125 0.000019
vt 0.042125 0.018804
vt 0.022379 0.136253
vt 0.022380 0.136253
vt 0.023207 0.137203
vt 0.025586 0.140508
vt 0.021979 0.137161
vt 0.020907 0.140943
vt 0.000000 0.000000
vt 0.000000 0.000000
vt 0.000000 0.000000
vt 0.023983 0.142710
vt 0.022783 0.143086
vt 0.020799 0.136392
vt 0.022718 0.091037
vt 0.025604 0.091115
vt 0.024353 0.126270
vt 0.023097 0.125929
vt 0.022798 0.124339
vt 0.024793 0.124565
vt 0.025585 0.087152
vt 0.025753 0.088996
vt 0.022598 0.088954
vt 0.022813 0.087107
vt 0.023847 0.081083
vt 0.023797 0.083389
vt 0.023962 0.081541
vt 0.024161 0.081313
vt 0.023124 0.077946
vt 0.025565 0.078131
vt 0.024633 0.074101
vt 0.026533 0.072813
vt 0.024212 0.073916
vt 0.022438 0.073135
vt 0.025162 0.066366
vt 0.028244 0.050437
vt 0.030481 0.016469
vt 0.025453 0.016443
vt 0.023943 0.066331
vt 0.021315 0.050265
vt 0.020395 0.014879
vt 0.025610 0.008325
vt 0.025433 0.000019
vt 0.025214 0.027794
vt 0.025315 0.011162
vt 0.024726 0.007662
vt 0.025418 0.028192
vt 0.025976 0.015472
vt 0.024766 0.082798
vt 0.024760 0.080802
vt 0.024536 0.081422
vt 0.024434 0.081277
vt 0.024327 0.081299
vt 0.024344 0.081478
vt 0.024190 0.081544
vt 0.024253 0.081333
vt 0.025641 0.096566
vt 0.022753 0.096536
vt 0.022129 0.098033
vt 0.026236 0.098027
vt 0.026033 0.099482
vt 0.022320 0.099570
vt 0.024219 0.123027
vt 0.023512 0.122800
vt 0.030481 0.852151
vt 0.000019 0.850819
vt 0.022392 0.136242
vt 0.022392 0.136261
vn 0.0000 0.0000 -1.0000
vn 0.0334 0.3287 0.9438
vn 0.0000 1.0000 0.0000
vn 0.5917 0.8062 0.0000
vn 0.0000 0.0000 1.0000
vn 0.0682 -0.4607 0.8849
vn 0.0039 1.0000 0.0000
vn 0.1180 0.0000 -0.9930
vn 0.1180 -0.0000 0.9930
vn 0.0682 -0.4607 -0.8849
vn 0.0334 0.3287 -0.9438
vn 0.0603 -0.9982 0.0000
vn 0.0146 0.0000 0.9999
vn 0.6890 -0.7248 0.0000
vn -0.2808 -0.9598 0.0000
vn 0.0000 -1.0000 0.0000
vn 0.1743 -0.9847 0.0000
vn -0.1180 0.0000 -0.9930
vn 0.3054 0.9522 0.0000
vn 0.2707 -0.9627 0.0000
vn 0.0409 0.0100 -0.9991
vn 0.0409 0.0100 0.9991
vn 0.0090 -1.0000 0.0000
vn -0.0342 0.9994 0.0000
vn 0.2515 -0.9679 0.0000
vn 0.7219 0.6920 0.0000
vn 0.0146 0.0000 -0.9999
vn 0.2708 0.9626 -0.0000
vn 0.0737 -0.2837 -0.9561
vn 0.2900 0.0000 -0.9570
vn 0.0737 -0.2837 0.9561
vn 0.2900 0.0000 0.9570
vn 0.0990 0.1349 0.9859
vn 0.6402 0.2990 0.7076
vn 0.0000 0.3892 0.9212
vn 0.0000 0.3892 -0.9212
vn 0.0990 0.1349 -0.9859
vn -0.0492 0.8585 -0.5104
vn 0.6402 0.2990 -0.7076
vn -0.0492 0.8585 0.5105
vn -0.1961 -0.3816 -0.9033
vn -0.1961 -0.3816 0.9033
vn 0.0000 -0.3892 -0.9212
vn 0.0000 -0.3892 0.9212
vn -0.4364 -0.8998 0.0000
vn 0.9763 -0.2165 0.0000
vn -1.0000 0.0000 0.0000
vn 0.0000 -0.0238 -0.9997
vn -0.5003 0.0000 0.8658
vn -0.3780 0.9258 0.0000
vn -0.5003 0.0000 -0.8658
vn 0.6466 -0.7628 0.0000
vn 0.0047 0.0383 0.9993
vn -0.6233 0.7820 0.0000
vn -0.0292 0.0820 -0.9962
vn -0.9766 -0.2150 0.0000
vn -0.3604 0.9328 0.0000
vn 0.4172 0.9088 0.0000
vn 0.0047 0.0383 -0.9993
vn 0.2366 -0.9716 0.0000
vn -0.0370 0.0614 0.9974
vn -0.0370 0.0614 -0.9974
vn -0.7829 -0.6222 0.0000
vn -0.0292 0.0820 0.9962
vn 0.3963 -0.9181 0.0000
vn -0.9953 0.0968 0.0000
vn 0.0000 -0.8757 -0.4828
vn 0.0000 -0.8757 0.4828
vn 0.0000 -0.6644 0.7474
vn 0.8944 -0.4473 0.0000
vn 0.0000 -0.0238 0.9997
vn -0.8132 0.5820 0.0000
vn -0.4603 -0.8878 0.0000
vn 0.0000 -0.6644 -0.7474
vn 0.4603 -0.8878 0.0000
vn -0.2165 -0.9763 0.0000
vn -0.9763 0.2165 0.0000
vn 0.0889 -0.0197 -0.9958
vn 0.0889 -0.0197 0.9958
vn 0.1488 -0.9889 0.0000
vn 0.1567 -0.7068 0.6899
vn 0.1567 -0.7068 -0.6899
vn -0.6113 -0.7914 0.0000
vn 0.1064 0.9943 0.0000
vn -0.2904 0.9569 0.0000
vn 0.1305 0.5640 -0.8154
vn 0.1305 0.5640 0.8154
usemtl Material
s off
f 14/1/1 40/2/1 43/3/1 12/4/1
f 28/5/2 27/6/2 3/7/2
f 44/8/3 39/9/3 42/10/3 46/11/3
f 100/12/1 88/13/1 17/14/1 54/15/1
f 15/16/4 1/17/4 3/7/4 16/18/4
f 13/19/5 47/20/5 41/21/5 11/22/5
f 4/23/6 21/24/6 34/25/6 38/26/6 6/27/6
f 3/7/7 1/17/7 25/28/7 28/5/7
f 24/29/8 12/4/8 43/3/8 25/28/8
f 6/27/9 38/26/9 37/30/9 18/31/9 56/32/9 58/33/9
f 20/34/10 2/35/10 5/36/10 31/37/10 30/38/10
f 23/39/11 25/28/11 1/17/11
f 2/35/12 4/23/12 6/27/12 5/36/12
f 27/6/13 28/5/13 26/40/13
f 88/13/1 10/41/1 7/42/1 17/14/1
f 8/43/3 10/41/3 69/44/3 67/45/3
f 18/31/5 9/46/5 8/43/5 87/47/5
f 15/16/14 16/18/14 112/48/14 111/49/14
f 10/41/1 14/1/1 12/4/1 7/42/1
f 8/43/15 11/22/15 14/1/15 10/41/15
f 9/46/5 13/19/5 11/22/5 8/43/5
f 32/50/8 31/37/8 5/36/8 55/51/8 54/15/8 17/14/8
f 99/52/16 53/53/16 57/54/16 102/55/16
f 2/35/17 20/34/17 21/24/17 4/23/17
f 56/32/5 18/31/5 87/47/5 101/56/5
f 6/57/18 37/58/18 35/59/18
f 21/24/19 20/34/19 115/60/19 116/61/19
f 5/36/20 6/27/20 58/33/20 57/54/20 53/53/20 55/51/20
f 29/62/21 30/38/21 31/37/21 32/50/21 33/63/21
f 34/25/22 35/64/22 36/65/22 37/30/22 38/26/22
f 23/39/23 27/6/23 26/40/23 24/29/23
f 29/62/24 35/64/24 34/25/24 30/38/24
f 32/66/8 29/67/8 31/68/8
f 24/29/25 26/40/25 36/65/25 33/63/25
f 33/63/26 36/65/26 35/64/26 29/62/26
f 23/39/27 24/29/27 25/28/27
f 48/69/28 28/5/28 25/28/28 45/70/28
f 45/70/28 44/8/28 46/11/28 48/69/28
f 33/63/29 12/4/29 24/29/29
f 7/42/30 12/4/30 33/63/30
f 7/42/30 33/63/30 32/50/30 17/14/30
f 26/40/31 13/19/31 36/65/31
f 9/46/32 36/65/32 13/19/32
f 36/65/32 9/46/32 37/71/32
f 16/18/33 3/7/33 27/6/33
f 46/11/34 47/20/34 48/69/34
f 46/11/35 42/10/35 41/21/35 47/20/35
f 39/9/36 44/8/36 43/3/36 40/2/36
f 42/10/3 39/9/3 64/72/3 61/73/3
f 23/39/37 1/17/37 15/16/37
f 25/28/38 43/3/38 45/70/38
f 44/8/39 45/70/39 43/3/39
f 28/5/9 47/20/9 13/19/9 26/40/9
f 47/20/40 28/5/40 48/69/40
f 53/53/41 54/15/41 55/51/41
f 56/32/42 57/54/42 58/33/42
f 53/53/43 99/52/43 100/12/43 54/15/43
f 102/55/44 57/54/44 56/32/44 101/56/44
f 87/47/45 88/13/45 100/12/45 101/56/45
f 50/74/46 51/75/46 106/76/46 103/77/46
f 59/78/47 62/79/47 61/73/47 64/72/47 63/80/47 60/81/47
f 39/9/36 40/2/36 63/80/36 64/72/36
f 41/21/35 42/10/35 61/73/35 62/79/35
f 40/2/1 14/1/1 60/81/1 63/80/1
f 14/1/16 11/22/16 59/78/16 60/81/16
f 11/22/5 41/21/5 62/79/5 59/78/5
f 71/82/48 19/83/48 92/84/48 93/85/48
f 10/41/1 88/13/1 89/86/1 69/44/1
f 87/47/5 8/43/5 67/45/5 90/87/5
f 90/87/49 67/45/49 68/88/49 65/89/49
f 67/45/50 69/44/50 70/90/50 68/88/50
f 69/44/51 89/86/51 72/91/51 70/90/51
f 65/89/52 72/91/52 89/86/52 90/87/52
f 65/89/53 68/88/53 73/92/53 75/93/53 83/94/53 82/95/53
f 75/93/54 73/92/54 74/96/54 76/97/54
f 68/88/3 70/90/3 74/96/3 73/92/3
f 76/97/55 86/98/55 85/99/55 80/100/55 79/101/55
f 85/99/56 81/102/56 77/103/56 80/100/56
f 78/104/57 79/101/57 80/100/57 77/103/57
f 75/93/58 76/97/58 79/101/58 78/104/58
f 70/90/59 72/91/59 84/105/59 86/98/59 76/97/59 74/96/59
f 72/91/60 65/89/60 82/95/60 84/105/60
f 81/102/61 82/95/61 83/94/61
f 84/105/62 85/99/62 86/98/62
f 84/105/63 82/95/63 81/102/63 85/99/63
f 81/102/64 83/94/64 75/93/64 78/104/64 77/103/64
f 22/106/65 19/83/65 88/13/65 87/47/65
f 71/82/66 66/107/66 90/87/66 89/86/66
f 19/83/67 71/82/67 89/86/67 88/13/67
f 66/107/68 22/106/68 87/47/68 90/87/68
f 91/108/69 94/109/69 98/110/69 95/111/69
f 19/83/70 22/106/70 91/108/70 92/84/70
f 22/106/71 66/107/71 94/109/71 91/108/71
f 66/107/72 71/82/72 93/85/72 94/109/72
f 96/112/16 95/111/16 98/110/16 97/113/16
f 94/109/73 93/85/73 97/113/73 98/110/73
f 93/85/74 92/84/74 96/112/74 97/113/74
f 92/84/75 91/108/75 95/111/75 96/112/75
f 50/74/76 49/114/76 100/12/76 99/52/76
f 52/115/76 51/75/76 102/55/76 101/56/76
f 51/75/76 50/74/76 99/52/76 102/55/76
f 49/114/76 52/115/76 101/56/76 100/12/76
f 105/116/77 104/117/77 108/118/77 109/119/77
f 49/114/78 50/74/78 103/77/78 104/117/78
f 52/115/77 49/114/77 104/117/77 105/116/77
f 51/75/79 52/115/79 105/116/79 106/76/79
f 107/120/76 110/121/76 109/119/76 108/118/76
f 106/76/79 105/116/79 109/119/79 110/121/79
f 103/77/46 106/76/46 110/121/46 107/120/46
f 104/117/78 103/77/78 107/120/78 108/118/78
f 113/122/80 111/49/80 112/48/80 114/123/80
f 16/18/81 27/6/81 114/123/81 112/48/81
f 23/39/82 15/16/82 111/49/82 113/122/82
f 27/6/83 23/39/83 113/122/83 114/123/83
f 116/61/84 115/60/84 118/124/84 117/125/84
f 30/38/85 34/25/85 117/125/85 118/124/85
f 20/34/86 30/38/86 118/124/86 115/60/86
f 34/25/87 21/24/87 116/61/87 117/125/87
